G04 PROTEUS GERBER X2 FILE*
%TF.GenerationSoftware,Labcenter,Proteus,8.12-SP0-Build30713*%
%TF.CreationDate,2021-08-02T00:20:26+00:00*%
%TF.FileFunction,Copper,L2,Bot*%
%TF.FilePolarity,Positive*%
%TF.Part,Single*%
%TF.SameCoordinates,{4cff7d1c-7656-49df-93de-6e2fb68f4e0e}*%
%FSLAX45Y45*%
%MOMM*%
G01*
%TA.AperFunction,Conductor*%
%ADD10C,0.381000*%
%ADD11C,0.203200*%
%TA.AperFunction,ViaPad*%
%ADD12C,1.016000*%
%ADD13C,0.508000*%
%TA.AperFunction,ComponentPad*%
%ADD15C,1.524000*%
%TA.AperFunction,ComponentPad*%
%ADD16C,3.048000*%
%TA.AperFunction,WasherPad*%
%ADD19C,1.397000*%
%TA.AperFunction,ComponentPad*%
%ADD70C,2.032000*%
%TA.AperFunction,SMDPad,CuDef*%
%ADD20R,0.939800X1.447800*%
%TA.AperFunction,SMDPad,CuDef*%
%ADD22R,0.889000X1.016000*%
%TA.AperFunction,SMDPad,CuDef*%
%ADD23R,0.609600X0.609600*%
%ADD24R,0.558800X0.609600*%
%TA.AperFunction,Profile*%
%ADD21C,0.203200*%
%TD.AperFunction*%
D10*
X+3627000Y+2682500D02*
X+3627000Y+2809500D01*
X+3500000Y+2555500D02*
X+3500000Y+2174500D01*
X+3924500Y+1750000D01*
X+4070000Y+1750000D01*
X+3000380Y+3000000D02*
X+3436500Y+3000000D01*
X+3627000Y+2809500D01*
X+3500000Y+2555500D02*
X+3563500Y+2555500D01*
X+3627000Y+2619000D01*
X+3627000Y+2682500D01*
X+1150500Y+3635000D02*
X+960000Y+3635000D01*
X+931000Y+3606000D01*
X+769500Y+3606000D01*
X+769500Y+3508000D02*
X+769500Y+3606000D01*
X+5500000Y+500000D02*
X+5500000Y+650500D01*
X+5250500Y+650500D01*
X+5100000Y+500000D01*
X+641000Y+3606000D02*
X+769500Y+3606000D01*
X+641000Y+3606000D02*
X+514000Y+3733000D01*
X+198000Y+3733000D01*
X+134500Y+3796500D01*
X+134500Y+4905000D01*
X+250000Y+5020500D01*
X+250000Y+5750000D01*
X+5500000Y+500000D02*
X+5667000Y+333000D01*
X+5900000Y+333000D01*
X+5900000Y+500000D01*
X+769500Y+3508000D02*
X+769500Y+3226500D01*
X+641000Y+3098000D01*
X+1550000Y+1095000D02*
X+1050000Y+1095000D01*
X+1050000Y+1250000D01*
X+1658500Y+1095000D02*
X+1550000Y+1095000D01*
X+1700000Y+500000D02*
X+1700000Y+714000D01*
X+1658500Y+755500D01*
X+1658500Y+1095000D01*
X+1550000Y+1095000D02*
X+1550000Y+1250000D01*
X+3150000Y+250000D02*
X+3150000Y+333000D01*
X+2992000Y+333000D01*
X+3150000Y+250000D02*
X+3150000Y+0D01*
X+5660000Y+3500000D02*
X+5660000Y+5222500D01*
X+5700000Y+5262500D01*
X+5700000Y+5500000D01*
X+1404500Y+269500D02*
X+1404500Y+333000D01*
X+1700000Y+500000D02*
X+1533000Y+333000D01*
X+1404500Y+333000D01*
X+1160000Y+333000D01*
X+1160000Y+250000D01*
X+1658500Y+1250000D02*
X+1658500Y+1095000D01*
X+5660000Y+3500000D02*
X+5349500Y+3500000D01*
X+5341500Y+3508000D01*
X+1150500Y+2746000D02*
X+1023500Y+2746000D01*
X+960000Y+2809500D01*
X+641000Y+2844000D02*
X+660051Y+2824949D01*
X+944551Y+2824949D01*
X+960000Y+2809500D01*
X+1658500Y+1285500D02*
X+1658500Y+1250000D01*
X+3150000Y+0D02*
X+3150000Y-111500D01*
X+3650000Y+0D02*
X+3650000Y-111500D01*
X+3150000Y-111500D01*
X+2910000Y-111500D01*
X+2910000Y+0D01*
X+3500000Y+1666500D02*
X+3660000Y+1666500D01*
X+3660000Y+1500000D01*
X+1700000Y+1500000D02*
X+1658500Y+1458500D01*
X+1658500Y+1285500D01*
X+1404500Y+269500D02*
X+1404500Y+250000D01*
X+1410000Y+250000D01*
X+1050000Y+2250000D02*
X+1050000Y+2645500D01*
X+1150500Y+2746000D01*
X+1050000Y+2250000D02*
X+1050000Y+2111000D01*
X+1550000Y+2111000D01*
X+1550000Y+2250000D01*
X+1910000Y+1500000D02*
X+1910000Y+1250000D01*
X+3650000Y+0D02*
X+3650000Y+250000D01*
X+1700000Y+1500000D02*
X+1910000Y+1500000D01*
X+3309500Y+2873000D02*
X+3309500Y+2111000D01*
X+3373000Y+2047500D01*
D11*
X+5532000Y+2428500D02*
X+5550000Y+2410500D01*
X+5550000Y+2250000D01*
D10*
X+3562040Y+750000D02*
X+3627000Y+750000D01*
X+3627000Y+841000D01*
X+3817500Y+841000D01*
X+4102770Y+1126270D01*
X+4450000Y+1126270D01*
X+4450000Y+1349000D02*
X+4450000Y+1126270D01*
X+4579500Y+841000D02*
X+4643000Y+777500D01*
X+5000000Y+777500D01*
X+6000000Y+1000000D02*
X+6000000Y+841000D01*
X+5936500Y+777500D01*
X+5000000Y+777500D01*
X+4650000Y+1500000D02*
X+4650000Y+1349000D01*
X+4450000Y+1349000D01*
X+1785500Y+142500D02*
X+1812040Y+115960D01*
X+1812040Y+0D01*
X+1500000Y+250000D02*
X+1607500Y+142500D01*
X+1785500Y+142500D01*
X+6356000Y+3864000D02*
X+6458000Y+3762000D01*
X+6484500Y+3762000D01*
X+6484500Y+2846500D01*
X+6737000Y+2594000D01*
X+4450000Y+1000000D02*
X+4450000Y+1126270D01*
X+4250000Y+2750000D02*
X+4135000Y+2750000D01*
X+4135000Y+2639605D01*
X+3944500Y+2449105D01*
X+3944500Y+2428500D01*
X+4071500Y+2301500D01*
X+1785500Y+206000D02*
X+1785500Y+269500D01*
X+1849000Y+333000D01*
X+1849000Y+841000D01*
X+1976000Y+841000D01*
X+2039500Y+777500D01*
X+2039500Y+460000D01*
X+2250000Y+249500D01*
X+2250000Y+0D01*
X+3562040Y+841000D02*
X+3062040Y+841000D01*
X+3062040Y+750000D01*
X+4250000Y+2750000D02*
X+4250000Y+2777750D01*
X+4357250Y+2777750D01*
X+4389000Y+2809500D01*
X+4450000Y+750000D02*
X+4450000Y+500000D01*
X+3562040Y+750000D02*
X+3562040Y+841000D01*
X+6000000Y+1000000D02*
X+6000000Y+1095000D01*
X+6167000Y+1095000D01*
X+896500Y+1603000D02*
X+896500Y+968000D01*
X+960000Y+904500D01*
X+1214000Y+904500D01*
X+1404500Y+841000D02*
X+1277500Y+841000D01*
X+1214000Y+904500D01*
X+2562040Y+250000D02*
X+2562040Y+142500D01*
X+3000000Y+142500D01*
X+3000000Y+0D01*
X+2357000Y+1349000D02*
X+2420500Y+1412500D01*
X+2420500Y+1476000D01*
X+2504000Y+1559500D01*
X+2656020Y+1559500D01*
X+4750000Y+2750000D02*
X+4750000Y+2873000D01*
X+4686500Y+2936500D01*
X+4516000Y+2936500D01*
X+4389000Y+2809500D01*
X+4450000Y+1000000D02*
X+4579500Y+1000000D01*
X+4579500Y+841000D01*
X+5000000Y+777500D02*
X+5000000Y+1000000D01*
X+896500Y+1666500D02*
X+960000Y+1603000D01*
X+960000Y+1500000D01*
X+1100000Y+1500000D01*
X+4450000Y+750000D02*
X+4579500Y+750000D01*
X+4579500Y+841000D01*
X+4750000Y+2750000D02*
X+4750000Y+2746000D01*
X+4897000Y+2746000D01*
X+5405000Y+2174500D02*
X+5405000Y+2746000D01*
X+5405000Y+2174500D02*
X+5341500Y+2111000D01*
X+5250000Y+2202500D01*
X+5250000Y+2750000D01*
X+6737000Y+2594000D02*
X+6865500Y+2465500D01*
X+6865500Y+1095000D01*
X+641000Y+2336000D02*
X+833000Y+2144000D01*
X+833000Y+1666500D01*
X+896500Y+1603000D01*
X+5659000Y+2111000D02*
X+5468500Y+2111000D01*
X+5405000Y+2174500D01*
X+5659000Y+2111000D02*
X+5750000Y+2111000D01*
X+5750000Y+2250000D01*
X+4650000Y+1500000D02*
X+4650000Y+2238000D01*
X+4586500Y+2301500D01*
X+4071500Y+2301500D01*
X+6356000Y+3864000D02*
X+6114000Y+3864000D01*
X+5750000Y+3500000D01*
X+2500000Y+3000000D02*
X+2246000Y+2746000D01*
X+1722000Y+2746000D01*
X+1658500Y+2682500D01*
X+2500000Y+3000000D02*
X+2500000Y+2059500D01*
X+2656020Y+2059500D01*
X+1785500Y+206000D02*
X+1785500Y+142500D01*
X+1150500Y+841000D02*
X+1214000Y+904500D01*
X+1000000Y+4250000D02*
X+1234000Y+4016000D01*
X+1468000Y+4016000D01*
X+6356000Y+3864000D02*
X+6484500Y+3992500D01*
X+6484500Y+5603500D01*
X+6421000Y+5667000D01*
X+5467000Y+5667000D01*
X+5300000Y+5500000D01*
X+896500Y+1666500D02*
X+896500Y+1603000D01*
X+1250000Y+3000000D02*
X+1567500Y+2682500D01*
X+1658500Y+2682500D01*
X+2562040Y+750000D02*
X+2420500Y+750000D01*
X+2420500Y+1285500D01*
X+2357000Y+1349000D01*
X+4160000Y+1666500D02*
X+4160000Y+1603000D01*
X+4096500Y+1539500D01*
X+4008000Y+1539500D01*
X+2000000Y+1500000D02*
X+2000000Y+1603000D01*
X+1936500Y+1666500D01*
X+1658500Y+1666500D01*
X+1000000Y+4250000D02*
X+777000Y+4250000D01*
X+641000Y+4114000D01*
X+2000000Y+1500000D02*
X+2151000Y+1349000D01*
X+2357000Y+1349000D01*
X+1100000Y+500000D02*
X+960000Y+500000D01*
X+1404500Y+841000D02*
X+1531500Y+841000D01*
X+4198500Y+1349000D02*
X+4008000Y+1539500D01*
X+3750000Y+1500000D02*
X+3968500Y+1500000D01*
X+4008000Y+1539500D01*
X+4450000Y+1349000D02*
X+4389000Y+1349000D01*
X+6737000Y+1070000D02*
X+6865500Y+1070000D01*
X+6865500Y+1095000D01*
X+1658500Y+2682500D02*
X+1658500Y+1984000D01*
X+1595000Y+1920500D01*
X+1404500Y+1920500D01*
X+2562040Y+750000D02*
X+2562040Y+250000D01*
X+1250000Y+250000D02*
X+1250000Y+142500D01*
X+960000Y+142500D01*
X+896500Y+206000D01*
X+896500Y+436500D01*
X+960000Y+500000D01*
X+4389000Y+3127000D02*
X+4250000Y+3127000D01*
X+4250000Y+3250000D01*
X+1404500Y+1666500D02*
X+1658500Y+1666500D01*
X+641000Y+2590000D02*
X+641000Y+2336000D01*
X+1404500Y+1666500D02*
X+1404500Y+1920500D01*
X+4198500Y+1349000D02*
X+4389000Y+1349000D01*
X+1500000Y+250000D02*
X+1500000Y+142500D01*
X+1357500Y+142500D01*
X+1250000Y+250000D01*
X+2656020Y+2059500D02*
X+2656020Y+2492000D01*
X+2719520Y+2555500D01*
X+3055500Y+2555500D01*
X+3119000Y+2492000D01*
X+3119000Y+1857000D01*
X+3182500Y+1793500D01*
X+3627000Y+1793500D01*
X+3750000Y+1670500D01*
X+3750000Y+1500000D01*
X+4650000Y+1500000D02*
X+4500000Y+1500000D01*
X+896500Y+1666500D02*
X+1150500Y+1920500D01*
X+1404500Y+1920500D01*
X+2000000Y+1500000D02*
X+2000000Y+1250000D01*
X+1100000Y+500000D02*
X+1100000Y+790500D01*
X+1150500Y+841000D01*
X+4160000Y+1666500D02*
X+4160000Y+1750000D01*
D11*
X+1341000Y+650500D02*
X+1300000Y+609500D01*
X+1300000Y+500000D01*
X+2250000Y+1000000D02*
X+1849000Y+1000000D01*
X+1750000Y+1099000D01*
X+1750000Y+1250000D01*
X+2250000Y+1000000D02*
X+2250000Y+777500D01*
X+2420500Y+607000D01*
X+2420500Y+190500D01*
X+2343980Y+190500D01*
X+1531500Y+714000D02*
X+1500000Y+682500D01*
X+1500000Y+500000D01*
X+1906020Y+190500D02*
X+1906020Y+206000D01*
X+1912500Y+212480D01*
X+1912500Y+777500D01*
X+1341000Y+1222000D02*
X+1341000Y+1224600D01*
X+1315600Y+1250000D01*
X+1250000Y+1250000D01*
X+1906020Y+190500D02*
X+1906020Y-111500D01*
X+2437960Y-111500D01*
X+2437960Y+0D01*
X+3690500Y+460000D02*
X+3250000Y+460000D01*
X+3250000Y+250000D01*
X+3850000Y+1250000D02*
X+3687500Y+1412500D01*
X+2547500Y+1412500D01*
X+2484000Y+1349000D01*
X+2484000Y+940500D01*
X+2656020Y+940500D01*
X+3627000Y+396500D02*
X+3750000Y+396500D01*
X+3750000Y+250000D01*
X+3627000Y+1095000D02*
X+3650000Y+1118000D01*
X+3650000Y+1250000D01*
X+3450000Y+1250000D02*
X+3351000Y+1349000D01*
X+2950000Y+1349000D01*
X+2950000Y+1031500D01*
X+3041000Y+940500D01*
X+3156020Y+940500D01*
X+3309500Y+333000D02*
X+3309500Y+0D01*
X+3250000Y+0D01*
X+3050000Y+1250000D02*
X+3268500Y+1031500D01*
X+3656020Y+1031500D01*
X+3656020Y+940500D01*
X+2850000Y+1250000D02*
X+2850000Y+587000D01*
X+2913500Y+523500D01*
X+3754000Y+523500D01*
X+3817500Y+460000D01*
X+3817500Y+0D01*
X+3750000Y+0D01*
X+2674500Y+650500D02*
X+2674500Y+478480D01*
X+2656020Y+460000D01*
X+2656020Y+440500D01*
X+2674500Y+1095000D02*
X+2650000Y+1119500D01*
X+2650000Y+1250000D01*
X+5151000Y+3063500D02*
X+5151000Y+3317500D01*
X+5087500Y+3381000D01*
X+5087500Y+4087500D01*
X+5250000Y+4250000D01*
X+5300000Y+1285500D02*
X+5151000Y+1434500D01*
X+5151000Y+1666500D01*
X+5468500Y+1984000D01*
X+5786000Y+1984000D01*
X+5849500Y+2047500D01*
X+5849500Y+3063500D01*
X+5300000Y+1285500D02*
X+5363500Y+1349000D01*
X+5499000Y+1349000D01*
X+5650000Y+1500000D01*
X+5300000Y+1285500D02*
X+5300000Y+1000000D01*
X+5550000Y+1750000D02*
X+5550000Y+1920500D01*
X+5913000Y+1920500D01*
X+5976500Y+1984000D01*
X+5976500Y+3317500D01*
X+5532000Y+4524000D02*
X+5250000Y+4524000D01*
X+5250000Y+4750000D01*
X+5550000Y+1750000D02*
X+5450000Y+1750000D01*
X+5450000Y+1500000D01*
X+6040000Y+2555500D02*
X+6040000Y+1690000D01*
X+5850000Y+1500000D01*
X+6040000Y+2555500D02*
X+6040000Y+3381000D01*
X+5341500Y+3381000D01*
X+5250000Y+3472500D01*
X+5250000Y+3750000D01*
X+2250000Y+2000000D02*
X+1849000Y+2000000D01*
X+1750000Y+2099000D01*
X+1750000Y+2250000D01*
X+2250000Y+2000000D02*
X+2500000Y+1750000D01*
X+2750000Y+1750000D01*
X+2750000Y+2250000D02*
X+2750000Y+1984000D01*
X+2843980Y+1890020D01*
X+2843980Y+1559500D01*
X+1531500Y+2428500D02*
X+1250000Y+2428500D01*
X+1250000Y+2250000D01*
X+2750000Y+2250000D02*
X+2750000Y+2416500D01*
X+2738000Y+2428500D01*
X+3055500Y+1476000D02*
X+3055500Y+1984000D01*
X+2980000Y+2059500D01*
X+2843980Y+2059500D01*
X+6737000Y+3356000D02*
X+6548000Y+3545000D01*
X+6548000Y+5730500D01*
X+6484500Y+5794000D01*
X+5214500Y+5794000D01*
X+5151000Y+5730500D01*
X+5151000Y+5349500D01*
X+5214500Y+5286000D01*
X+5286000Y+5286000D01*
X+5500000Y+5500000D01*
X+6103500Y+2428500D02*
X+6103500Y+3103500D01*
X+6356000Y+3356000D01*
X+6167000Y+2555500D02*
X+6167000Y+3102000D01*
X+6356000Y+3102000D01*
X+5800000Y+1000000D02*
X+5800000Y+1158500D01*
X+5863500Y+1222000D01*
X+6167000Y+1222000D01*
X+6230500Y+1285500D01*
X+6230500Y+1706500D01*
X+6356000Y+1832000D01*
X+4850000Y+1500000D02*
X+4850000Y+1349000D01*
X+4786500Y+1285500D01*
X+4770000Y+1285500D01*
X+4706500Y+1222000D01*
X+4706500Y+904500D01*
X+4770000Y+841000D01*
X+4833500Y+841000D01*
X+4897000Y+904500D01*
X+4897000Y+1095000D01*
X+4960500Y+1158500D01*
X+5024000Y+1158500D01*
X+5087500Y+1095000D01*
X+5087500Y+904500D01*
X+5151000Y+841000D01*
X+5500000Y+841000D01*
X+5500000Y+1000000D01*
X+4850000Y+1500000D02*
X+4850000Y+1967500D01*
X+4833500Y+1984000D01*
X+5500000Y+1000000D02*
X+5500000Y+1000001D01*
X+5595500Y+1000001D01*
X+5595501Y+1000000D01*
X+5800000Y+1000000D01*
X+2801500Y+460000D02*
X+2801500Y+250000D01*
X+2750000Y+250000D01*
X+6548000Y+3127000D02*
X+6573000Y+3102000D01*
X+6737000Y+3102000D01*
X+4900000Y+500000D02*
X+5003500Y+396500D01*
X+5024000Y+396500D01*
X+5341500Y+79000D01*
X+6548000Y+79000D01*
X+6611500Y+142500D01*
X+6611500Y+1198500D01*
X+6737000Y+1324000D01*
X+4071500Y+968000D02*
X+4250000Y+968000D01*
X+4250000Y+1000000D01*
X+4900000Y+500000D02*
X+4793500Y+500000D01*
X+4770000Y+523500D01*
X+5300000Y+500000D02*
X+5657500Y+142500D01*
X+6484500Y+142500D01*
X+6548000Y+206000D01*
X+6548000Y+1389000D01*
X+6737000Y+1578000D01*
X+5024000Y+650500D02*
X+4706500Y+650500D01*
X+4643000Y+587000D01*
X+4643000Y+460000D01*
X+4579500Y+396500D01*
X+4325500Y+396500D01*
X+4325500Y+750000D01*
X+4250000Y+750000D01*
X+4135000Y+587000D02*
X+4250000Y+587000D01*
X+4250000Y+500000D01*
X+5700000Y+500000D02*
X+5850500Y+650500D01*
X+6005310Y+650500D01*
X+6294000Y+939190D01*
X+6421000Y+939190D01*
X+6484500Y+1002690D01*
X+6484500Y+1579500D01*
X+6737000Y+1832000D01*
X+5087500Y+2619000D02*
X+5151000Y+2619000D01*
X+5151000Y+2873000D01*
X+5250000Y+2972000D01*
X+5250000Y+3250000D01*
X+5087500Y+2619000D02*
X+5151000Y+2555500D01*
X+5151000Y+1857000D01*
X+5087500Y+2619000D02*
X+4550000Y+2619000D01*
X+4550000Y+2750000D01*
X+6230500Y+3000000D02*
X+6230500Y+2492000D01*
X+6167000Y+2428500D01*
X+6167000Y+1349000D01*
X+5050000Y+3250000D02*
X+5050000Y+2750000D01*
X+4850000Y+3250000D02*
X+4719000Y+3381000D01*
X+4050000Y+3381000D01*
X+4050000Y+3250000D01*
X+4050000Y+3000000D02*
X+4050000Y+2750000D01*
X+3881000Y+3000000D02*
X+4050000Y+3000000D01*
X+4400000Y+3000000D01*
X+4650000Y+3250000D01*
X+3881000Y+3000000D02*
X+3881000Y+3317500D01*
X+3817500Y+3381000D01*
X+1912500Y+3381000D01*
X+1849000Y+3444500D01*
X+1849000Y+5857500D01*
X+1785500Y+5921000D01*
X+134500Y+5921000D01*
X+71000Y+5857500D01*
X+71000Y+2525000D01*
X+260000Y+2336000D01*
X+3182500Y+650500D02*
X+3250000Y+650500D01*
X+3250000Y+750000D01*
X+2547500Y+1031500D02*
X+2750000Y+1031500D01*
X+2750000Y+750000D01*
X+5050000Y+1500000D02*
X+5050000Y+2428500D01*
X+4978500Y+2500000D01*
X+4262000Y+2500000D01*
X+5050000Y+1285500D02*
X+5151000Y+1184500D01*
X+5151000Y+968000D01*
X+5228345Y+890655D01*
X+5405000Y+890655D01*
X+5405000Y+1095000D01*
X+5750000Y+1440000D01*
X+5750000Y+1750000D01*
X+5050000Y+1500000D02*
X+5050000Y+1285500D01*
X+4986500Y+1222000D01*
X+4897000Y+1222000D01*
X+4800000Y+1125000D01*
X+4800000Y+1000000D01*
X+3436500Y+3127000D02*
X+3627000Y+3127000D01*
X+3881000Y+2873000D01*
X+3881000Y+1920500D01*
X+3944500Y+1857000D01*
X+4198500Y+1857000D01*
X+4300000Y+1755500D01*
X+4300000Y+1500000D01*
X+3436500Y+3127000D02*
X+3309500Y+3254000D01*
X+1785500Y+3254000D01*
X+1722000Y+3317500D01*
X+1722000Y+4397000D01*
X+1624000Y+4495000D01*
X+387000Y+4495000D01*
X+260000Y+4622000D01*
X+3500000Y+587000D02*
X+3750000Y+587000D01*
X+3750000Y+750000D01*
D10*
X+5532000Y+3952500D02*
X+5532000Y+4397000D01*
X+5468500Y+4460500D01*
X+5151000Y+4460500D01*
X+5087500Y+4524000D01*
X+5087500Y+5794000D01*
X+5151000Y+5857500D01*
X+6611500Y+5857500D01*
X+6737000Y+5732000D01*
X+6737000Y+4880000D01*
D11*
X+3182500Y+3190500D02*
X+1087000Y+3190500D01*
X+867500Y+2971000D01*
X+515500Y+2971000D01*
X+452000Y+2907500D01*
X+452000Y+968000D01*
X+6356000Y+2340000D02*
X+6484500Y+2211500D01*
X+6484500Y+2013420D01*
X+6421000Y+1949920D01*
X+6241180Y+1949920D01*
X+6241180Y+1931180D01*
X+6230500Y+1920500D01*
X+6103500Y+1920500D02*
X+6103500Y+1412500D01*
X+5976500Y+1285500D01*
X+2103000Y-48000D02*
X+2103000Y-25400D01*
X+2077600Y+0D01*
X+2000000Y+0D01*
D10*
X+5100000Y+500000D02*
X+5341901Y+258099D01*
X+5341901Y+254399D01*
X+5087500Y+142500D02*
X+5100200Y+142500D01*
X+5151000Y+91700D01*
X+5151000Y+79000D01*
X+5000000Y+79000D01*
X+5000000Y+0D01*
X+5341901Y+254399D02*
X+5341901Y+254324D01*
X+4903782Y+254324D02*
X+4903782Y+6218D01*
X+4910000Y+0D01*
X+4008000Y+333000D02*
X+4577000Y+333000D01*
X+4903782Y+6218D01*
D12*
X+3627000Y+2809500D03*
X+1150500Y+3635000D03*
X+4008000Y+333000D03*
X+2992000Y+333000D03*
X+5341500Y+3508000D03*
X+960000Y+2809500D03*
X+3500000Y+1666500D03*
X+3373000Y+2047500D03*
X+3309500Y+2873000D03*
X+1150500Y+2746000D03*
D13*
X+5532000Y+2428500D03*
D12*
X+6167000Y+1095000D03*
X+5087500Y+142500D03*
X+4897000Y+2746000D03*
X+5405000Y+2746000D03*
X+4071500Y+2301500D03*
X+1468000Y+4016000D03*
X+1531500Y+841000D03*
X+4389000Y+3127000D03*
X+1404500Y+1920500D03*
X+4389000Y+2809500D03*
D13*
X+1341000Y+650500D03*
X+1531500Y+714000D03*
X+1912500Y+777500D03*
X+1341000Y+1222000D03*
X+3690500Y+460000D03*
X+3627000Y+396500D03*
X+3627000Y+1095000D03*
X+3309500Y+333000D03*
X+2674500Y+650500D03*
X+2674500Y+1095000D03*
X+5151000Y+3063500D03*
X+5849500Y+3063500D03*
X+5976500Y+3317500D03*
X+5532000Y+4524000D03*
X+6040000Y+2555500D03*
X+1531500Y+2428500D03*
X+2738000Y+2428500D03*
X+3055500Y+1476000D03*
X+6103500Y+2428500D03*
X+6167000Y+2555500D03*
X+4833500Y+1984000D03*
X+2801500Y+460000D03*
X+6548000Y+3127000D03*
X+4071500Y+968000D03*
X+4770000Y+523500D03*
X+5024000Y+650500D03*
X+4135000Y+587000D03*
X+5151000Y+1857000D03*
X+6167000Y+1349000D03*
X+6230500Y+3000000D03*
X+3182500Y+650500D03*
X+2547500Y+1031500D03*
X+3436500Y+3127000D03*
X+3500000Y+587000D03*
D12*
X+5532000Y+3952500D03*
D13*
X+452000Y+968000D03*
X+3182500Y+3190500D03*
X+6230500Y+1920500D03*
X+6103500Y+1920500D03*
X+5976500Y+1285500D03*
X+2103000Y-48000D03*
D12*
X+5341901Y+254324D03*
X+4903782Y+254324D03*
D15*
X+641000Y+4876000D03*
X+260000Y+4622000D03*
X+641000Y+4622000D03*
X+260000Y+4368000D03*
X+641000Y+4368000D03*
X+260000Y+4114000D03*
X+641000Y+4114000D03*
X+260000Y+3860000D03*
X+641000Y+3860000D03*
X+260000Y+3606000D03*
X+641000Y+3606000D03*
X+260000Y+3352000D03*
X+641000Y+3352000D03*
X+260000Y+3098000D03*
X+641000Y+3098000D03*
X+260000Y+2844000D03*
X+641000Y+2844000D03*
X+260000Y+2590000D03*
X+641000Y+2590000D03*
X+260000Y+2336000D03*
X+641000Y+2336000D03*
X+260000Y+2082000D03*
X+641000Y+2082000D03*
X+260000Y+1828000D03*
X+641000Y+1828000D03*
X+260000Y+1574000D03*
X+641000Y+1574000D03*
X+260000Y+1320000D03*
X+641000Y+1320000D03*
X+260000Y+1066000D03*
X+641000Y+1066000D03*
X+260000Y+812000D03*
X+641000Y+812000D03*
X+260000Y+558000D03*
X+641000Y+558000D03*
X+260000Y+304000D03*
X+641000Y+304000D03*
X+6737000Y+4880000D03*
X+6356000Y+4626000D03*
X+6737000Y+4626000D03*
X+6356000Y+4372000D03*
X+6737000Y+4372000D03*
X+6356000Y+4118000D03*
X+6737000Y+4118000D03*
X+6356000Y+3864000D03*
X+6737000Y+3864000D03*
X+6356000Y+3610000D03*
X+6737000Y+3610000D03*
X+6356000Y+3356000D03*
X+6737000Y+3356000D03*
X+6356000Y+3102000D03*
X+6737000Y+3102000D03*
X+6356000Y+2848000D03*
X+6737000Y+2848000D03*
X+6356000Y+2594000D03*
X+6737000Y+2594000D03*
X+6356000Y+2340000D03*
X+6737000Y+2340000D03*
X+6356000Y+2086000D03*
X+6737000Y+2086000D03*
X+6356000Y+1832000D03*
X+6737000Y+1832000D03*
X+6356000Y+1578000D03*
X+6737000Y+1578000D03*
X+6356000Y+1324000D03*
X+6737000Y+1324000D03*
X+6356000Y+1070000D03*
X+6737000Y+1070000D03*
X+6356000Y+816000D03*
X+6737000Y+816000D03*
X+6356000Y+562000D03*
X+6737000Y+562000D03*
X+6356000Y+308000D03*
X+6737000Y+308000D03*
D16*
X+1250000Y+3000000D03*
X+1750380Y+3000000D03*
X+2500000Y+3000000D03*
X+3000380Y+3000000D03*
D19*
X+5900000Y+500000D03*
X+5700000Y+500000D03*
X+5500000Y+500000D03*
X+5300000Y+500000D03*
X+5100000Y+500000D03*
X+4900000Y+500000D03*
X+5850000Y+1500000D03*
X+5650000Y+1500000D03*
X+5450000Y+1500000D03*
X+5250000Y+1500000D03*
X+5050000Y+1500000D03*
X+4850000Y+1500000D03*
X+4650000Y+1500000D03*
X+5850000Y+3250000D03*
X+5650000Y+3250000D03*
X+5450000Y+3250000D03*
X+5250000Y+3250000D03*
X+5050000Y+3250000D03*
X+4850000Y+3250000D03*
X+4650000Y+3250000D03*
X+1700000Y+1500000D03*
X+1500000Y+1500000D03*
X+1300000Y+1500000D03*
X+1100000Y+1500000D03*
X+1700000Y+500000D03*
X+1500000Y+500000D03*
X+1300000Y+500000D03*
X+1100000Y+500000D03*
X+4050000Y+1250000D03*
X+3850000Y+1250000D03*
X+3650000Y+1250000D03*
X+3450000Y+1250000D03*
X+3250000Y+1250000D03*
X+3050000Y+1250000D03*
X+2850000Y+1250000D03*
X+2650000Y+1250000D03*
X+5700000Y+5500000D03*
X+5500000Y+5500000D03*
X+5300000Y+5500000D03*
D70*
X+250000Y+5750000D03*
X+1250000Y+5750000D03*
X+1000000Y+4750000D03*
X+1000000Y+4250000D03*
X+2250000Y+2000000D03*
X+2250000Y+1500000D03*
X+2250000Y+1000000D03*
X+2250000Y+500000D03*
X+4262000Y+2500000D03*
X+4250000Y+2000000D03*
D20*
X+4450000Y+1000000D03*
X+4250000Y+1000000D03*
X+4450000Y+750000D03*
X+4250000Y+750000D03*
X+4450000Y+500000D03*
X+4250000Y+500000D03*
X+4750000Y+2750000D03*
X+4550000Y+2750000D03*
X+5250000Y+2750000D03*
X+5050000Y+2750000D03*
X+4250000Y+3250000D03*
X+4050000Y+3250000D03*
X+4250000Y+2750000D03*
X+4050000Y+2750000D03*
X+1250000Y+2250000D03*
X+1050000Y+2250000D03*
X+1750000Y+2250000D03*
X+1550000Y+2250000D03*
X+1250000Y+1250000D03*
X+1050000Y+1250000D03*
X+1750000Y+1250000D03*
X+1550000Y+1250000D03*
D22*
X+2750000Y+2250000D03*
X+2843980Y+2059500D03*
X+2656020Y+2059500D03*
X+2750000Y+1750000D03*
X+2843980Y+1559500D03*
X+2656020Y+1559500D03*
X+1906020Y+190500D03*
X+2000000Y+0D03*
X+1812040Y+0D03*
X+2343980Y+190500D03*
X+2437960Y+0D03*
X+2250000Y+0D03*
D23*
X+5000000Y+0D03*
X+4910000Y+0D03*
X+2000000Y+1500000D03*
X+1910000Y+1500000D03*
X+2000000Y+1250000D03*
X+1910000Y+1250000D03*
X+1500000Y+250000D03*
X+1410000Y+250000D03*
X+1250000Y+250000D03*
X+1160000Y+250000D03*
D20*
X+5750000Y+2250000D03*
X+5550000Y+2250000D03*
X+5750000Y+1750000D03*
X+5550000Y+1750000D03*
X+5000000Y+1000000D03*
X+4800000Y+1000000D03*
X+5500000Y+1000000D03*
X+5300000Y+1000000D03*
X+6000000Y+1000000D03*
X+5800000Y+1000000D03*
D23*
X+4160000Y+1750000D03*
X+4070000Y+1750000D03*
X+5750000Y+3500000D03*
X+5660000Y+3500000D03*
D22*
X+2656020Y+940500D03*
X+2750000Y+750000D03*
X+2562040Y+750000D03*
X+3156020Y+940500D03*
X+3250000Y+750000D03*
X+3062040Y+750000D03*
X+3656020Y+940500D03*
X+3750000Y+750000D03*
X+3562040Y+750000D03*
X+2656020Y+440500D03*
X+2750000Y+250000D03*
X+2562040Y+250000D03*
D20*
X+4500000Y+1500000D03*
X+4300000Y+1500000D03*
D24*
X+3250000Y+250000D03*
X+3150000Y+250000D03*
X+3750000Y+250000D03*
X+3650000Y+250000D03*
X+3250000Y+0D03*
X+3150000Y+0D03*
X+3750000Y+0D03*
X+3650000Y+0D03*
D23*
X+3000000Y+0D03*
X+2910000Y+0D03*
D70*
X+5250000Y+4750000D03*
X+5250000Y+4250000D03*
X+5250000Y+3750000D03*
D23*
X+3750000Y+1500000D03*
X+3660000Y+1500000D03*
D21*
X+0Y+0D02*
X+1650000Y+0D01*
X+7000000Y+0D02*
X+7000000Y+6000000D01*
X+5000000Y+6000000D01*
X+5000000Y+3700000D01*
X+4800000Y+3500000D01*
X+2200000Y+3500000D01*
X+2000000Y+3700000D02*
X+2000000Y+6000000D01*
X+0Y+6000000D01*
X+0Y+0D01*
X+2000000Y+3700000D02*
X+2200000Y+3500000D01*
X+5160000Y+0D02*
X+7000000Y+0D01*
X+1750000Y-200000D02*
X+5050000Y-200000D01*
X+1650000Y+0D02*
X+1750000Y-200000D01*
X+5160000Y+0D02*
X+5050000Y-200000D01*
X+4550045Y+50000D02*
X+4549508Y+63142D01*
X+4545144Y+89427D01*
X+4536029Y+115712D01*
X+4521182Y+141997D01*
X+4498470Y+168118D01*
X+4472185Y+187898D01*
X+4445900Y+200658D01*
X+4419615Y+208108D01*
X+4393330Y+210987D01*
X+4389000Y+211045D01*
X+4227955Y+50000D02*
X+4228492Y+63142D01*
X+4232856Y+89427D01*
X+4241971Y+115712D01*
X+4256818Y+141997D01*
X+4279530Y+168118D01*
X+4305815Y+187898D01*
X+4332100Y+200658D01*
X+4358385Y+208108D01*
X+4384670Y+210987D01*
X+4389000Y+211045D01*
X+4227955Y+50000D02*
X+4228492Y+36858D01*
X+4232856Y+10573D01*
X+4241971Y-15712D01*
X+4256818Y-41997D01*
X+4279530Y-68118D01*
X+4305815Y-87898D01*
X+4332100Y-100658D01*
X+4358385Y-108108D01*
X+4384670Y-110987D01*
X+4389000Y-111045D01*
X+4550045Y+50000D02*
X+4549508Y+36858D01*
X+4545144Y+10573D01*
X+4536029Y-15712D01*
X+4521182Y-41997D01*
X+4498470Y-68118D01*
X+4472185Y-87898D01*
X+4445900Y-100658D01*
X+4419615Y-108108D01*
X+4393330Y-110987D01*
X+4389000Y-111045D01*
X+6074045Y+5130000D02*
X+6073508Y+5143142D01*
X+6069144Y+5169427D01*
X+6060029Y+5195712D01*
X+6045182Y+5221997D01*
X+6022470Y+5248118D01*
X+5996185Y+5267898D01*
X+5969900Y+5280658D01*
X+5943615Y+5288108D01*
X+5917330Y+5290987D01*
X+5913000Y+5291045D01*
X+5751955Y+5130000D02*
X+5752492Y+5143142D01*
X+5756856Y+5169427D01*
X+5765971Y+5195712D01*
X+5780818Y+5221997D01*
X+5803530Y+5248118D01*
X+5829815Y+5267898D01*
X+5856100Y+5280658D01*
X+5882385Y+5288108D01*
X+5908670Y+5290987D01*
X+5913000Y+5291045D01*
X+5751955Y+5130000D02*
X+5752492Y+5116858D01*
X+5756856Y+5090573D01*
X+5765971Y+5064288D01*
X+5780818Y+5038003D01*
X+5803530Y+5011882D01*
X+5829815Y+4992102D01*
X+5856100Y+4979342D01*
X+5882385Y+4971892D01*
X+5908670Y+4969013D01*
X+5913000Y+4968955D01*
X+6074045Y+5130000D02*
X+6073508Y+5116858D01*
X+6069144Y+5090573D01*
X+6060029Y+5064288D01*
X+6045182Y+5038003D01*
X+6022470Y+5011882D01*
X+5996185Y+4992102D01*
X+5969900Y+4979342D01*
X+5943615Y+4971892D01*
X+5917330Y+4969013D01*
X+5913000Y+4968955D01*
X+1248045Y+5257000D02*
X+1247508Y+5270142D01*
X+1243144Y+5296427D01*
X+1234029Y+5322712D01*
X+1219182Y+5348997D01*
X+1196470Y+5375118D01*
X+1170185Y+5394898D01*
X+1143900Y+5407658D01*
X+1117615Y+5415108D01*
X+1091330Y+5417987D01*
X+1087000Y+5418045D01*
X+925955Y+5257000D02*
X+926492Y+5270142D01*
X+930856Y+5296427D01*
X+939971Y+5322712D01*
X+954818Y+5348997D01*
X+977530Y+5375118D01*
X+1003815Y+5394898D01*
X+1030100Y+5407658D01*
X+1056385Y+5415108D01*
X+1082670Y+5417987D01*
X+1087000Y+5418045D01*
X+925955Y+5257000D02*
X+926492Y+5243858D01*
X+930856Y+5217573D01*
X+939971Y+5191288D01*
X+954818Y+5165003D01*
X+977530Y+5138882D01*
X+1003815Y+5119102D01*
X+1030100Y+5106342D01*
X+1056385Y+5098892D01*
X+1082670Y+5096013D01*
X+1087000Y+5095955D01*
X+1248045Y+5257000D02*
X+1247508Y+5243858D01*
X+1243144Y+5217573D01*
X+1234029Y+5191288D01*
X+1219182Y+5165003D01*
X+1196470Y+5138882D01*
X+1170185Y+5119102D01*
X+1143900Y+5106342D01*
X+1117615Y+5098892D01*
X+1091330Y+5096013D01*
X+1087000Y+5095955D01*
M02*
