G04 PROTEUS GERBER X2 FILE*
%TF.GenerationSoftware,Labcenter,Proteus,8.12-SP0-Build30713*%
%TF.CreationDate,2021-08-02T00:20:26+00:00*%
%TF.FileFunction,Paste,Bot*%
%TF.FilePolarity,Positive*%
%TF.Part,Single*%
%TF.SameCoordinates,{4cff7d1c-7656-49df-93de-6e2fb68f4e0e}*%
%FSLAX45Y45*%
%MOMM*%
G01*
%TA.AperFunction,Material*%
%ADD47R,0.939800X1.447800*%
%TA.AperFunction,Material*%
%ADD48R,0.889000X1.016000*%
%TA.AperFunction,Material*%
%ADD49R,0.609600X0.609600*%
%ADD50R,0.558800X0.609600*%
%TA.AperFunction,Profile*%
%ADD21C,0.203200*%
%TD.AperFunction*%
D47*
X+4450000Y+1000000D03*
X+4250000Y+1000000D03*
X+4450000Y+750000D03*
X+4250000Y+750000D03*
X+4450000Y+500000D03*
X+4250000Y+500000D03*
X+4750000Y+2750000D03*
X+4550000Y+2750000D03*
X+5250000Y+2750000D03*
X+5050000Y+2750000D03*
X+4250000Y+3250000D03*
X+4050000Y+3250000D03*
X+4250000Y+2750000D03*
X+4050000Y+2750000D03*
X+1250000Y+2250000D03*
X+1050000Y+2250000D03*
X+1750000Y+2250000D03*
X+1550000Y+2250000D03*
X+1250000Y+1250000D03*
X+1050000Y+1250000D03*
X+1750000Y+1250000D03*
X+1550000Y+1250000D03*
D48*
X+2750000Y+2250000D03*
X+2843980Y+2059500D03*
X+2656020Y+2059500D03*
X+2750000Y+1750000D03*
X+2843980Y+1559500D03*
X+2656020Y+1559500D03*
X+1906020Y+190500D03*
X+2000000Y+0D03*
X+1812040Y+0D03*
X+2343980Y+190500D03*
X+2437960Y+0D03*
X+2250000Y+0D03*
D49*
X+5000000Y+0D03*
X+4910000Y+0D03*
X+2000000Y+1500000D03*
X+1910000Y+1500000D03*
X+2000000Y+1250000D03*
X+1910000Y+1250000D03*
X+1500000Y+250000D03*
X+1410000Y+250000D03*
X+1250000Y+250000D03*
X+1160000Y+250000D03*
D47*
X+5750000Y+2250000D03*
X+5550000Y+2250000D03*
X+5750000Y+1750000D03*
X+5550000Y+1750000D03*
X+5000000Y+1000000D03*
X+4800000Y+1000000D03*
X+5500000Y+1000000D03*
X+5300000Y+1000000D03*
X+6000000Y+1000000D03*
X+5800000Y+1000000D03*
D49*
X+4160000Y+1750000D03*
X+4070000Y+1750000D03*
X+5750000Y+3500000D03*
X+5660000Y+3500000D03*
D48*
X+2656020Y+940500D03*
X+2750000Y+750000D03*
X+2562040Y+750000D03*
X+3156020Y+940500D03*
X+3250000Y+750000D03*
X+3062040Y+750000D03*
X+3656020Y+940500D03*
X+3750000Y+750000D03*
X+3562040Y+750000D03*
X+2656020Y+440500D03*
X+2750000Y+250000D03*
X+2562040Y+250000D03*
D47*
X+4500000Y+1500000D03*
X+4300000Y+1500000D03*
D50*
X+3250000Y+250000D03*
X+3150000Y+250000D03*
X+3750000Y+250000D03*
X+3650000Y+250000D03*
X+3250000Y+0D03*
X+3150000Y+0D03*
X+3750000Y+0D03*
X+3650000Y+0D03*
D49*
X+3000000Y+0D03*
X+2910000Y+0D03*
X+3750000Y+1500000D03*
X+3660000Y+1500000D03*
D21*
X+0Y+0D02*
X+1650000Y+0D01*
X+7000000Y+0D02*
X+7000000Y+6000000D01*
X+5000000Y+6000000D01*
X+5000000Y+3700000D01*
X+4800000Y+3500000D01*
X+2200000Y+3500000D01*
X+2000000Y+3700000D02*
X+2000000Y+6000000D01*
X+0Y+6000000D01*
X+0Y+0D01*
X+2000000Y+3700000D02*
X+2200000Y+3500000D01*
X+5160000Y+0D02*
X+7000000Y+0D01*
X+1750000Y-200000D02*
X+5050000Y-200000D01*
X+1650000Y+0D02*
X+1750000Y-200000D01*
X+5160000Y+0D02*
X+5050000Y-200000D01*
X+4550045Y+50000D02*
X+4549508Y+63142D01*
X+4545144Y+89427D01*
X+4536029Y+115712D01*
X+4521182Y+141997D01*
X+4498470Y+168118D01*
X+4472185Y+187898D01*
X+4445900Y+200658D01*
X+4419615Y+208108D01*
X+4393330Y+210987D01*
X+4389000Y+211045D01*
X+4227955Y+50000D02*
X+4228492Y+63142D01*
X+4232856Y+89427D01*
X+4241971Y+115712D01*
X+4256818Y+141997D01*
X+4279530Y+168118D01*
X+4305815Y+187898D01*
X+4332100Y+200658D01*
X+4358385Y+208108D01*
X+4384670Y+210987D01*
X+4389000Y+211045D01*
X+4227955Y+50000D02*
X+4228492Y+36858D01*
X+4232856Y+10573D01*
X+4241971Y-15712D01*
X+4256818Y-41997D01*
X+4279530Y-68118D01*
X+4305815Y-87898D01*
X+4332100Y-100658D01*
X+4358385Y-108108D01*
X+4384670Y-110987D01*
X+4389000Y-111045D01*
X+4550045Y+50000D02*
X+4549508Y+36858D01*
X+4545144Y+10573D01*
X+4536029Y-15712D01*
X+4521182Y-41997D01*
X+4498470Y-68118D01*
X+4472185Y-87898D01*
X+4445900Y-100658D01*
X+4419615Y-108108D01*
X+4393330Y-110987D01*
X+4389000Y-111045D01*
X+6074045Y+5130000D02*
X+6073508Y+5143142D01*
X+6069144Y+5169427D01*
X+6060029Y+5195712D01*
X+6045182Y+5221997D01*
X+6022470Y+5248118D01*
X+5996185Y+5267898D01*
X+5969900Y+5280658D01*
X+5943615Y+5288108D01*
X+5917330Y+5290987D01*
X+5913000Y+5291045D01*
X+5751955Y+5130000D02*
X+5752492Y+5143142D01*
X+5756856Y+5169427D01*
X+5765971Y+5195712D01*
X+5780818Y+5221997D01*
X+5803530Y+5248118D01*
X+5829815Y+5267898D01*
X+5856100Y+5280658D01*
X+5882385Y+5288108D01*
X+5908670Y+5290987D01*
X+5913000Y+5291045D01*
X+5751955Y+5130000D02*
X+5752492Y+5116858D01*
X+5756856Y+5090573D01*
X+5765971Y+5064288D01*
X+5780818Y+5038003D01*
X+5803530Y+5011882D01*
X+5829815Y+4992102D01*
X+5856100Y+4979342D01*
X+5882385Y+4971892D01*
X+5908670Y+4969013D01*
X+5913000Y+4968955D01*
X+6074045Y+5130000D02*
X+6073508Y+5116858D01*
X+6069144Y+5090573D01*
X+6060029Y+5064288D01*
X+6045182Y+5038003D01*
X+6022470Y+5011882D01*
X+5996185Y+4992102D01*
X+5969900Y+4979342D01*
X+5943615Y+4971892D01*
X+5917330Y+4969013D01*
X+5913000Y+4968955D01*
X+1248045Y+5257000D02*
X+1247508Y+5270142D01*
X+1243144Y+5296427D01*
X+1234029Y+5322712D01*
X+1219182Y+5348997D01*
X+1196470Y+5375118D01*
X+1170185Y+5394898D01*
X+1143900Y+5407658D01*
X+1117615Y+5415108D01*
X+1091330Y+5417987D01*
X+1087000Y+5418045D01*
X+925955Y+5257000D02*
X+926492Y+5270142D01*
X+930856Y+5296427D01*
X+939971Y+5322712D01*
X+954818Y+5348997D01*
X+977530Y+5375118D01*
X+1003815Y+5394898D01*
X+1030100Y+5407658D01*
X+1056385Y+5415108D01*
X+1082670Y+5417987D01*
X+1087000Y+5418045D01*
X+925955Y+5257000D02*
X+926492Y+5243858D01*
X+930856Y+5217573D01*
X+939971Y+5191288D01*
X+954818Y+5165003D01*
X+977530Y+5138882D01*
X+1003815Y+5119102D01*
X+1030100Y+5106342D01*
X+1056385Y+5098892D01*
X+1082670Y+5096013D01*
X+1087000Y+5095955D01*
X+1248045Y+5257000D02*
X+1247508Y+5243858D01*
X+1243144Y+5217573D01*
X+1234029Y+5191288D01*
X+1219182Y+5165003D01*
X+1196470Y+5138882D01*
X+1170185Y+5119102D01*
X+1143900Y+5106342D01*
X+1117615Y+5098892D01*
X+1091330Y+5096013D01*
X+1087000Y+5095955D01*
M02*
