G04 PROTEUS GERBER X2 FILE*
%TF.GenerationSoftware,Labcenter,Proteus,8.12-SP0-Build30713*%
%TF.CreationDate,2021-08-02T00:20:26+00:00*%
%TF.FileFunction,Legend,Top*%
%TF.FilePolarity,Positive*%
%TF.Part,Single*%
%TF.SameCoordinates,{4cff7d1c-7656-49df-93de-6e2fb68f4e0e}*%
%FSLAX45Y45*%
%MOMM*%
G01*
%TA.AperFunction,Profile*%
%ADD21C,0.203200*%
%TA.AperFunction,Material*%
%ADD25C,0.203200*%
%ADD26C,0.250000*%
%ADD27C,0.200000*%
%ADD28C,0.100000*%
%ADD29C,0.508000*%
%ADD72C,0.152400*%
%TD.AperFunction*%
D21*
X+0Y+0D02*
X+1650000Y+0D01*
X+7000000Y+0D02*
X+7000000Y+6000000D01*
X+5000000Y+6000000D01*
X+5000000Y+3700000D01*
X+4800000Y+3500000D01*
X+2200000Y+3500000D01*
X+2000000Y+3700000D02*
X+2000000Y+6000000D01*
X+0Y+6000000D01*
X+0Y+0D01*
X+2000000Y+3700000D02*
X+2200000Y+3500000D01*
X+5160000Y+0D02*
X+7000000Y+0D01*
X+1750000Y-200000D02*
X+5050000Y-200000D01*
X+1650000Y+0D02*
X+1750000Y-200000D01*
X+5160000Y+0D02*
X+5050000Y-200000D01*
X+4550045Y+50000D02*
X+4549508Y+63142D01*
X+4545144Y+89427D01*
X+4536029Y+115712D01*
X+4521182Y+141997D01*
X+4498470Y+168118D01*
X+4472185Y+187898D01*
X+4445900Y+200658D01*
X+4419615Y+208108D01*
X+4393330Y+210987D01*
X+4389000Y+211045D01*
X+4227955Y+50000D02*
X+4228492Y+63142D01*
X+4232856Y+89427D01*
X+4241971Y+115712D01*
X+4256818Y+141997D01*
X+4279530Y+168118D01*
X+4305815Y+187898D01*
X+4332100Y+200658D01*
X+4358385Y+208108D01*
X+4384670Y+210987D01*
X+4389000Y+211045D01*
X+4227955Y+50000D02*
X+4228492Y+36858D01*
X+4232856Y+10573D01*
X+4241971Y-15712D01*
X+4256818Y-41997D01*
X+4279530Y-68118D01*
X+4305815Y-87898D01*
X+4332100Y-100658D01*
X+4358385Y-108108D01*
X+4384670Y-110987D01*
X+4389000Y-111045D01*
X+4550045Y+50000D02*
X+4549508Y+36858D01*
X+4545144Y+10573D01*
X+4536029Y-15712D01*
X+4521182Y-41997D01*
X+4498470Y-68118D01*
X+4472185Y-87898D01*
X+4445900Y-100658D01*
X+4419615Y-108108D01*
X+4393330Y-110987D01*
X+4389000Y-111045D01*
X+6074045Y+5130000D02*
X+6073508Y+5143142D01*
X+6069144Y+5169427D01*
X+6060029Y+5195712D01*
X+6045182Y+5221997D01*
X+6022470Y+5248118D01*
X+5996185Y+5267898D01*
X+5969900Y+5280658D01*
X+5943615Y+5288108D01*
X+5917330Y+5290987D01*
X+5913000Y+5291045D01*
X+5751955Y+5130000D02*
X+5752492Y+5143142D01*
X+5756856Y+5169427D01*
X+5765971Y+5195712D01*
X+5780818Y+5221997D01*
X+5803530Y+5248118D01*
X+5829815Y+5267898D01*
X+5856100Y+5280658D01*
X+5882385Y+5288108D01*
X+5908670Y+5290987D01*
X+5913000Y+5291045D01*
X+5751955Y+5130000D02*
X+5752492Y+5116858D01*
X+5756856Y+5090573D01*
X+5765971Y+5064288D01*
X+5780818Y+5038003D01*
X+5803530Y+5011882D01*
X+5829815Y+4992102D01*
X+5856100Y+4979342D01*
X+5882385Y+4971892D01*
X+5908670Y+4969013D01*
X+5913000Y+4968955D01*
X+6074045Y+5130000D02*
X+6073508Y+5116858D01*
X+6069144Y+5090573D01*
X+6060029Y+5064288D01*
X+6045182Y+5038003D01*
X+6022470Y+5011882D01*
X+5996185Y+4992102D01*
X+5969900Y+4979342D01*
X+5943615Y+4971892D01*
X+5917330Y+4969013D01*
X+5913000Y+4968955D01*
X+1248045Y+5257000D02*
X+1247508Y+5270142D01*
X+1243144Y+5296427D01*
X+1234029Y+5322712D01*
X+1219182Y+5348997D01*
X+1196470Y+5375118D01*
X+1170185Y+5394898D01*
X+1143900Y+5407658D01*
X+1117615Y+5415108D01*
X+1091330Y+5417987D01*
X+1087000Y+5418045D01*
X+925955Y+5257000D02*
X+926492Y+5270142D01*
X+930856Y+5296427D01*
X+939971Y+5322712D01*
X+954818Y+5348997D01*
X+977530Y+5375118D01*
X+1003815Y+5394898D01*
X+1030100Y+5407658D01*
X+1056385Y+5415108D01*
X+1082670Y+5417987D01*
X+1087000Y+5418045D01*
X+925955Y+5257000D02*
X+926492Y+5243858D01*
X+930856Y+5217573D01*
X+939971Y+5191288D01*
X+954818Y+5165003D01*
X+977530Y+5138882D01*
X+1003815Y+5119102D01*
X+1030100Y+5106342D01*
X+1056385Y+5098892D01*
X+1082670Y+5096013D01*
X+1087000Y+5095955D01*
X+1248045Y+5257000D02*
X+1247508Y+5243858D01*
X+1243144Y+5217573D01*
X+1234029Y+5191288D01*
X+1219182Y+5165003D01*
X+1196470Y+5138882D01*
X+1170185Y+5119102D01*
X+1143900Y+5106342D01*
X+1117615Y+5098892D01*
X+1091330Y+5096013D01*
X+1087000Y+5095955D01*
D25*
X+996000Y+2619000D02*
X+996000Y+3381000D01*
X+2012000Y+3381000D02*
X+2012000Y+2619000D01*
X+996000Y+2619000D02*
X+2012000Y+2619000D01*
X+996000Y+3381000D02*
X+2012000Y+3381000D01*
X+1377000Y+2452120D02*
X+1377000Y+2436880D01*
X+1392875Y+2421640D01*
X+1456375Y+2421640D01*
X+1472250Y+2436880D01*
X+1472250Y+2513080D01*
X+1535750Y+2482600D02*
X+1567500Y+2513080D01*
X+1567500Y+2421640D01*
X+2246000Y+2619000D02*
X+2246000Y+3381000D01*
X+3262000Y+3381000D02*
X+3262000Y+2619000D01*
X+2246000Y+2619000D02*
X+3262000Y+2619000D01*
X+2246000Y+3381000D02*
X+3262000Y+3381000D01*
X+2627000Y+2452120D02*
X+2627000Y+2436880D01*
X+2642875Y+2421640D01*
X+2706375Y+2421640D01*
X+2722250Y+2436880D01*
X+2722250Y+2513080D01*
X+2849250Y+2497840D02*
X+2833375Y+2513080D01*
X+2785750Y+2513080D01*
X+2769875Y+2497840D01*
X+2769875Y+2436880D01*
X+2785750Y+2421640D01*
X+2833375Y+2421640D01*
X+2849250Y+2436880D01*
X+2849250Y+2452120D01*
X+2833375Y+2467360D01*
X+2769875Y+2467360D01*
D26*
X+5337500Y+1975000D02*
X+5337457Y+1976039D01*
X+5337105Y+1978118D01*
X+5336368Y+1980197D01*
X+5335164Y+1982276D01*
X+5333323Y+1984326D01*
X+5331244Y+1985829D01*
X+5329165Y+1986786D01*
X+5327086Y+1987325D01*
X+5325007Y+1987500D01*
X+5325000Y+1987500D01*
X+5312500Y+1975000D02*
X+5312543Y+1976039D01*
X+5312895Y+1978118D01*
X+5313632Y+1980197D01*
X+5314836Y+1982276D01*
X+5316677Y+1984326D01*
X+5318756Y+1985829D01*
X+5320835Y+1986786D01*
X+5322914Y+1987325D01*
X+5324993Y+1987500D01*
X+5325000Y+1987500D01*
X+5312500Y+1975000D02*
X+5312543Y+1973961D01*
X+5312895Y+1971882D01*
X+5313632Y+1969803D01*
X+5314836Y+1967724D01*
X+5316677Y+1965674D01*
X+5318756Y+1964171D01*
X+5320835Y+1963214D01*
X+5322914Y+1962675D01*
X+5324993Y+1962500D01*
X+5325000Y+1962500D01*
X+5337500Y+1975000D02*
X+5337457Y+1973961D01*
X+5337105Y+1971882D01*
X+5336368Y+1969803D01*
X+5335164Y+1967724D01*
X+5333323Y+1965674D01*
X+5331244Y+1964171D01*
X+5329165Y+1963214D01*
X+5327086Y+1962675D01*
X+5325007Y+1962500D01*
X+5325000Y+1962500D01*
D27*
X+5160000Y+2500000D02*
X+4840000Y+2500000D01*
X+4840000Y+2000000D01*
X+5160000Y+2000000D01*
X+5160000Y+2500000D01*
D28*
X+5160000Y+2010000D02*
X+5150000Y+2000000D01*
X+5160000Y+2020000D02*
X+5140000Y+2000000D01*
X+5160000Y+2030000D02*
X+5130000Y+2000000D01*
X+5160000Y+2040000D02*
X+5120000Y+2000000D01*
X+5160000Y+2050000D02*
X+5110000Y+2000000D01*
X+5160000Y+2060000D02*
X+5100000Y+2000000D01*
X+5160000Y+2070000D02*
X+5090000Y+2000000D01*
X+5160000Y+2080000D02*
X+5080000Y+2000000D01*
X+5160000Y+2090000D02*
X+5070000Y+2000000D01*
D25*
X+4873000Y+1919520D02*
X+4873000Y+1843320D01*
X+4888875Y+1828080D01*
X+4952375Y+1828080D01*
X+4968250Y+1843320D01*
X+4968250Y+1919520D01*
X+5031750Y+1889040D02*
X+5063500Y+1919520D01*
X+5063500Y+1828080D01*
D29*
X+5938100Y+309500D02*
X+5937969Y+312658D01*
X+5936903Y+318976D01*
X+5934672Y+325294D01*
X+5931027Y+331612D01*
X+5925452Y+337851D01*
X+5919134Y+342447D01*
X+5912816Y+345380D01*
X+5906498Y+347042D01*
X+5900180Y+347600D01*
X+5900000Y+347600D01*
X+5861900Y+309500D02*
X+5862031Y+312658D01*
X+5863097Y+318976D01*
X+5865328Y+325294D01*
X+5868973Y+331612D01*
X+5874548Y+337851D01*
X+5880866Y+342447D01*
X+5887184Y+345380D01*
X+5893502Y+347042D01*
X+5899820Y+347600D01*
X+5900000Y+347600D01*
X+5861900Y+309500D02*
X+5862031Y+306342D01*
X+5863097Y+300024D01*
X+5865328Y+293706D01*
X+5868973Y+287388D01*
X+5874548Y+281149D01*
X+5880866Y+276553D01*
X+5887184Y+273620D01*
X+5893502Y+271958D01*
X+5899820Y+271400D01*
X+5900000Y+271400D01*
X+5938100Y+309500D02*
X+5937969Y+306342D01*
X+5936903Y+300024D01*
X+5934672Y+293706D01*
X+5931027Y+287388D01*
X+5925452Y+281149D01*
X+5919134Y+276553D01*
X+5912816Y+273620D01*
X+5906498Y+271958D01*
X+5900180Y+271400D01*
X+5900000Y+271400D01*
D72*
X+4830150Y+380620D02*
X+5969850Y+380620D01*
X+5969850Y+424135D01*
X+5969850Y+619380D02*
X+4830150Y+619380D01*
X+4830150Y+575865D01*
X+4830150Y+424135D02*
X+4830150Y+380620D01*
X+5969850Y+575865D02*
X+5969850Y+619380D01*
D25*
X+5273000Y+687960D02*
X+5273000Y+672720D01*
X+5288875Y+657480D01*
X+5352375Y+657480D01*
X+5368250Y+672720D01*
X+5368250Y+748920D01*
X+5415875Y+733680D02*
X+5431750Y+748920D01*
X+5479375Y+748920D01*
X+5495250Y+733680D01*
X+5495250Y+718440D01*
X+5479375Y+703200D01*
X+5431750Y+703200D01*
X+5415875Y+687960D01*
X+5415875Y+657480D01*
X+5495250Y+657480D01*
D29*
X+5888100Y+1309500D02*
X+5887969Y+1312658D01*
X+5886903Y+1318976D01*
X+5884672Y+1325294D01*
X+5881027Y+1331612D01*
X+5875452Y+1337851D01*
X+5869134Y+1342447D01*
X+5862816Y+1345380D01*
X+5856498Y+1347042D01*
X+5850180Y+1347600D01*
X+5850000Y+1347600D01*
X+5811900Y+1309500D02*
X+5812031Y+1312658D01*
X+5813097Y+1318976D01*
X+5815328Y+1325294D01*
X+5818973Y+1331612D01*
X+5824548Y+1337851D01*
X+5830866Y+1342447D01*
X+5837184Y+1345380D01*
X+5843502Y+1347042D01*
X+5849820Y+1347600D01*
X+5850000Y+1347600D01*
X+5811900Y+1309500D02*
X+5812031Y+1306342D01*
X+5813097Y+1300024D01*
X+5815328Y+1293706D01*
X+5818973Y+1287388D01*
X+5824548Y+1281149D01*
X+5830866Y+1276553D01*
X+5837184Y+1273620D01*
X+5843502Y+1271958D01*
X+5849820Y+1271400D01*
X+5850000Y+1271400D01*
X+5888100Y+1309500D02*
X+5887969Y+1306342D01*
X+5886903Y+1300024D01*
X+5884672Y+1293706D01*
X+5881027Y+1287388D01*
X+5875452Y+1281149D01*
X+5869134Y+1276553D01*
X+5862816Y+1273620D01*
X+5856498Y+1271958D01*
X+5850180Y+1271400D01*
X+5850000Y+1271400D01*
D72*
X+4580150Y+1380620D02*
X+5919850Y+1380620D01*
X+5919850Y+1424135D01*
X+5919850Y+1619380D02*
X+4580150Y+1619380D01*
X+4580150Y+1575865D01*
X+4580150Y+1424135D02*
X+4580150Y+1380620D01*
X+5919850Y+1575865D02*
X+5919850Y+1619380D01*
D25*
X+5123000Y+1687960D02*
X+5123000Y+1672720D01*
X+5138875Y+1657480D01*
X+5202375Y+1657480D01*
X+5218250Y+1672720D01*
X+5218250Y+1748920D01*
X+5265875Y+1748920D02*
X+5345250Y+1748920D01*
X+5345250Y+1733680D01*
X+5265875Y+1657480D01*
D29*
X+5888100Y+3059500D02*
X+5887969Y+3062658D01*
X+5886903Y+3068976D01*
X+5884672Y+3075294D01*
X+5881027Y+3081612D01*
X+5875452Y+3087851D01*
X+5869134Y+3092447D01*
X+5862816Y+3095380D01*
X+5856498Y+3097042D01*
X+5850180Y+3097600D01*
X+5850000Y+3097600D01*
X+5811900Y+3059500D02*
X+5812031Y+3062658D01*
X+5813097Y+3068976D01*
X+5815328Y+3075294D01*
X+5818973Y+3081612D01*
X+5824548Y+3087851D01*
X+5830866Y+3092447D01*
X+5837184Y+3095380D01*
X+5843502Y+3097042D01*
X+5849820Y+3097600D01*
X+5850000Y+3097600D01*
X+5811900Y+3059500D02*
X+5812031Y+3056342D01*
X+5813097Y+3050024D01*
X+5815328Y+3043706D01*
X+5818973Y+3037388D01*
X+5824548Y+3031149D01*
X+5830866Y+3026553D01*
X+5837184Y+3023620D01*
X+5843502Y+3021958D01*
X+5849820Y+3021400D01*
X+5850000Y+3021400D01*
X+5888100Y+3059500D02*
X+5887969Y+3056342D01*
X+5886903Y+3050024D01*
X+5884672Y+3043706D01*
X+5881027Y+3037388D01*
X+5875452Y+3031149D01*
X+5869134Y+3026553D01*
X+5862816Y+3023620D01*
X+5856498Y+3021958D01*
X+5850180Y+3021400D01*
X+5850000Y+3021400D01*
D72*
X+4580150Y+3130620D02*
X+5919850Y+3130620D01*
X+5919850Y+3174135D01*
X+5919850Y+3369380D02*
X+4580150Y+3369380D01*
X+4580150Y+3325865D01*
X+4580150Y+3174135D02*
X+4580150Y+3130620D01*
X+5919850Y+3325865D02*
X+5919850Y+3369380D01*
D25*
X+5123000Y+3437960D02*
X+5123000Y+3422720D01*
X+5138875Y+3407480D01*
X+5202375Y+3407480D01*
X+5218250Y+3422720D01*
X+5218250Y+3498920D01*
X+5265875Y+3483680D02*
X+5281750Y+3498920D01*
X+5329375Y+3498920D01*
X+5345250Y+3483680D01*
X+5345250Y+3468440D01*
X+5329375Y+3453200D01*
X+5345250Y+3437960D01*
X+5345250Y+3422720D01*
X+5329375Y+3407480D01*
X+5281750Y+3407480D01*
X+5265875Y+3422720D01*
X+5297625Y+3453200D02*
X+5329375Y+3453200D01*
D29*
X+1738100Y+1309500D02*
X+1737969Y+1312658D01*
X+1736903Y+1318976D01*
X+1734672Y+1325294D01*
X+1731027Y+1331612D01*
X+1725452Y+1337851D01*
X+1719134Y+1342447D01*
X+1712816Y+1345380D01*
X+1706498Y+1347042D01*
X+1700180Y+1347600D01*
X+1700000Y+1347600D01*
X+1661900Y+1309500D02*
X+1662031Y+1312658D01*
X+1663097Y+1318976D01*
X+1665328Y+1325294D01*
X+1668973Y+1331612D01*
X+1674548Y+1337851D01*
X+1680866Y+1342447D01*
X+1687184Y+1345380D01*
X+1693502Y+1347042D01*
X+1699820Y+1347600D01*
X+1700000Y+1347600D01*
X+1661900Y+1309500D02*
X+1662031Y+1306342D01*
X+1663097Y+1300024D01*
X+1665328Y+1293706D01*
X+1668973Y+1287388D01*
X+1674548Y+1281149D01*
X+1680866Y+1276553D01*
X+1687184Y+1273620D01*
X+1693502Y+1271958D01*
X+1699820Y+1271400D01*
X+1700000Y+1271400D01*
X+1738100Y+1309500D02*
X+1737969Y+1306342D01*
X+1736903Y+1300024D01*
X+1734672Y+1293706D01*
X+1731027Y+1287388D01*
X+1725452Y+1281149D01*
X+1719134Y+1276553D01*
X+1712816Y+1273620D01*
X+1706498Y+1271958D01*
X+1700180Y+1271400D01*
X+1700000Y+1271400D01*
D72*
X+1030150Y+1380620D02*
X+1769850Y+1380620D01*
X+1769850Y+1424135D01*
X+1769850Y+1619380D02*
X+1030150Y+1619380D01*
X+1030150Y+1575865D01*
X+1030150Y+1424135D02*
X+1030150Y+1380620D01*
X+1769850Y+1575865D02*
X+1769850Y+1619380D01*
D25*
X+856000Y+1687960D02*
X+856000Y+1672720D01*
X+871875Y+1657480D01*
X+935375Y+1657480D01*
X+951250Y+1672720D01*
X+951250Y+1748920D01*
X+1078250Y+1687960D02*
X+983000Y+1687960D01*
X+1046500Y+1748920D01*
X+1046500Y+1657480D01*
D29*
X+1738100Y+309500D02*
X+1737969Y+312658D01*
X+1736903Y+318976D01*
X+1734672Y+325294D01*
X+1731027Y+331612D01*
X+1725452Y+337851D01*
X+1719134Y+342447D01*
X+1712816Y+345380D01*
X+1706498Y+347042D01*
X+1700180Y+347600D01*
X+1700000Y+347600D01*
X+1661900Y+309500D02*
X+1662031Y+312658D01*
X+1663097Y+318976D01*
X+1665328Y+325294D01*
X+1668973Y+331612D01*
X+1674548Y+337851D01*
X+1680866Y+342447D01*
X+1687184Y+345380D01*
X+1693502Y+347042D01*
X+1699820Y+347600D01*
X+1700000Y+347600D01*
X+1661900Y+309500D02*
X+1662031Y+306342D01*
X+1663097Y+300024D01*
X+1665328Y+293706D01*
X+1668973Y+287388D01*
X+1674548Y+281149D01*
X+1680866Y+276553D01*
X+1687184Y+273620D01*
X+1693502Y+271958D01*
X+1699820Y+271400D01*
X+1700000Y+271400D01*
X+1738100Y+309500D02*
X+1737969Y+306342D01*
X+1736903Y+300024D01*
X+1734672Y+293706D01*
X+1731027Y+287388D01*
X+1725452Y+281149D01*
X+1719134Y+276553D01*
X+1712816Y+273620D01*
X+1706498Y+271958D01*
X+1700180Y+271400D01*
X+1700000Y+271400D01*
D72*
X+1030150Y+380620D02*
X+1769850Y+380620D01*
X+1769850Y+424135D01*
X+1769850Y+619380D02*
X+1030150Y+619380D01*
X+1030150Y+575865D01*
X+1030150Y+424135D02*
X+1030150Y+380620D01*
X+1769850Y+575865D02*
X+1769850Y+619380D01*
D25*
X+873000Y+728460D02*
X+873000Y+713220D01*
X+888875Y+697980D01*
X+952375Y+697980D01*
X+968250Y+713220D01*
X+968250Y+789420D01*
X+1095250Y+789420D02*
X+1015875Y+789420D01*
X+1015875Y+758940D01*
X+1079375Y+758940D01*
X+1095250Y+743700D01*
X+1095250Y+713220D01*
X+1079375Y+697980D01*
X+1031750Y+697980D01*
X+1015875Y+713220D01*
D29*
X+4088100Y+1059500D02*
X+4087969Y+1062658D01*
X+4086903Y+1068976D01*
X+4084672Y+1075294D01*
X+4081027Y+1081612D01*
X+4075452Y+1087851D01*
X+4069134Y+1092447D01*
X+4062816Y+1095380D01*
X+4056498Y+1097042D01*
X+4050180Y+1097600D01*
X+4050000Y+1097600D01*
X+4011900Y+1059500D02*
X+4012031Y+1062658D01*
X+4013097Y+1068976D01*
X+4015328Y+1075294D01*
X+4018973Y+1081612D01*
X+4024548Y+1087851D01*
X+4030866Y+1092447D01*
X+4037184Y+1095380D01*
X+4043502Y+1097042D01*
X+4049820Y+1097600D01*
X+4050000Y+1097600D01*
X+4011900Y+1059500D02*
X+4012031Y+1056342D01*
X+4013097Y+1050024D01*
X+4015328Y+1043706D01*
X+4018973Y+1037388D01*
X+4024548Y+1031149D01*
X+4030866Y+1026553D01*
X+4037184Y+1023620D01*
X+4043502Y+1021958D01*
X+4049820Y+1021400D01*
X+4050000Y+1021400D01*
X+4088100Y+1059500D02*
X+4087969Y+1056342D01*
X+4086903Y+1050024D01*
X+4084672Y+1043706D01*
X+4081027Y+1037388D01*
X+4075452Y+1031149D01*
X+4069134Y+1026553D01*
X+4062816Y+1023620D01*
X+4056498Y+1021958D01*
X+4050180Y+1021400D01*
X+4050000Y+1021400D01*
D72*
X+2580150Y+1130620D02*
X+4119850Y+1130620D01*
X+4119850Y+1174135D01*
X+4119850Y+1369380D02*
X+2580150Y+1369380D01*
X+2580150Y+1325865D01*
X+2580150Y+1174135D02*
X+2580150Y+1130620D01*
X+4119850Y+1325865D02*
X+4119850Y+1369380D01*
D25*
X+3223000Y+1437960D02*
X+3223000Y+1422720D01*
X+3238875Y+1407480D01*
X+3302375Y+1407480D01*
X+3318250Y+1422720D01*
X+3318250Y+1498920D01*
X+3445250Y+1468440D02*
X+3429375Y+1453200D01*
X+3381750Y+1453200D01*
X+3365875Y+1468440D01*
X+3365875Y+1483680D01*
X+3381750Y+1498920D01*
X+3429375Y+1498920D01*
X+3445250Y+1483680D01*
X+3445250Y+1422720D01*
X+3429375Y+1407480D01*
X+3381750Y+1407480D01*
D29*
X+5738100Y+5309500D02*
X+5737969Y+5312658D01*
X+5736903Y+5318976D01*
X+5734672Y+5325294D01*
X+5731027Y+5331612D01*
X+5725452Y+5337851D01*
X+5719134Y+5342447D01*
X+5712816Y+5345380D01*
X+5706498Y+5347042D01*
X+5700180Y+5347600D01*
X+5700000Y+5347600D01*
X+5661900Y+5309500D02*
X+5662031Y+5312658D01*
X+5663097Y+5318976D01*
X+5665328Y+5325294D01*
X+5668973Y+5331612D01*
X+5674548Y+5337851D01*
X+5680866Y+5342447D01*
X+5687184Y+5345380D01*
X+5693502Y+5347042D01*
X+5699820Y+5347600D01*
X+5700000Y+5347600D01*
X+5661900Y+5309500D02*
X+5662031Y+5306342D01*
X+5663097Y+5300024D01*
X+5665328Y+5293706D01*
X+5668973Y+5287388D01*
X+5674548Y+5281149D01*
X+5680866Y+5276553D01*
X+5687184Y+5273620D01*
X+5693502Y+5271958D01*
X+5699820Y+5271400D01*
X+5700000Y+5271400D01*
X+5738100Y+5309500D02*
X+5737969Y+5306342D01*
X+5736903Y+5300024D01*
X+5734672Y+5293706D01*
X+5731027Y+5287388D01*
X+5725452Y+5281149D01*
X+5719134Y+5276553D01*
X+5712816Y+5273620D01*
X+5706498Y+5271958D01*
X+5700180Y+5271400D01*
X+5700000Y+5271400D01*
D72*
X+5230150Y+5380620D02*
X+5769850Y+5380620D01*
X+5769850Y+5424135D01*
X+5769850Y+5619380D02*
X+5230150Y+5619380D01*
X+5230150Y+5575865D01*
X+5230150Y+5424135D02*
X+5230150Y+5380620D01*
X+5769850Y+5575865D02*
X+5769850Y+5619380D01*
D25*
X+5373000Y+5687960D02*
X+5373000Y+5672720D01*
X+5388875Y+5657480D01*
X+5452375Y+5657480D01*
X+5468250Y+5672720D01*
X+5468250Y+5748920D01*
X+5531750Y+5703200D02*
X+5515875Y+5718440D01*
X+5515875Y+5733680D01*
X+5531750Y+5748920D01*
X+5579375Y+5748920D01*
X+5595250Y+5733680D01*
X+5595250Y+5718440D01*
X+5579375Y+5703200D01*
X+5531750Y+5703200D01*
X+5515875Y+5687960D01*
X+5515875Y+5672720D01*
X+5531750Y+5657480D01*
X+5579375Y+5657480D01*
X+5595250Y+5672720D01*
X+5595250Y+5687960D01*
X+5579375Y+5703200D01*
X+377000Y+5750000D02*
X+376573Y+5760409D01*
X+373101Y+5781228D01*
X+365845Y+5802047D01*
X+354017Y+5822866D01*
X+335920Y+5843524D01*
X+315101Y+5859045D01*
X+294282Y+5869030D01*
X+273463Y+5874814D01*
X+252644Y+5876972D01*
X+250000Y+5877000D01*
X+123000Y+5750000D02*
X+123427Y+5760409D01*
X+126899Y+5781228D01*
X+134155Y+5802047D01*
X+145983Y+5822866D01*
X+164080Y+5843524D01*
X+184899Y+5859045D01*
X+205718Y+5869030D01*
X+226537Y+5874814D01*
X+247356Y+5876972D01*
X+250000Y+5877000D01*
X+123000Y+5750000D02*
X+123427Y+5739591D01*
X+126899Y+5718772D01*
X+134155Y+5697953D01*
X+145983Y+5677134D01*
X+164080Y+5656476D01*
X+184899Y+5640955D01*
X+205718Y+5630970D01*
X+226537Y+5625186D01*
X+247356Y+5623028D01*
X+250000Y+5623000D01*
X+377000Y+5750000D02*
X+376573Y+5739591D01*
X+373101Y+5718772D01*
X+365845Y+5697953D01*
X+354017Y+5677134D01*
X+335920Y+5656476D01*
X+315101Y+5640955D01*
X+294282Y+5630970D01*
X+273463Y+5625186D01*
X+252644Y+5623028D01*
X+250000Y+5623000D01*
X+313500Y+5750000D02*
X+313283Y+5755247D01*
X+311518Y+5765742D01*
X+307826Y+5776237D01*
X+301798Y+5786732D01*
X+292576Y+5797112D01*
X+282081Y+5804800D01*
X+271586Y+5809718D01*
X+261091Y+5812524D01*
X+250596Y+5813497D01*
X+250000Y+5813500D01*
X+186500Y+5750000D02*
X+186717Y+5755247D01*
X+188482Y+5765742D01*
X+192174Y+5776237D01*
X+198202Y+5786732D01*
X+207424Y+5797112D01*
X+217919Y+5804800D01*
X+228414Y+5809718D01*
X+238909Y+5812524D01*
X+249404Y+5813497D01*
X+250000Y+5813500D01*
X+186500Y+5750000D02*
X+186717Y+5744753D01*
X+188482Y+5734258D01*
X+192174Y+5723763D01*
X+198202Y+5713268D01*
X+207424Y+5702888D01*
X+217919Y+5695200D01*
X+228414Y+5690282D01*
X+238909Y+5687476D01*
X+249404Y+5686503D01*
X+250000Y+5686500D01*
X+313500Y+5750000D02*
X+313283Y+5744753D01*
X+311518Y+5734258D01*
X+307826Y+5723763D01*
X+301798Y+5713268D01*
X+292576Y+5702888D01*
X+282081Y+5695200D01*
X+271586Y+5690282D01*
X+261091Y+5687476D01*
X+250596Y+5686503D01*
X+250000Y+5686500D01*
X+559500Y+5698120D02*
X+559500Y+5682880D01*
X+575375Y+5667640D01*
X+638875Y+5667640D01*
X+654750Y+5682880D01*
X+654750Y+5759080D01*
X+718250Y+5728600D02*
X+750000Y+5759080D01*
X+750000Y+5667640D01*
X+813500Y+5682880D02*
X+813500Y+5743840D01*
X+829375Y+5759080D01*
X+892875Y+5759080D01*
X+908750Y+5743840D01*
X+908750Y+5682880D01*
X+892875Y+5667640D01*
X+829375Y+5667640D01*
X+813500Y+5682880D01*
X+813500Y+5667640D02*
X+908750Y+5759080D01*
X+1377000Y+5750000D02*
X+1376573Y+5760409D01*
X+1373101Y+5781228D01*
X+1365845Y+5802047D01*
X+1354017Y+5822866D01*
X+1335920Y+5843524D01*
X+1315101Y+5859045D01*
X+1294282Y+5869030D01*
X+1273463Y+5874814D01*
X+1252644Y+5876972D01*
X+1250000Y+5877000D01*
X+1123000Y+5750000D02*
X+1123427Y+5760409D01*
X+1126899Y+5781228D01*
X+1134155Y+5802047D01*
X+1145983Y+5822866D01*
X+1164080Y+5843524D01*
X+1184899Y+5859045D01*
X+1205718Y+5869030D01*
X+1226537Y+5874814D01*
X+1247356Y+5876972D01*
X+1250000Y+5877000D01*
X+1123000Y+5750000D02*
X+1123427Y+5739591D01*
X+1126899Y+5718772D01*
X+1134155Y+5697953D01*
X+1145983Y+5677134D01*
X+1164080Y+5656476D01*
X+1184899Y+5640955D01*
X+1205718Y+5630970D01*
X+1226537Y+5625186D01*
X+1247356Y+5623028D01*
X+1250000Y+5623000D01*
X+1377000Y+5750000D02*
X+1376573Y+5739591D01*
X+1373101Y+5718772D01*
X+1365845Y+5697953D01*
X+1354017Y+5677134D01*
X+1335920Y+5656476D01*
X+1315101Y+5640955D01*
X+1294282Y+5630970D01*
X+1273463Y+5625186D01*
X+1252644Y+5623028D01*
X+1250000Y+5623000D01*
X+1313500Y+5750000D02*
X+1313283Y+5755247D01*
X+1311518Y+5765742D01*
X+1307826Y+5776237D01*
X+1301798Y+5786732D01*
X+1292576Y+5797112D01*
X+1282081Y+5804800D01*
X+1271586Y+5809718D01*
X+1261091Y+5812524D01*
X+1250596Y+5813497D01*
X+1250000Y+5813500D01*
X+1186500Y+5750000D02*
X+1186717Y+5755247D01*
X+1188482Y+5765742D01*
X+1192174Y+5776237D01*
X+1198202Y+5786732D01*
X+1207424Y+5797112D01*
X+1217919Y+5804800D01*
X+1228414Y+5809718D01*
X+1238909Y+5812524D01*
X+1249404Y+5813497D01*
X+1250000Y+5813500D01*
X+1186500Y+5750000D02*
X+1186717Y+5744753D01*
X+1188482Y+5734258D01*
X+1192174Y+5723763D01*
X+1198202Y+5713268D01*
X+1207424Y+5702888D01*
X+1217919Y+5695200D01*
X+1228414Y+5690282D01*
X+1238909Y+5687476D01*
X+1249404Y+5686503D01*
X+1250000Y+5686500D01*
X+1313500Y+5750000D02*
X+1313283Y+5744753D01*
X+1311518Y+5734258D01*
X+1307826Y+5723763D01*
X+1301798Y+5713268D01*
X+1292576Y+5702888D01*
X+1282081Y+5695200D01*
X+1271586Y+5690282D01*
X+1261091Y+5687476D01*
X+1250596Y+5686503D01*
X+1250000Y+5686500D01*
X+1559500Y+5698120D02*
X+1559500Y+5682880D01*
X+1575375Y+5667640D01*
X+1638875Y+5667640D01*
X+1654750Y+5682880D01*
X+1654750Y+5759080D01*
X+1718250Y+5728600D02*
X+1750000Y+5759080D01*
X+1750000Y+5667640D01*
X+1845250Y+5728600D02*
X+1877000Y+5759080D01*
X+1877000Y+5667640D01*
X+1127000Y+4750000D02*
X+1126573Y+4760409D01*
X+1123101Y+4781228D01*
X+1115845Y+4802047D01*
X+1104017Y+4822866D01*
X+1085920Y+4843524D01*
X+1065101Y+4859045D01*
X+1044282Y+4869030D01*
X+1023463Y+4874814D01*
X+1002644Y+4876972D01*
X+1000000Y+4877000D01*
X+873000Y+4750000D02*
X+873427Y+4760409D01*
X+876899Y+4781228D01*
X+884155Y+4802047D01*
X+895983Y+4822866D01*
X+914080Y+4843524D01*
X+934899Y+4859045D01*
X+955718Y+4869030D01*
X+976537Y+4874814D01*
X+997356Y+4876972D01*
X+1000000Y+4877000D01*
X+873000Y+4750000D02*
X+873427Y+4739591D01*
X+876899Y+4718772D01*
X+884155Y+4697953D01*
X+895983Y+4677134D01*
X+914080Y+4656476D01*
X+934899Y+4640955D01*
X+955718Y+4630970D01*
X+976537Y+4625186D01*
X+997356Y+4623028D01*
X+1000000Y+4623000D01*
X+1127000Y+4750000D02*
X+1126573Y+4739591D01*
X+1123101Y+4718772D01*
X+1115845Y+4697953D01*
X+1104017Y+4677134D01*
X+1085920Y+4656476D01*
X+1065101Y+4640955D01*
X+1044282Y+4630970D01*
X+1023463Y+4625186D01*
X+1002644Y+4623028D01*
X+1000000Y+4623000D01*
X+1063500Y+4750000D02*
X+1063283Y+4755247D01*
X+1061518Y+4765742D01*
X+1057826Y+4776237D01*
X+1051798Y+4786732D01*
X+1042576Y+4797112D01*
X+1032081Y+4804800D01*
X+1021586Y+4809718D01*
X+1011091Y+4812524D01*
X+1000596Y+4813497D01*
X+1000000Y+4813500D01*
X+936500Y+4750000D02*
X+936717Y+4755247D01*
X+938482Y+4765742D01*
X+942174Y+4776237D01*
X+948202Y+4786732D01*
X+957424Y+4797112D01*
X+967919Y+4804800D01*
X+978414Y+4809718D01*
X+988909Y+4812524D01*
X+999404Y+4813497D01*
X+1000000Y+4813500D01*
X+936500Y+4750000D02*
X+936717Y+4744753D01*
X+938482Y+4734258D01*
X+942174Y+4723763D01*
X+948202Y+4713268D01*
X+957424Y+4702888D01*
X+967919Y+4695200D01*
X+978414Y+4690282D01*
X+988909Y+4687476D01*
X+999404Y+4686503D01*
X+1000000Y+4686500D01*
X+1063500Y+4750000D02*
X+1063283Y+4744753D01*
X+1061518Y+4734258D01*
X+1057826Y+4723763D01*
X+1051798Y+4713268D01*
X+1042576Y+4702888D01*
X+1032081Y+4695200D01*
X+1021586Y+4690282D01*
X+1011091Y+4687476D01*
X+1000596Y+4686503D01*
X+1000000Y+4686500D01*
X+809500Y+4948120D02*
X+809500Y+4932880D01*
X+825375Y+4917640D01*
X+888875Y+4917640D01*
X+904750Y+4932880D01*
X+904750Y+5009080D01*
X+968250Y+4978600D02*
X+1000000Y+5009080D01*
X+1000000Y+4917640D01*
X+1079375Y+4993840D02*
X+1095250Y+5009080D01*
X+1142875Y+5009080D01*
X+1158750Y+4993840D01*
X+1158750Y+4978600D01*
X+1142875Y+4963360D01*
X+1095250Y+4963360D01*
X+1079375Y+4948120D01*
X+1079375Y+4917640D01*
X+1158750Y+4917640D01*
X+1127000Y+4250000D02*
X+1126573Y+4260409D01*
X+1123101Y+4281228D01*
X+1115845Y+4302047D01*
X+1104017Y+4322866D01*
X+1085920Y+4343524D01*
X+1065101Y+4359045D01*
X+1044282Y+4369030D01*
X+1023463Y+4374814D01*
X+1002644Y+4376972D01*
X+1000000Y+4377000D01*
X+873000Y+4250000D02*
X+873427Y+4260409D01*
X+876899Y+4281228D01*
X+884155Y+4302047D01*
X+895983Y+4322866D01*
X+914080Y+4343524D01*
X+934899Y+4359045D01*
X+955718Y+4369030D01*
X+976537Y+4374814D01*
X+997356Y+4376972D01*
X+1000000Y+4377000D01*
X+873000Y+4250000D02*
X+873427Y+4239591D01*
X+876899Y+4218772D01*
X+884155Y+4197953D01*
X+895983Y+4177134D01*
X+914080Y+4156476D01*
X+934899Y+4140955D01*
X+955718Y+4130970D01*
X+976537Y+4125186D01*
X+997356Y+4123028D01*
X+1000000Y+4123000D01*
X+1127000Y+4250000D02*
X+1126573Y+4239591D01*
X+1123101Y+4218772D01*
X+1115845Y+4197953D01*
X+1104017Y+4177134D01*
X+1085920Y+4156476D01*
X+1065101Y+4140955D01*
X+1044282Y+4130970D01*
X+1023463Y+4125186D01*
X+1002644Y+4123028D01*
X+1000000Y+4123000D01*
X+1063500Y+4250000D02*
X+1063283Y+4255247D01*
X+1061518Y+4265742D01*
X+1057826Y+4276237D01*
X+1051798Y+4286732D01*
X+1042576Y+4297112D01*
X+1032081Y+4304800D01*
X+1021586Y+4309718D01*
X+1011091Y+4312524D01*
X+1000596Y+4313497D01*
X+1000000Y+4313500D01*
X+936500Y+4250000D02*
X+936717Y+4255247D01*
X+938482Y+4265742D01*
X+942174Y+4276237D01*
X+948202Y+4286732D01*
X+957424Y+4297112D01*
X+967919Y+4304800D01*
X+978414Y+4309718D01*
X+988909Y+4312524D01*
X+999404Y+4313497D01*
X+1000000Y+4313500D01*
X+936500Y+4250000D02*
X+936717Y+4244753D01*
X+938482Y+4234258D01*
X+942174Y+4223763D01*
X+948202Y+4213268D01*
X+957424Y+4202888D01*
X+967919Y+4195200D01*
X+978414Y+4190282D01*
X+988909Y+4187476D01*
X+999404Y+4186503D01*
X+1000000Y+4186500D01*
X+1063500Y+4250000D02*
X+1063283Y+4244753D01*
X+1061518Y+4234258D01*
X+1057826Y+4223763D01*
X+1051798Y+4213268D01*
X+1042576Y+4202888D01*
X+1032081Y+4195200D01*
X+1021586Y+4190282D01*
X+1011091Y+4187476D01*
X+1000596Y+4186503D01*
X+1000000Y+4186500D01*
X+809500Y+4448120D02*
X+809500Y+4432880D01*
X+825375Y+4417640D01*
X+888875Y+4417640D01*
X+904750Y+4432880D01*
X+904750Y+4509080D01*
X+968250Y+4478600D02*
X+1000000Y+4509080D01*
X+1000000Y+4417640D01*
X+1079375Y+4493840D02*
X+1095250Y+4509080D01*
X+1142875Y+4509080D01*
X+1158750Y+4493840D01*
X+1158750Y+4478600D01*
X+1142875Y+4463360D01*
X+1158750Y+4448120D01*
X+1158750Y+4432880D01*
X+1142875Y+4417640D01*
X+1095250Y+4417640D01*
X+1079375Y+4432880D01*
X+1111125Y+4463360D02*
X+1142875Y+4463360D01*
X+2377000Y+2000000D02*
X+2376573Y+2010409D01*
X+2373101Y+2031228D01*
X+2365845Y+2052047D01*
X+2354017Y+2072866D01*
X+2335920Y+2093524D01*
X+2315101Y+2109045D01*
X+2294282Y+2119030D01*
X+2273463Y+2124814D01*
X+2252644Y+2126972D01*
X+2250000Y+2127000D01*
X+2123000Y+2000000D02*
X+2123427Y+2010409D01*
X+2126899Y+2031228D01*
X+2134155Y+2052047D01*
X+2145983Y+2072866D01*
X+2164080Y+2093524D01*
X+2184899Y+2109045D01*
X+2205718Y+2119030D01*
X+2226537Y+2124814D01*
X+2247356Y+2126972D01*
X+2250000Y+2127000D01*
X+2123000Y+2000000D02*
X+2123427Y+1989591D01*
X+2126899Y+1968772D01*
X+2134155Y+1947953D01*
X+2145983Y+1927134D01*
X+2164080Y+1906476D01*
X+2184899Y+1890955D01*
X+2205718Y+1880970D01*
X+2226537Y+1875186D01*
X+2247356Y+1873028D01*
X+2250000Y+1873000D01*
X+2377000Y+2000000D02*
X+2376573Y+1989591D01*
X+2373101Y+1968772D01*
X+2365845Y+1947953D01*
X+2354017Y+1927134D01*
X+2335920Y+1906476D01*
X+2315101Y+1890955D01*
X+2294282Y+1880970D01*
X+2273463Y+1875186D01*
X+2252644Y+1873028D01*
X+2250000Y+1873000D01*
X+2313500Y+2000000D02*
X+2313283Y+2005247D01*
X+2311518Y+2015742D01*
X+2307826Y+2026237D01*
X+2301798Y+2036732D01*
X+2292576Y+2047112D01*
X+2282081Y+2054800D01*
X+2271586Y+2059718D01*
X+2261091Y+2062524D01*
X+2250596Y+2063497D01*
X+2250000Y+2063500D01*
X+2186500Y+2000000D02*
X+2186717Y+2005247D01*
X+2188482Y+2015742D01*
X+2192174Y+2026237D01*
X+2198202Y+2036732D01*
X+2207424Y+2047112D01*
X+2217919Y+2054800D01*
X+2228414Y+2059718D01*
X+2238909Y+2062524D01*
X+2249404Y+2063497D01*
X+2250000Y+2063500D01*
X+2186500Y+2000000D02*
X+2186717Y+1994753D01*
X+2188482Y+1984258D01*
X+2192174Y+1973763D01*
X+2198202Y+1963268D01*
X+2207424Y+1952888D01*
X+2217919Y+1945200D01*
X+2228414Y+1940282D01*
X+2238909Y+1937476D01*
X+2249404Y+1936503D01*
X+2250000Y+1936500D01*
X+2313500Y+2000000D02*
X+2313283Y+1994753D01*
X+2311518Y+1984258D01*
X+2307826Y+1973763D01*
X+2301798Y+1963268D01*
X+2292576Y+1952888D01*
X+2282081Y+1945200D01*
X+2271586Y+1940282D01*
X+2261091Y+1937476D01*
X+2250596Y+1936503D01*
X+2250000Y+1936500D01*
X+2059500Y+2198120D02*
X+2059500Y+2182880D01*
X+2075375Y+2167640D01*
X+2138875Y+2167640D01*
X+2154750Y+2182880D01*
X+2154750Y+2259080D01*
X+2218250Y+2228600D02*
X+2250000Y+2259080D01*
X+2250000Y+2167640D01*
X+2408750Y+2198120D02*
X+2313500Y+2198120D01*
X+2377000Y+2259080D01*
X+2377000Y+2167640D01*
X+2377000Y+1500000D02*
X+2376573Y+1510409D01*
X+2373101Y+1531228D01*
X+2365845Y+1552047D01*
X+2354017Y+1572866D01*
X+2335920Y+1593524D01*
X+2315101Y+1609045D01*
X+2294282Y+1619030D01*
X+2273463Y+1624814D01*
X+2252644Y+1626972D01*
X+2250000Y+1627000D01*
X+2123000Y+1500000D02*
X+2123427Y+1510409D01*
X+2126899Y+1531228D01*
X+2134155Y+1552047D01*
X+2145983Y+1572866D01*
X+2164080Y+1593524D01*
X+2184899Y+1609045D01*
X+2205718Y+1619030D01*
X+2226537Y+1624814D01*
X+2247356Y+1626972D01*
X+2250000Y+1627000D01*
X+2123000Y+1500000D02*
X+2123427Y+1489591D01*
X+2126899Y+1468772D01*
X+2134155Y+1447953D01*
X+2145983Y+1427134D01*
X+2164080Y+1406476D01*
X+2184899Y+1390955D01*
X+2205718Y+1380970D01*
X+2226537Y+1375186D01*
X+2247356Y+1373028D01*
X+2250000Y+1373000D01*
X+2377000Y+1500000D02*
X+2376573Y+1489591D01*
X+2373101Y+1468772D01*
X+2365845Y+1447953D01*
X+2354017Y+1427134D01*
X+2335920Y+1406476D01*
X+2315101Y+1390955D01*
X+2294282Y+1380970D01*
X+2273463Y+1375186D01*
X+2252644Y+1373028D01*
X+2250000Y+1373000D01*
X+2313500Y+1500000D02*
X+2313283Y+1505247D01*
X+2311518Y+1515742D01*
X+2307826Y+1526237D01*
X+2301798Y+1536732D01*
X+2292576Y+1547112D01*
X+2282081Y+1554800D01*
X+2271586Y+1559718D01*
X+2261091Y+1562524D01*
X+2250596Y+1563497D01*
X+2250000Y+1563500D01*
X+2186500Y+1500000D02*
X+2186717Y+1505247D01*
X+2188482Y+1515742D01*
X+2192174Y+1526237D01*
X+2198202Y+1536732D01*
X+2207424Y+1547112D01*
X+2217919Y+1554800D01*
X+2228414Y+1559718D01*
X+2238909Y+1562524D01*
X+2249404Y+1563497D01*
X+2250000Y+1563500D01*
X+2186500Y+1500000D02*
X+2186717Y+1494753D01*
X+2188482Y+1484258D01*
X+2192174Y+1473763D01*
X+2198202Y+1463268D01*
X+2207424Y+1452888D01*
X+2217919Y+1445200D01*
X+2228414Y+1440282D01*
X+2238909Y+1437476D01*
X+2249404Y+1436503D01*
X+2250000Y+1436500D01*
X+2313500Y+1500000D02*
X+2313283Y+1494753D01*
X+2311518Y+1484258D01*
X+2307826Y+1473763D01*
X+2301798Y+1463268D01*
X+2292576Y+1452888D01*
X+2282081Y+1445200D01*
X+2271586Y+1440282D01*
X+2261091Y+1437476D01*
X+2250596Y+1436503D01*
X+2250000Y+1436500D01*
X+2059500Y+1698120D02*
X+2059500Y+1682880D01*
X+2075375Y+1667640D01*
X+2138875Y+1667640D01*
X+2154750Y+1682880D01*
X+2154750Y+1759080D01*
X+2218250Y+1728600D02*
X+2250000Y+1759080D01*
X+2250000Y+1667640D01*
X+2408750Y+1759080D02*
X+2329375Y+1759080D01*
X+2329375Y+1728600D01*
X+2392875Y+1728600D01*
X+2408750Y+1713360D01*
X+2408750Y+1682880D01*
X+2392875Y+1667640D01*
X+2345250Y+1667640D01*
X+2329375Y+1682880D01*
X+2377000Y+1000000D02*
X+2376573Y+1010409D01*
X+2373101Y+1031228D01*
X+2365845Y+1052047D01*
X+2354017Y+1072866D01*
X+2335920Y+1093524D01*
X+2315101Y+1109045D01*
X+2294282Y+1119030D01*
X+2273463Y+1124814D01*
X+2252644Y+1126972D01*
X+2250000Y+1127000D01*
X+2123000Y+1000000D02*
X+2123427Y+1010409D01*
X+2126899Y+1031228D01*
X+2134155Y+1052047D01*
X+2145983Y+1072866D01*
X+2164080Y+1093524D01*
X+2184899Y+1109045D01*
X+2205718Y+1119030D01*
X+2226537Y+1124814D01*
X+2247356Y+1126972D01*
X+2250000Y+1127000D01*
X+2123000Y+1000000D02*
X+2123427Y+989591D01*
X+2126899Y+968772D01*
X+2134155Y+947953D01*
X+2145983Y+927134D01*
X+2164080Y+906476D01*
X+2184899Y+890955D01*
X+2205718Y+880970D01*
X+2226537Y+875186D01*
X+2247356Y+873028D01*
X+2250000Y+873000D01*
X+2377000Y+1000000D02*
X+2376573Y+989591D01*
X+2373101Y+968772D01*
X+2365845Y+947953D01*
X+2354017Y+927134D01*
X+2335920Y+906476D01*
X+2315101Y+890955D01*
X+2294282Y+880970D01*
X+2273463Y+875186D01*
X+2252644Y+873028D01*
X+2250000Y+873000D01*
X+2313500Y+1000000D02*
X+2313283Y+1005247D01*
X+2311518Y+1015742D01*
X+2307826Y+1026237D01*
X+2301798Y+1036732D01*
X+2292576Y+1047112D01*
X+2282081Y+1054800D01*
X+2271586Y+1059718D01*
X+2261091Y+1062524D01*
X+2250596Y+1063497D01*
X+2250000Y+1063500D01*
X+2186500Y+1000000D02*
X+2186717Y+1005247D01*
X+2188482Y+1015742D01*
X+2192174Y+1026237D01*
X+2198202Y+1036732D01*
X+2207424Y+1047112D01*
X+2217919Y+1054800D01*
X+2228414Y+1059718D01*
X+2238909Y+1062524D01*
X+2249404Y+1063497D01*
X+2250000Y+1063500D01*
X+2186500Y+1000000D02*
X+2186717Y+994753D01*
X+2188482Y+984258D01*
X+2192174Y+973763D01*
X+2198202Y+963268D01*
X+2207424Y+952888D01*
X+2217919Y+945200D01*
X+2228414Y+940282D01*
X+2238909Y+937476D01*
X+2249404Y+936503D01*
X+2250000Y+936500D01*
X+2313500Y+1000000D02*
X+2313283Y+994753D01*
X+2311518Y+984258D01*
X+2307826Y+973763D01*
X+2301798Y+963268D01*
X+2292576Y+952888D01*
X+2282081Y+945200D01*
X+2271586Y+940282D01*
X+2261091Y+937476D01*
X+2250596Y+936503D01*
X+2250000Y+936500D01*
X+2059500Y+1198120D02*
X+2059500Y+1182880D01*
X+2075375Y+1167640D01*
X+2138875Y+1167640D01*
X+2154750Y+1182880D01*
X+2154750Y+1259080D01*
X+2218250Y+1228600D02*
X+2250000Y+1259080D01*
X+2250000Y+1167640D01*
X+2408750Y+1243840D02*
X+2392875Y+1259080D01*
X+2345250Y+1259080D01*
X+2329375Y+1243840D01*
X+2329375Y+1182880D01*
X+2345250Y+1167640D01*
X+2392875Y+1167640D01*
X+2408750Y+1182880D01*
X+2408750Y+1198120D01*
X+2392875Y+1213360D01*
X+2329375Y+1213360D01*
X+2377000Y+500000D02*
X+2376573Y+510409D01*
X+2373101Y+531228D01*
X+2365845Y+552047D01*
X+2354017Y+572866D01*
X+2335920Y+593524D01*
X+2315101Y+609045D01*
X+2294282Y+619030D01*
X+2273463Y+624814D01*
X+2252644Y+626972D01*
X+2250000Y+627000D01*
X+2123000Y+500000D02*
X+2123427Y+510409D01*
X+2126899Y+531228D01*
X+2134155Y+552047D01*
X+2145983Y+572866D01*
X+2164080Y+593524D01*
X+2184899Y+609045D01*
X+2205718Y+619030D01*
X+2226537Y+624814D01*
X+2247356Y+626972D01*
X+2250000Y+627000D01*
X+2123000Y+500000D02*
X+2123427Y+489591D01*
X+2126899Y+468772D01*
X+2134155Y+447953D01*
X+2145983Y+427134D01*
X+2164080Y+406476D01*
X+2184899Y+390955D01*
X+2205718Y+380970D01*
X+2226537Y+375186D01*
X+2247356Y+373028D01*
X+2250000Y+373000D01*
X+2377000Y+500000D02*
X+2376573Y+489591D01*
X+2373101Y+468772D01*
X+2365845Y+447953D01*
X+2354017Y+427134D01*
X+2335920Y+406476D01*
X+2315101Y+390955D01*
X+2294282Y+380970D01*
X+2273463Y+375186D01*
X+2252644Y+373028D01*
X+2250000Y+373000D01*
X+2313500Y+500000D02*
X+2313283Y+505247D01*
X+2311518Y+515742D01*
X+2307826Y+526237D01*
X+2301798Y+536732D01*
X+2292576Y+547112D01*
X+2282081Y+554800D01*
X+2271586Y+559718D01*
X+2261091Y+562524D01*
X+2250596Y+563497D01*
X+2250000Y+563500D01*
X+2186500Y+500000D02*
X+2186717Y+505247D01*
X+2188482Y+515742D01*
X+2192174Y+526237D01*
X+2198202Y+536732D01*
X+2207424Y+547112D01*
X+2217919Y+554800D01*
X+2228414Y+559718D01*
X+2238909Y+562524D01*
X+2249404Y+563497D01*
X+2250000Y+563500D01*
X+2186500Y+500000D02*
X+2186717Y+494753D01*
X+2188482Y+484258D01*
X+2192174Y+473763D01*
X+2198202Y+463268D01*
X+2207424Y+452888D01*
X+2217919Y+445200D01*
X+2228414Y+440282D01*
X+2238909Y+437476D01*
X+2249404Y+436503D01*
X+2250000Y+436500D01*
X+2313500Y+500000D02*
X+2313283Y+494753D01*
X+2311518Y+484258D01*
X+2307826Y+473763D01*
X+2301798Y+463268D01*
X+2292576Y+452888D01*
X+2282081Y+445200D01*
X+2271586Y+440282D01*
X+2261091Y+437476D01*
X+2250596Y+436503D01*
X+2250000Y+436500D01*
X+2059500Y+698120D02*
X+2059500Y+682880D01*
X+2075375Y+667640D01*
X+2138875Y+667640D01*
X+2154750Y+682880D01*
X+2154750Y+759080D01*
X+2218250Y+728600D02*
X+2250000Y+759080D01*
X+2250000Y+667640D01*
X+2329375Y+759080D02*
X+2408750Y+759080D01*
X+2408750Y+743840D01*
X+2329375Y+667640D01*
X+4389000Y+2500000D02*
X+4388573Y+2510409D01*
X+4385101Y+2531228D01*
X+4377845Y+2552047D01*
X+4366017Y+2572866D01*
X+4347920Y+2593524D01*
X+4327101Y+2609045D01*
X+4306282Y+2619030D01*
X+4285463Y+2624814D01*
X+4264644Y+2626972D01*
X+4262000Y+2627000D01*
X+4135000Y+2500000D02*
X+4135427Y+2510409D01*
X+4138899Y+2531228D01*
X+4146155Y+2552047D01*
X+4157983Y+2572866D01*
X+4176080Y+2593524D01*
X+4196899Y+2609045D01*
X+4217718Y+2619030D01*
X+4238537Y+2624814D01*
X+4259356Y+2626972D01*
X+4262000Y+2627000D01*
X+4135000Y+2500000D02*
X+4135427Y+2489591D01*
X+4138899Y+2468772D01*
X+4146155Y+2447953D01*
X+4157983Y+2427134D01*
X+4176080Y+2406476D01*
X+4196899Y+2390955D01*
X+4217718Y+2380970D01*
X+4238537Y+2375186D01*
X+4259356Y+2373028D01*
X+4262000Y+2373000D01*
X+4389000Y+2500000D02*
X+4388573Y+2489591D01*
X+4385101Y+2468772D01*
X+4377845Y+2447953D01*
X+4366017Y+2427134D01*
X+4347920Y+2406476D01*
X+4327101Y+2390955D01*
X+4306282Y+2380970D01*
X+4285463Y+2375186D01*
X+4264644Y+2373028D01*
X+4262000Y+2373000D01*
X+4325500Y+2500000D02*
X+4325283Y+2505247D01*
X+4323518Y+2515742D01*
X+4319826Y+2526237D01*
X+4313798Y+2536732D01*
X+4304576Y+2547112D01*
X+4294081Y+2554800D01*
X+4283586Y+2559718D01*
X+4273091Y+2562524D01*
X+4262596Y+2563497D01*
X+4262000Y+2563500D01*
X+4198500Y+2500000D02*
X+4198717Y+2505247D01*
X+4200482Y+2515742D01*
X+4204174Y+2526237D01*
X+4210202Y+2536732D01*
X+4219424Y+2547112D01*
X+4229919Y+2554800D01*
X+4240414Y+2559718D01*
X+4250909Y+2562524D01*
X+4261404Y+2563497D01*
X+4262000Y+2563500D01*
X+4198500Y+2500000D02*
X+4198717Y+2494753D01*
X+4200482Y+2484258D01*
X+4204174Y+2473763D01*
X+4210202Y+2463268D01*
X+4219424Y+2452888D01*
X+4229919Y+2445200D01*
X+4240414Y+2440282D01*
X+4250909Y+2437476D01*
X+4261404Y+2436503D01*
X+4262000Y+2436500D01*
X+4325500Y+2500000D02*
X+4325283Y+2494753D01*
X+4323518Y+2484258D01*
X+4319826Y+2473763D01*
X+4313798Y+2463268D01*
X+4304576Y+2452888D01*
X+4294081Y+2445200D01*
X+4283586Y+2440282D01*
X+4273091Y+2437476D01*
X+4262596Y+2436503D01*
X+4262000Y+2436500D01*
X+4087500Y+2698120D02*
X+4087500Y+2682880D01*
X+4103375Y+2667640D01*
X+4166875Y+2667640D01*
X+4182750Y+2682880D01*
X+4182750Y+2759080D01*
X+4246250Y+2728600D02*
X+4278000Y+2759080D01*
X+4278000Y+2667640D01*
X+4373250Y+2713360D02*
X+4357375Y+2728600D01*
X+4357375Y+2743840D01*
X+4373250Y+2759080D01*
X+4420875Y+2759080D01*
X+4436750Y+2743840D01*
X+4436750Y+2728600D01*
X+4420875Y+2713360D01*
X+4373250Y+2713360D01*
X+4357375Y+2698120D01*
X+4357375Y+2682880D01*
X+4373250Y+2667640D01*
X+4420875Y+2667640D01*
X+4436750Y+2682880D01*
X+4436750Y+2698120D01*
X+4420875Y+2713360D01*
X+4377000Y+2000000D02*
X+4376573Y+2010409D01*
X+4373101Y+2031228D01*
X+4365845Y+2052047D01*
X+4354017Y+2072866D01*
X+4335920Y+2093524D01*
X+4315101Y+2109045D01*
X+4294282Y+2119030D01*
X+4273463Y+2124814D01*
X+4252644Y+2126972D01*
X+4250000Y+2127000D01*
X+4123000Y+2000000D02*
X+4123427Y+2010409D01*
X+4126899Y+2031228D01*
X+4134155Y+2052047D01*
X+4145983Y+2072866D01*
X+4164080Y+2093524D01*
X+4184899Y+2109045D01*
X+4205718Y+2119030D01*
X+4226537Y+2124814D01*
X+4247356Y+2126972D01*
X+4250000Y+2127000D01*
X+4123000Y+2000000D02*
X+4123427Y+1989591D01*
X+4126899Y+1968772D01*
X+4134155Y+1947953D01*
X+4145983Y+1927134D01*
X+4164080Y+1906476D01*
X+4184899Y+1890955D01*
X+4205718Y+1880970D01*
X+4226537Y+1875186D01*
X+4247356Y+1873028D01*
X+4250000Y+1873000D01*
X+4377000Y+2000000D02*
X+4376573Y+1989591D01*
X+4373101Y+1968772D01*
X+4365845Y+1947953D01*
X+4354017Y+1927134D01*
X+4335920Y+1906476D01*
X+4315101Y+1890955D01*
X+4294282Y+1880970D01*
X+4273463Y+1875186D01*
X+4252644Y+1873028D01*
X+4250000Y+1873000D01*
X+4313500Y+2000000D02*
X+4313283Y+2005247D01*
X+4311518Y+2015742D01*
X+4307826Y+2026237D01*
X+4301798Y+2036732D01*
X+4292576Y+2047112D01*
X+4282081Y+2054800D01*
X+4271586Y+2059718D01*
X+4261091Y+2062524D01*
X+4250596Y+2063497D01*
X+4250000Y+2063500D01*
X+4186500Y+2000000D02*
X+4186717Y+2005247D01*
X+4188482Y+2015742D01*
X+4192174Y+2026237D01*
X+4198202Y+2036732D01*
X+4207424Y+2047112D01*
X+4217919Y+2054800D01*
X+4228414Y+2059718D01*
X+4238909Y+2062524D01*
X+4249404Y+2063497D01*
X+4250000Y+2063500D01*
X+4186500Y+2000000D02*
X+4186717Y+1994753D01*
X+4188482Y+1984258D01*
X+4192174Y+1973763D01*
X+4198202Y+1963268D01*
X+4207424Y+1952888D01*
X+4217919Y+1945200D01*
X+4228414Y+1940282D01*
X+4238909Y+1937476D01*
X+4249404Y+1936503D01*
X+4250000Y+1936500D01*
X+4313500Y+2000000D02*
X+4313283Y+1994753D01*
X+4311518Y+1984258D01*
X+4307826Y+1973763D01*
X+4301798Y+1963268D01*
X+4292576Y+1952888D01*
X+4282081Y+1945200D01*
X+4271586Y+1940282D01*
X+4261091Y+1937476D01*
X+4250596Y+1936503D01*
X+4250000Y+1936500D01*
X+4059500Y+2198120D02*
X+4059500Y+2182880D01*
X+4075375Y+2167640D01*
X+4138875Y+2167640D01*
X+4154750Y+2182880D01*
X+4154750Y+2259080D01*
X+4218250Y+2228600D02*
X+4250000Y+2259080D01*
X+4250000Y+2167640D01*
X+4408750Y+2228600D02*
X+4392875Y+2213360D01*
X+4345250Y+2213360D01*
X+4329375Y+2228600D01*
X+4329375Y+2243840D01*
X+4345250Y+2259080D01*
X+4392875Y+2259080D01*
X+4408750Y+2243840D01*
X+4408750Y+2182880D01*
X+4392875Y+2167640D01*
X+4345250Y+2167640D01*
X+5377000Y+4750000D02*
X+5376573Y+4760409D01*
X+5373101Y+4781228D01*
X+5365845Y+4802047D01*
X+5354017Y+4822866D01*
X+5335920Y+4843524D01*
X+5315101Y+4859045D01*
X+5294282Y+4869030D01*
X+5273463Y+4874814D01*
X+5252644Y+4876972D01*
X+5250000Y+4877000D01*
X+5123000Y+4750000D02*
X+5123427Y+4760409D01*
X+5126899Y+4781228D01*
X+5134155Y+4802047D01*
X+5145983Y+4822866D01*
X+5164080Y+4843524D01*
X+5184899Y+4859045D01*
X+5205718Y+4869030D01*
X+5226537Y+4874814D01*
X+5247356Y+4876972D01*
X+5250000Y+4877000D01*
X+5123000Y+4750000D02*
X+5123427Y+4739591D01*
X+5126899Y+4718772D01*
X+5134155Y+4697953D01*
X+5145983Y+4677134D01*
X+5164080Y+4656476D01*
X+5184899Y+4640955D01*
X+5205718Y+4630970D01*
X+5226537Y+4625186D01*
X+5247356Y+4623028D01*
X+5250000Y+4623000D01*
X+5377000Y+4750000D02*
X+5376573Y+4739591D01*
X+5373101Y+4718772D01*
X+5365845Y+4697953D01*
X+5354017Y+4677134D01*
X+5335920Y+4656476D01*
X+5315101Y+4640955D01*
X+5294282Y+4630970D01*
X+5273463Y+4625186D01*
X+5252644Y+4623028D01*
X+5250000Y+4623000D01*
X+5313500Y+4750000D02*
X+5313283Y+4755247D01*
X+5311518Y+4765742D01*
X+5307826Y+4776237D01*
X+5301798Y+4786732D01*
X+5292576Y+4797112D01*
X+5282081Y+4804800D01*
X+5271586Y+4809718D01*
X+5261091Y+4812524D01*
X+5250596Y+4813497D01*
X+5250000Y+4813500D01*
X+5186500Y+4750000D02*
X+5186717Y+4755247D01*
X+5188482Y+4765742D01*
X+5192174Y+4776237D01*
X+5198202Y+4786732D01*
X+5207424Y+4797112D01*
X+5217919Y+4804800D01*
X+5228414Y+4809718D01*
X+5238909Y+4812524D01*
X+5249404Y+4813497D01*
X+5250000Y+4813500D01*
X+5186500Y+4750000D02*
X+5186717Y+4744753D01*
X+5188482Y+4734258D01*
X+5192174Y+4723763D01*
X+5198202Y+4713268D01*
X+5207424Y+4702888D01*
X+5217919Y+4695200D01*
X+5228414Y+4690282D01*
X+5238909Y+4687476D01*
X+5249404Y+4686503D01*
X+5250000Y+4686500D01*
X+5313500Y+4750000D02*
X+5313283Y+4744753D01*
X+5311518Y+4734258D01*
X+5307826Y+4723763D01*
X+5301798Y+4713268D01*
X+5292576Y+4702888D01*
X+5282081Y+4695200D01*
X+5271586Y+4690282D01*
X+5261091Y+4687476D01*
X+5250596Y+4686503D01*
X+5250000Y+4686500D01*
X+5059500Y+4948120D02*
X+5059500Y+4932880D01*
X+5075375Y+4917640D01*
X+5138875Y+4917640D01*
X+5154750Y+4932880D01*
X+5154750Y+5009080D01*
X+5202375Y+4993840D02*
X+5218250Y+5009080D01*
X+5265875Y+5009080D01*
X+5281750Y+4993840D01*
X+5281750Y+4978600D01*
X+5265875Y+4963360D01*
X+5218250Y+4963360D01*
X+5202375Y+4948120D01*
X+5202375Y+4917640D01*
X+5281750Y+4917640D01*
X+5313500Y+4932880D02*
X+5313500Y+4993840D01*
X+5329375Y+5009080D01*
X+5392875Y+5009080D01*
X+5408750Y+4993840D01*
X+5408750Y+4932880D01*
X+5392875Y+4917640D01*
X+5329375Y+4917640D01*
X+5313500Y+4932880D01*
X+5313500Y+4917640D02*
X+5408750Y+5009080D01*
X+5377000Y+4250000D02*
X+5376573Y+4260409D01*
X+5373101Y+4281228D01*
X+5365845Y+4302047D01*
X+5354017Y+4322866D01*
X+5335920Y+4343524D01*
X+5315101Y+4359045D01*
X+5294282Y+4369030D01*
X+5273463Y+4374814D01*
X+5252644Y+4376972D01*
X+5250000Y+4377000D01*
X+5123000Y+4250000D02*
X+5123427Y+4260409D01*
X+5126899Y+4281228D01*
X+5134155Y+4302047D01*
X+5145983Y+4322866D01*
X+5164080Y+4343524D01*
X+5184899Y+4359045D01*
X+5205718Y+4369030D01*
X+5226537Y+4374814D01*
X+5247356Y+4376972D01*
X+5250000Y+4377000D01*
X+5123000Y+4250000D02*
X+5123427Y+4239591D01*
X+5126899Y+4218772D01*
X+5134155Y+4197953D01*
X+5145983Y+4177134D01*
X+5164080Y+4156476D01*
X+5184899Y+4140955D01*
X+5205718Y+4130970D01*
X+5226537Y+4125186D01*
X+5247356Y+4123028D01*
X+5250000Y+4123000D01*
X+5377000Y+4250000D02*
X+5376573Y+4239591D01*
X+5373101Y+4218772D01*
X+5365845Y+4197953D01*
X+5354017Y+4177134D01*
X+5335920Y+4156476D01*
X+5315101Y+4140955D01*
X+5294282Y+4130970D01*
X+5273463Y+4125186D01*
X+5252644Y+4123028D01*
X+5250000Y+4123000D01*
X+5313500Y+4250000D02*
X+5313283Y+4255247D01*
X+5311518Y+4265742D01*
X+5307826Y+4276237D01*
X+5301798Y+4286732D01*
X+5292576Y+4297112D01*
X+5282081Y+4304800D01*
X+5271586Y+4309718D01*
X+5261091Y+4312524D01*
X+5250596Y+4313497D01*
X+5250000Y+4313500D01*
X+5186500Y+4250000D02*
X+5186717Y+4255247D01*
X+5188482Y+4265742D01*
X+5192174Y+4276237D01*
X+5198202Y+4286732D01*
X+5207424Y+4297112D01*
X+5217919Y+4304800D01*
X+5228414Y+4309718D01*
X+5238909Y+4312524D01*
X+5249404Y+4313497D01*
X+5250000Y+4313500D01*
X+5186500Y+4250000D02*
X+5186717Y+4244753D01*
X+5188482Y+4234258D01*
X+5192174Y+4223763D01*
X+5198202Y+4213268D01*
X+5207424Y+4202888D01*
X+5217919Y+4195200D01*
X+5228414Y+4190282D01*
X+5238909Y+4187476D01*
X+5249404Y+4186503D01*
X+5250000Y+4186500D01*
X+5313500Y+4250000D02*
X+5313283Y+4244753D01*
X+5311518Y+4234258D01*
X+5307826Y+4223763D01*
X+5301798Y+4213268D01*
X+5292576Y+4202888D01*
X+5282081Y+4195200D01*
X+5271586Y+4190282D01*
X+5261091Y+4187476D01*
X+5250596Y+4186503D01*
X+5250000Y+4186500D01*
X+5059500Y+4448120D02*
X+5059500Y+4432880D01*
X+5075375Y+4417640D01*
X+5138875Y+4417640D01*
X+5154750Y+4432880D01*
X+5154750Y+4509080D01*
X+5202375Y+4493840D02*
X+5218250Y+4509080D01*
X+5265875Y+4509080D01*
X+5281750Y+4493840D01*
X+5281750Y+4478600D01*
X+5265875Y+4463360D01*
X+5218250Y+4463360D01*
X+5202375Y+4448120D01*
X+5202375Y+4417640D01*
X+5281750Y+4417640D01*
X+5345250Y+4478600D02*
X+5377000Y+4509080D01*
X+5377000Y+4417640D01*
X+5377000Y+3750000D02*
X+5376573Y+3760409D01*
X+5373101Y+3781228D01*
X+5365845Y+3802047D01*
X+5354017Y+3822866D01*
X+5335920Y+3843524D01*
X+5315101Y+3859045D01*
X+5294282Y+3869030D01*
X+5273463Y+3874814D01*
X+5252644Y+3876972D01*
X+5250000Y+3877000D01*
X+5123000Y+3750000D02*
X+5123427Y+3760409D01*
X+5126899Y+3781228D01*
X+5134155Y+3802047D01*
X+5145983Y+3822866D01*
X+5164080Y+3843524D01*
X+5184899Y+3859045D01*
X+5205718Y+3869030D01*
X+5226537Y+3874814D01*
X+5247356Y+3876972D01*
X+5250000Y+3877000D01*
X+5123000Y+3750000D02*
X+5123427Y+3739591D01*
X+5126899Y+3718772D01*
X+5134155Y+3697953D01*
X+5145983Y+3677134D01*
X+5164080Y+3656476D01*
X+5184899Y+3640955D01*
X+5205718Y+3630970D01*
X+5226537Y+3625186D01*
X+5247356Y+3623028D01*
X+5250000Y+3623000D01*
X+5377000Y+3750000D02*
X+5376573Y+3739591D01*
X+5373101Y+3718772D01*
X+5365845Y+3697953D01*
X+5354017Y+3677134D01*
X+5335920Y+3656476D01*
X+5315101Y+3640955D01*
X+5294282Y+3630970D01*
X+5273463Y+3625186D01*
X+5252644Y+3623028D01*
X+5250000Y+3623000D01*
X+5313500Y+3750000D02*
X+5313283Y+3755247D01*
X+5311518Y+3765742D01*
X+5307826Y+3776237D01*
X+5301798Y+3786732D01*
X+5292576Y+3797112D01*
X+5282081Y+3804800D01*
X+5271586Y+3809718D01*
X+5261091Y+3812524D01*
X+5250596Y+3813497D01*
X+5250000Y+3813500D01*
X+5186500Y+3750000D02*
X+5186717Y+3755247D01*
X+5188482Y+3765742D01*
X+5192174Y+3776237D01*
X+5198202Y+3786732D01*
X+5207424Y+3797112D01*
X+5217919Y+3804800D01*
X+5228414Y+3809718D01*
X+5238909Y+3812524D01*
X+5249404Y+3813497D01*
X+5250000Y+3813500D01*
X+5186500Y+3750000D02*
X+5186717Y+3744753D01*
X+5188482Y+3734258D01*
X+5192174Y+3723763D01*
X+5198202Y+3713268D01*
X+5207424Y+3702888D01*
X+5217919Y+3695200D01*
X+5228414Y+3690282D01*
X+5238909Y+3687476D01*
X+5249404Y+3686503D01*
X+5250000Y+3686500D01*
X+5313500Y+3750000D02*
X+5313283Y+3744753D01*
X+5311518Y+3734258D01*
X+5307826Y+3723763D01*
X+5301798Y+3713268D01*
X+5292576Y+3702888D01*
X+5282081Y+3695200D01*
X+5271586Y+3690282D01*
X+5261091Y+3687476D01*
X+5250596Y+3686503D01*
X+5250000Y+3686500D01*
X+5059500Y+3948120D02*
X+5059500Y+3932880D01*
X+5075375Y+3917640D01*
X+5138875Y+3917640D01*
X+5154750Y+3932880D01*
X+5154750Y+4009080D01*
X+5202375Y+3993840D02*
X+5218250Y+4009080D01*
X+5265875Y+4009080D01*
X+5281750Y+3993840D01*
X+5281750Y+3978600D01*
X+5265875Y+3963360D01*
X+5218250Y+3963360D01*
X+5202375Y+3948120D01*
X+5202375Y+3917640D01*
X+5281750Y+3917640D01*
X+5329375Y+3993840D02*
X+5345250Y+4009080D01*
X+5392875Y+4009080D01*
X+5408750Y+3993840D01*
X+5408750Y+3978600D01*
X+5392875Y+3963360D01*
X+5345250Y+3963360D01*
X+5329375Y+3948120D01*
X+5329375Y+3917640D01*
X+5408750Y+3917640D01*
D27*
X+1595000Y+4160000D02*
X+1705000Y+4160000D01*
X+1595000Y+4340000D02*
X+1705000Y+4340000D01*
D25*
X+1276500Y+4097970D02*
X+1260625Y+4082730D01*
X+1213000Y+4082730D01*
X+1181250Y+4113210D01*
X+1181250Y+4143690D01*
X+1213000Y+4174170D01*
X+1260625Y+4174170D01*
X+1276500Y+4158930D01*
X+1340000Y+4143690D02*
X+1371750Y+4174170D01*
X+1371750Y+4082730D01*
D27*
X+1095000Y+3660000D02*
X+1205000Y+3660000D01*
X+1095000Y+3840000D02*
X+1205000Y+3840000D01*
D25*
X+1118250Y+3895720D02*
X+1102375Y+3880480D01*
X+1054750Y+3880480D01*
X+1023000Y+3910960D01*
X+1023000Y+3941440D01*
X+1054750Y+3971920D01*
X+1102375Y+3971920D01*
X+1118250Y+3956680D01*
X+1165875Y+3956680D02*
X+1181750Y+3971920D01*
X+1229375Y+3971920D01*
X+1245250Y+3956680D01*
X+1245250Y+3941440D01*
X+1229375Y+3926200D01*
X+1181750Y+3926200D01*
X+1165875Y+3910960D01*
X+1165875Y+3880480D01*
X+1245250Y+3880480D01*
D27*
X+1595000Y+3660000D02*
X+1705000Y+3660000D01*
X+1595000Y+3840000D02*
X+1705000Y+3840000D01*
D25*
X+1618250Y+3895720D02*
X+1602375Y+3880480D01*
X+1554750Y+3880480D01*
X+1523000Y+3910960D01*
X+1523000Y+3941440D01*
X+1554750Y+3971920D01*
X+1602375Y+3971920D01*
X+1618250Y+3956680D01*
X+1665875Y+3956680D02*
X+1681750Y+3971920D01*
X+1729375Y+3971920D01*
X+1745250Y+3956680D01*
X+1745250Y+3941440D01*
X+1729375Y+3926200D01*
X+1745250Y+3910960D01*
X+1745250Y+3895720D01*
X+1729375Y+3880480D01*
X+1681750Y+3880480D01*
X+1665875Y+3895720D01*
X+1697625Y+3926200D02*
X+1729375Y+3926200D01*
D27*
X+1135000Y+930000D02*
X+1165000Y+930000D01*
X+1135000Y+1070000D02*
X+1165000Y+1070000D01*
D25*
X+959500Y+1110480D02*
X+959500Y+1201920D01*
X+1038875Y+1201920D01*
X+1054750Y+1186680D01*
X+1054750Y+1171440D01*
X+1038875Y+1156200D01*
X+959500Y+1156200D01*
X+1038875Y+1156200D02*
X+1054750Y+1140960D01*
X+1054750Y+1110480D01*
X+1118250Y+1171440D02*
X+1150000Y+1201920D01*
X+1150000Y+1110480D01*
X+1308750Y+1140960D02*
X+1213500Y+1140960D01*
X+1277000Y+1201920D01*
X+1277000Y+1110480D01*
D27*
X+1585000Y+930000D02*
X+1615000Y+930000D01*
X+1585000Y+1070000D02*
X+1615000Y+1070000D01*
D25*
X+1409500Y+1110480D02*
X+1409500Y+1201920D01*
X+1488875Y+1201920D01*
X+1504750Y+1186680D01*
X+1504750Y+1171440D01*
X+1488875Y+1156200D01*
X+1409500Y+1156200D01*
X+1488875Y+1156200D02*
X+1504750Y+1140960D01*
X+1504750Y+1110480D01*
X+1568250Y+1171440D02*
X+1600000Y+1201920D01*
X+1600000Y+1110480D01*
X+1758750Y+1201920D02*
X+1679375Y+1201920D01*
X+1679375Y+1171440D01*
X+1742875Y+1171440D01*
X+1758750Y+1156200D01*
X+1758750Y+1125720D01*
X+1742875Y+1110480D01*
X+1695250Y+1110480D01*
X+1679375Y+1125720D01*
D27*
X+3575500Y+2930000D02*
X+3605500Y+2930000D01*
X+3575500Y+3070000D02*
X+3605500Y+3070000D01*
D25*
X+3400000Y+3110480D02*
X+3400000Y+3201920D01*
X+3479375Y+3201920D01*
X+3495250Y+3186680D01*
X+3495250Y+3171440D01*
X+3479375Y+3156200D01*
X+3400000Y+3156200D01*
X+3479375Y+3156200D02*
X+3495250Y+3140960D01*
X+3495250Y+3110480D01*
X+3542875Y+3186680D02*
X+3558750Y+3201920D01*
X+3606375Y+3201920D01*
X+3622250Y+3186680D01*
X+3622250Y+3171440D01*
X+3606375Y+3156200D01*
X+3558750Y+3156200D01*
X+3542875Y+3140960D01*
X+3542875Y+3110480D01*
X+3622250Y+3110480D01*
X+3685750Y+3171440D02*
X+3717500Y+3201920D01*
X+3717500Y+3110480D01*
D27*
X+1135000Y+1930000D02*
X+1165000Y+1930000D01*
X+1135000Y+2070000D02*
X+1165000Y+2070000D01*
D25*
X+959500Y+2110480D02*
X+959500Y+2201920D01*
X+1038875Y+2201920D01*
X+1054750Y+2186680D01*
X+1054750Y+2171440D01*
X+1038875Y+2156200D01*
X+959500Y+2156200D01*
X+1038875Y+2156200D02*
X+1054750Y+2140960D01*
X+1054750Y+2110480D01*
X+1118250Y+2171440D02*
X+1150000Y+2201920D01*
X+1150000Y+2110480D01*
X+1213500Y+2125720D02*
X+1213500Y+2186680D01*
X+1229375Y+2201920D01*
X+1292875Y+2201920D01*
X+1308750Y+2186680D01*
X+1308750Y+2125720D01*
X+1292875Y+2110480D01*
X+1229375Y+2110480D01*
X+1213500Y+2125720D01*
X+1213500Y+2110480D02*
X+1308750Y+2201920D01*
D27*
X+1635000Y+1930000D02*
X+1665000Y+1930000D01*
X+1635000Y+2070000D02*
X+1665000Y+2070000D01*
D25*
X+1459500Y+2110480D02*
X+1459500Y+2201920D01*
X+1538875Y+2201920D01*
X+1554750Y+2186680D01*
X+1554750Y+2171440D01*
X+1538875Y+2156200D01*
X+1459500Y+2156200D01*
X+1538875Y+2156200D02*
X+1554750Y+2140960D01*
X+1554750Y+2110480D01*
X+1618250Y+2171440D02*
X+1650000Y+2201920D01*
X+1650000Y+2110480D01*
X+1745250Y+2171440D02*
X+1777000Y+2201920D01*
X+1777000Y+2110480D01*
X+262700Y+5439040D02*
X+275400Y+5459360D01*
X+313500Y+5459360D01*
X+326200Y+5439040D01*
X+326200Y+5418720D01*
X+313500Y+5398400D01*
X+326200Y+5378080D01*
X+326200Y+5357760D01*
X+313500Y+5337440D01*
X+275400Y+5337440D01*
X+262700Y+5357760D01*
X+288100Y+5398400D02*
X+313500Y+5398400D01*
X+389700Y+5357760D02*
X+402400Y+5357760D01*
X+402400Y+5337440D01*
X+389700Y+5337440D01*
X+389700Y+5357760D01*
X+465900Y+5439040D02*
X+478600Y+5459360D01*
X+516700Y+5459360D01*
X+529400Y+5439040D01*
X+529400Y+5418720D01*
X+516700Y+5398400D01*
X+529400Y+5378080D01*
X+529400Y+5357760D01*
X+516700Y+5337440D01*
X+478600Y+5337440D01*
X+465900Y+5357760D01*
X+491300Y+5398400D02*
X+516700Y+5398400D01*
X+554800Y+5459360D02*
X+554800Y+5398400D01*
X+592900Y+5337440D01*
X+631000Y+5398400D01*
X+631000Y+5459360D01*
X+1326200Y+5459360D02*
X+1262700Y+5459360D01*
X+1262700Y+5418720D01*
X+1313500Y+5418720D01*
X+1326200Y+5398400D01*
X+1326200Y+5357760D01*
X+1313500Y+5337440D01*
X+1275400Y+5337440D01*
X+1262700Y+5357760D01*
X+1389700Y+5357760D02*
X+1402400Y+5357760D01*
X+1402400Y+5337440D01*
X+1389700Y+5337440D01*
X+1389700Y+5357760D01*
X+1453200Y+5357760D02*
X+1453200Y+5439040D01*
X+1465900Y+5459360D01*
X+1516700Y+5459360D01*
X+1529400Y+5439040D01*
X+1529400Y+5357760D01*
X+1516700Y+5337440D01*
X+1465900Y+5337440D01*
X+1453200Y+5357760D01*
X+1453200Y+5337440D02*
X+1529400Y+5459360D01*
X+1554800Y+5459360D02*
X+1554800Y+5398400D01*
X+1592900Y+5337440D01*
X+1631000Y+5398400D01*
X+1631000Y+5459360D01*
X+1275400Y+4918720D02*
X+1300800Y+4959360D01*
X+1300800Y+4837440D01*
X+1364300Y+4939040D02*
X+1377000Y+4959360D01*
X+1415100Y+4959360D01*
X+1427800Y+4939040D01*
X+1427800Y+4918720D01*
X+1415100Y+4898400D01*
X+1377000Y+4898400D01*
X+1364300Y+4878080D01*
X+1364300Y+4837440D01*
X+1427800Y+4837440D01*
X+1491300Y+4857760D02*
X+1504000Y+4857760D01*
X+1504000Y+4837440D01*
X+1491300Y+4837440D01*
X+1491300Y+4857760D01*
X+1554800Y+4857760D02*
X+1554800Y+4939040D01*
X+1567500Y+4959360D01*
X+1618300Y+4959360D01*
X+1631000Y+4939040D01*
X+1631000Y+4857760D01*
X+1618300Y+4837440D01*
X+1567500Y+4837440D01*
X+1554800Y+4857760D01*
X+1554800Y+4837440D02*
X+1631000Y+4959360D01*
X+1656400Y+4959360D02*
X+1656400Y+4898400D01*
X+1694500Y+4837440D01*
X+1732600Y+4898400D01*
X+1732600Y+4959360D01*
X+1424800Y+4447080D02*
X+1450200Y+4447080D01*
X+1450200Y+4406440D01*
X+1399400Y+4406440D01*
X+1374000Y+4447080D01*
X+1374000Y+4487720D01*
X+1399400Y+4528360D01*
X+1437500Y+4528360D01*
X+1450200Y+4508040D01*
X+1475600Y+4406440D02*
X+1475600Y+4528360D01*
X+1551800Y+4406440D01*
X+1551800Y+4528360D01*
X+1577200Y+4406440D02*
X+1577200Y+4528360D01*
X+1628000Y+4528360D01*
X+1653400Y+4487720D01*
X+1653400Y+4447080D01*
X+1628000Y+4406440D01*
X+1577200Y+4406440D01*
X+2500000Y+2093220D02*
X+2525400Y+2133860D01*
X+2550800Y+2133860D01*
X+2576200Y+2093220D01*
X+2576200Y+2052580D01*
X+2550800Y+2011940D01*
X+2525400Y+2011940D01*
X+2500000Y+2052580D01*
X+2500000Y+2093220D01*
X+2601600Y+2133860D02*
X+2601600Y+2032260D01*
X+2614300Y+2011940D01*
X+2665100Y+2011940D01*
X+2677800Y+2032260D01*
X+2677800Y+2133860D01*
X+2703200Y+2133860D02*
X+2779400Y+2133860D01*
X+2741300Y+2133860D02*
X+2741300Y+2011940D01*
X+2804800Y+1991620D02*
X+2881000Y+1991620D01*
X+2906400Y+2133860D02*
X+2982600Y+2133860D01*
X+2944500Y+2133860D02*
X+2944500Y+2011940D01*
X+3008000Y+2011940D02*
X+3008000Y+2133860D01*
X+3071500Y+2133860D01*
X+3084200Y+2113540D01*
X+3084200Y+2093220D01*
X+3071500Y+2072900D01*
X+3008000Y+2072900D01*
X+3071500Y+2072900D02*
X+3084200Y+2052580D01*
X+3084200Y+2011940D01*
X+3122300Y+2133860D02*
X+3173100Y+2133860D01*
X+3147700Y+2133860D02*
X+3147700Y+2011940D01*
X+3122300Y+2011940D02*
X+3173100Y+2011940D01*
X+3262000Y+2052580D02*
X+3287400Y+2052580D01*
X+3287400Y+2011940D01*
X+3236600Y+2011940D01*
X+3211200Y+2052580D01*
X+3211200Y+2093220D01*
X+3236600Y+2133860D01*
X+3274700Y+2133860D01*
X+3287400Y+2113540D01*
X+2555500Y+1668720D02*
X+2580900Y+1709360D01*
X+2606300Y+1709360D01*
X+2631700Y+1668720D01*
X+2631700Y+1628080D01*
X+2606300Y+1587440D01*
X+2580900Y+1587440D01*
X+2555500Y+1628080D01*
X+2555500Y+1668720D01*
X+2657100Y+1709360D02*
X+2657100Y+1607760D01*
X+2669800Y+1587440D01*
X+2720600Y+1587440D01*
X+2733300Y+1607760D01*
X+2733300Y+1709360D01*
X+2758700Y+1709360D02*
X+2834900Y+1709360D01*
X+2796800Y+1709360D02*
X+2796800Y+1587440D01*
X+2860300Y+1567120D02*
X+2936500Y+1567120D01*
X+3038100Y+1587440D02*
X+2961900Y+1587440D01*
X+2961900Y+1709360D01*
X+3038100Y+1709360D01*
X+2961900Y+1648400D02*
X+3012700Y+1648400D01*
X+3139700Y+1607760D02*
X+3127000Y+1587440D01*
X+3088900Y+1587440D01*
X+3063500Y+1628080D01*
X+3063500Y+1668720D01*
X+3088900Y+1709360D01*
X+3127000Y+1709360D01*
X+3139700Y+1689040D01*
X+3165100Y+1587440D02*
X+3165100Y+1709360D01*
X+3241300Y+1709360D02*
X+3241300Y+1587440D01*
X+3165100Y+1648400D02*
X+3241300Y+1648400D01*
X+3266700Y+1668720D02*
X+3292100Y+1709360D01*
X+3317500Y+1709360D01*
X+3342900Y+1668720D01*
X+3342900Y+1628080D01*
X+3317500Y+1587440D01*
X+3292100Y+1587440D01*
X+3266700Y+1628080D01*
X+3266700Y+1668720D01*
X+2512700Y+931860D02*
X+2563500Y+931860D01*
X+2538100Y+931860D02*
X+2538100Y+809940D01*
X+2512700Y+809940D02*
X+2563500Y+809940D01*
X+2601600Y+809940D02*
X+2601600Y+931860D01*
X+2677800Y+809940D01*
X+2677800Y+931860D01*
X+2703200Y+789620D02*
X+2779400Y+789620D01*
X+2804800Y+931860D02*
X+2881000Y+931860D01*
X+2842900Y+931860D02*
X+2842900Y+809940D01*
X+2906400Y+809940D02*
X+2906400Y+931860D01*
X+2969900Y+931860D01*
X+2982600Y+911540D01*
X+2982600Y+891220D01*
X+2969900Y+870900D01*
X+2906400Y+870900D01*
X+2969900Y+870900D02*
X+2982600Y+850580D01*
X+2982600Y+809940D01*
X+3020700Y+931860D02*
X+3071500Y+931860D01*
X+3046100Y+931860D02*
X+3046100Y+809940D01*
X+3020700Y+809940D02*
X+3071500Y+809940D01*
X+3160400Y+850580D02*
X+3185800Y+850580D01*
X+3185800Y+809940D01*
X+3135000Y+809940D01*
X+3109600Y+850580D01*
X+3109600Y+891220D01*
X+3135000Y+931860D01*
X+3173100Y+931860D01*
X+3185800Y+911540D01*
X+2512700Y+459360D02*
X+2563500Y+459360D01*
X+2538100Y+459360D02*
X+2538100Y+337440D01*
X+2512700Y+337440D02*
X+2563500Y+337440D01*
X+2601600Y+337440D02*
X+2601600Y+459360D01*
X+2677800Y+337440D01*
X+2677800Y+459360D01*
X+2703200Y+317120D02*
X+2779400Y+317120D01*
X+2881000Y+337440D02*
X+2804800Y+337440D01*
X+2804800Y+459360D01*
X+2881000Y+459360D01*
X+2804800Y+398400D02*
X+2855600Y+398400D01*
X+2982600Y+357760D02*
X+2969900Y+337440D01*
X+2931800Y+337440D01*
X+2906400Y+378080D01*
X+2906400Y+418720D01*
X+2931800Y+459360D01*
X+2969900Y+459360D01*
X+2982600Y+439040D01*
X+3008000Y+337440D02*
X+3008000Y+459360D01*
X+3084200Y+459360D02*
X+3084200Y+337440D01*
X+3008000Y+398400D02*
X+3084200Y+398400D01*
X+3109600Y+418720D02*
X+3135000Y+459360D01*
X+3160400Y+459360D01*
X+3185800Y+418720D01*
X+3185800Y+378080D01*
X+3160400Y+337440D01*
X+3135000Y+337440D01*
X+3109600Y+378080D01*
X+3109600Y+418720D01*
X+3381000Y+2464440D02*
X+3381000Y+2586360D01*
X+3419100Y+2525400D01*
X+3457200Y+2586360D01*
X+3457200Y+2464440D01*
X+3482600Y+2444120D02*
X+3558800Y+2444120D01*
X+3584200Y+2545720D02*
X+3609600Y+2586360D01*
X+3635000Y+2586360D01*
X+3660400Y+2545720D01*
X+3660400Y+2505080D01*
X+3635000Y+2464440D01*
X+3609600Y+2464440D01*
X+3584200Y+2505080D01*
X+3584200Y+2545720D01*
X+3685800Y+2586360D02*
X+3685800Y+2484760D01*
X+3698500Y+2464440D01*
X+3749300Y+2464440D01*
X+3762000Y+2484760D01*
X+3762000Y+2586360D01*
X+3787400Y+2586360D02*
X+3863600Y+2586360D01*
X+3825500Y+2586360D02*
X+3825500Y+2464440D01*
X+3914400Y+2545720D02*
X+3939800Y+2586360D01*
X+3939800Y+2464440D01*
X+3381000Y+2162940D02*
X+3381000Y+2284860D01*
X+3419100Y+2223900D01*
X+3457200Y+2284860D01*
X+3457200Y+2162940D01*
X+3482600Y+2142620D02*
X+3558800Y+2142620D01*
X+3584200Y+2244220D02*
X+3609600Y+2284860D01*
X+3635000Y+2284860D01*
X+3660400Y+2244220D01*
X+3660400Y+2203580D01*
X+3635000Y+2162940D01*
X+3609600Y+2162940D01*
X+3584200Y+2203580D01*
X+3584200Y+2244220D01*
X+3685800Y+2284860D02*
X+3685800Y+2183260D01*
X+3698500Y+2162940D01*
X+3749300Y+2162940D01*
X+3762000Y+2183260D01*
X+3762000Y+2284860D01*
X+3787400Y+2284860D02*
X+3863600Y+2284860D01*
X+3825500Y+2284860D02*
X+3825500Y+2162940D01*
X+3901700Y+2264540D02*
X+3914400Y+2284860D01*
X+3952500Y+2284860D01*
X+3965200Y+2264540D01*
X+3965200Y+2244220D01*
X+3952500Y+2223900D01*
X+3914400Y+2223900D01*
X+3901700Y+2203580D01*
X+3901700Y+2162940D01*
X+3965200Y+2162940D01*
X+5500000Y+4587440D02*
X+5500000Y+4709360D01*
X+5538100Y+4648400D01*
X+5576200Y+4709360D01*
X+5576200Y+4587440D01*
X+5601600Y+4567120D02*
X+5677800Y+4567120D01*
X+5703200Y+4668720D02*
X+5728600Y+4709360D01*
X+5754000Y+4709360D01*
X+5779400Y+4668720D01*
X+5779400Y+4628080D01*
X+5754000Y+4587440D01*
X+5728600Y+4587440D01*
X+5703200Y+4628080D01*
X+5703200Y+4668720D01*
X+5754000Y+4628080D02*
X+5779400Y+4587440D01*
X+5830200Y+4668720D02*
X+5855600Y+4709360D01*
X+5855600Y+4587440D01*
X+5500000Y+4087440D02*
X+5500000Y+4209360D01*
X+5538100Y+4148400D01*
X+5576200Y+4209360D01*
X+5576200Y+4087440D01*
X+5601600Y+4067120D02*
X+5677800Y+4067120D01*
X+5715900Y+4209360D02*
X+5766700Y+4209360D01*
X+5741300Y+4209360D02*
X+5741300Y+4087440D01*
X+5715900Y+4087440D02*
X+5766700Y+4087440D01*
X+5804800Y+4087440D02*
X+5804800Y+4209360D01*
X+5855600Y+4209360D01*
X+5881000Y+4168720D01*
X+5881000Y+4128080D01*
X+5855600Y+4087440D01*
X+5804800Y+4087440D01*
X+5906400Y+4209360D02*
X+5982600Y+4087440D01*
X+5906400Y+4087440D02*
X+5982600Y+4209360D01*
X+5507750Y+3595190D02*
X+5507750Y+3717110D01*
X+5545850Y+3656150D01*
X+5583950Y+3717110D01*
X+5583950Y+3595190D01*
X+5609350Y+3574870D02*
X+5685550Y+3574870D01*
X+5710950Y+3676470D02*
X+5736350Y+3717110D01*
X+5761750Y+3717110D01*
X+5787150Y+3676470D01*
X+5787150Y+3635830D01*
X+5761750Y+3595190D01*
X+5736350Y+3595190D01*
X+5710950Y+3635830D01*
X+5710950Y+3676470D01*
X+5761750Y+3635830D02*
X+5787150Y+3595190D01*
X+5825250Y+3696790D02*
X+5837950Y+3717110D01*
X+5876050Y+3717110D01*
X+5888750Y+3696790D01*
X+5888750Y+3676470D01*
X+5876050Y+3656150D01*
X+5837950Y+3656150D01*
X+5825250Y+3635830D01*
X+5825250Y+3595190D01*
X+5888750Y+3595190D01*
X+5116901Y+137084D02*
X+5129601Y+116764D01*
X+5180401Y+116764D01*
X+5193101Y+137084D01*
X+5193101Y+157404D01*
X+5180401Y+177724D01*
X+5129601Y+177724D01*
X+5116901Y+198044D01*
X+5116901Y+218364D01*
X+5129601Y+238684D01*
X+5180401Y+238684D01*
X+5193101Y+218364D01*
X+5218501Y+238684D02*
X+5218501Y+116764D01*
X+5256601Y+177724D01*
X+5294701Y+116764D01*
X+5294701Y+238684D01*
X+5332801Y+238684D02*
X+5383601Y+238684D01*
X+5358201Y+238684D02*
X+5358201Y+116764D01*
X+5332801Y+116764D02*
X+5383601Y+116764D01*
X+5421701Y+238684D02*
X+5497901Y+238684D01*
X+5459801Y+238684D02*
X+5459801Y+116764D01*
X+5599501Y+137084D02*
X+5586801Y+116764D01*
X+5548701Y+116764D01*
X+5523301Y+157404D01*
X+5523301Y+198044D01*
X+5548701Y+238684D01*
X+5586801Y+238684D01*
X+5599501Y+218364D01*
X+5624901Y+116764D02*
X+5624901Y+238684D01*
X+5701101Y+238684D02*
X+5701101Y+116764D01*
X+5624901Y+177724D02*
X+5701101Y+177724D01*
X+5000000Y+2959360D02*
X+5000000Y+2837440D01*
X+5076200Y+2959360D02*
X+5038100Y+2898400D01*
X+5076200Y+2837440D01*
X+5000000Y+2898400D02*
X+5038100Y+2898400D01*
X+5177800Y+2837440D02*
X+5101600Y+2837440D01*
X+5101600Y+2959360D01*
X+5177800Y+2959360D01*
X+5101600Y+2898400D02*
X+5152400Y+2898400D01*
X+5279400Y+2959360D02*
X+5203200Y+2837440D01*
X+5203200Y+2959360D02*
X+5241300Y+2898400D01*
X+5304800Y+2837440D02*
X+5304800Y+2959360D01*
X+5368300Y+2959360D01*
X+5381000Y+2939040D01*
X+5381000Y+2918720D01*
X+5368300Y+2898400D01*
X+5304800Y+2898400D01*
X+5406400Y+2837440D02*
X+5406400Y+2918720D01*
X+5431800Y+2959360D01*
X+5457200Y+2959360D01*
X+5482600Y+2918720D01*
X+5482600Y+2837440D01*
X+5406400Y+2878080D02*
X+5482600Y+2878080D01*
X+5508000Y+2837440D02*
X+5508000Y+2959360D01*
X+5558800Y+2959360D01*
X+5584200Y+2918720D01*
X+5584200Y+2878080D01*
X+5558800Y+2837440D01*
X+5508000Y+2837440D01*
X+1154500Y+1755720D02*
X+1179900Y+1796360D01*
X+1205300Y+1796360D01*
X+1230700Y+1755720D01*
X+1230700Y+1715080D01*
X+1205300Y+1674440D01*
X+1179900Y+1674440D01*
X+1154500Y+1715080D01*
X+1154500Y+1755720D01*
X+1256100Y+1796360D02*
X+1256100Y+1694760D01*
X+1268800Y+1674440D01*
X+1319600Y+1674440D01*
X+1332300Y+1694760D01*
X+1332300Y+1796360D01*
X+1357700Y+1796360D02*
X+1433900Y+1796360D01*
X+1395800Y+1796360D02*
X+1395800Y+1674440D01*
X+1459300Y+1654120D02*
X+1535500Y+1654120D01*
X+1560900Y+1796360D02*
X+1560900Y+1694760D01*
X+1573600Y+1674440D01*
X+1624400Y+1674440D01*
X+1637100Y+1694760D01*
X+1637100Y+1796360D01*
X+1662500Y+1796360D02*
X+1662500Y+1674440D01*
X+1738700Y+1674440D01*
X+1764100Y+1796360D02*
X+1840300Y+1796360D01*
X+1802200Y+1796360D02*
X+1802200Y+1674440D01*
X+1865700Y+1674440D02*
X+1865700Y+1796360D01*
X+1929200Y+1796360D01*
X+1941900Y+1776040D01*
X+1941900Y+1755720D01*
X+1929200Y+1735400D01*
X+1865700Y+1735400D01*
X+1929200Y+1735400D02*
X+1941900Y+1715080D01*
X+1941900Y+1674440D01*
X+1967300Y+1674440D02*
X+1967300Y+1755720D01*
X+1992700Y+1796360D01*
X+2018100Y+1796360D01*
X+2043500Y+1755720D01*
X+2043500Y+1674440D01*
X+1967300Y+1715080D02*
X+2043500Y+1715080D01*
X+1203200Y+794860D02*
X+1254000Y+794860D01*
X+1228600Y+794860D02*
X+1228600Y+672940D01*
X+1203200Y+672940D02*
X+1254000Y+672940D01*
X+1292100Y+672940D02*
X+1292100Y+794860D01*
X+1368300Y+672940D01*
X+1368300Y+794860D01*
X+1393700Y+652620D02*
X+1469900Y+652620D01*
X+1495300Y+794860D02*
X+1495300Y+693260D01*
X+1508000Y+672940D01*
X+1558800Y+672940D01*
X+1571500Y+693260D01*
X+1571500Y+794860D01*
X+1596900Y+794860D02*
X+1596900Y+672940D01*
X+1673100Y+672940D01*
X+1698500Y+794860D02*
X+1774700Y+794860D01*
X+1736600Y+794860D02*
X+1736600Y+672940D01*
X+1800100Y+672940D02*
X+1800100Y+794860D01*
X+1863600Y+794860D01*
X+1876300Y+774540D01*
X+1876300Y+754220D01*
X+1863600Y+733900D01*
X+1800100Y+733900D01*
X+1863600Y+733900D02*
X+1876300Y+713580D01*
X+1876300Y+672940D01*
X+1901700Y+672940D02*
X+1901700Y+754220D01*
X+1927100Y+794860D01*
X+1952500Y+794860D01*
X+1977900Y+754220D01*
X+1977900Y+672940D01*
X+1901700Y+713580D02*
X+1977900Y+713580D01*
X+5500000Y+2337440D02*
X+5500000Y+2459360D01*
X+5550800Y+2459360D01*
X+5576200Y+2418720D01*
X+5576200Y+2378080D01*
X+5550800Y+2337440D01*
X+5500000Y+2337440D01*
X+5601600Y+2337440D02*
X+5601600Y+2459360D01*
X+5665100Y+2459360D01*
X+5677800Y+2439040D01*
X+5677800Y+2418720D01*
X+5665100Y+2398400D01*
X+5601600Y+2398400D01*
X+5665100Y+2398400D02*
X+5677800Y+2378080D01*
X+5677800Y+2337440D01*
X+5715900Y+2459360D02*
X+5766700Y+2459360D01*
X+5741300Y+2459360D02*
X+5741300Y+2337440D01*
X+5715900Y+2337440D02*
X+5766700Y+2337440D01*
X+5804800Y+2459360D02*
X+5804800Y+2398400D01*
X+5842900Y+2337440D01*
X+5881000Y+2398400D01*
X+5881000Y+2459360D01*
X+5982600Y+2337440D02*
X+5906400Y+2337440D01*
X+5906400Y+2459360D01*
X+5982600Y+2459360D01*
X+5906400Y+2398400D02*
X+5957200Y+2398400D01*
X+6008000Y+2337440D02*
X+6008000Y+2459360D01*
X+6071500Y+2459360D01*
X+6084200Y+2439040D01*
X+6084200Y+2418720D01*
X+6071500Y+2398400D01*
X+6008000Y+2398400D01*
X+6071500Y+2398400D02*
X+6084200Y+2378080D01*
X+6084200Y+2337440D01*
X+5500000Y+1710440D02*
X+5500000Y+1832360D01*
X+5538100Y+1771400D01*
X+5576200Y+1832360D01*
X+5576200Y+1710440D01*
X+5601600Y+1791720D02*
X+5627000Y+1832360D01*
X+5652400Y+1832360D01*
X+5677800Y+1791720D01*
X+5677800Y+1751080D01*
X+5652400Y+1710440D01*
X+5627000Y+1710440D01*
X+5601600Y+1751080D01*
X+5601600Y+1791720D01*
X+5703200Y+1832360D02*
X+5779400Y+1832360D01*
X+5741300Y+1832360D02*
X+5741300Y+1710440D01*
X+5804800Y+1791720D02*
X+5830200Y+1832360D01*
X+5855600Y+1832360D01*
X+5881000Y+1791720D01*
X+5881000Y+1751080D01*
X+5855600Y+1710440D01*
X+5830200Y+1710440D01*
X+5804800Y+1751080D01*
X+5804800Y+1791720D01*
X+5906400Y+1710440D02*
X+5906400Y+1832360D01*
X+5969900Y+1832360D01*
X+5982600Y+1812040D01*
X+5982600Y+1791720D01*
X+5969900Y+1771400D01*
X+5906400Y+1771400D01*
X+5969900Y+1771400D02*
X+5982600Y+1751080D01*
X+5982600Y+1710440D01*
X+5980500Y+5626360D02*
X+5980500Y+5504440D01*
X+6056700Y+5504440D01*
X+6158300Y+5524760D02*
X+6145600Y+5504440D01*
X+6107500Y+5504440D01*
X+6082100Y+5545080D01*
X+6082100Y+5585720D01*
X+6107500Y+5626360D01*
X+6145600Y+5626360D01*
X+6158300Y+5606040D01*
X+6183700Y+5504440D02*
X+6183700Y+5626360D01*
X+6234500Y+5626360D01*
X+6259900Y+5585720D01*
X+6259900Y+5545080D01*
X+6234500Y+5504440D01*
X+6183700Y+5504440D01*
X+3621500Y+1562360D02*
X+3621500Y+1440440D01*
X+3697700Y+1440440D01*
X+3799300Y+1440440D02*
X+3723100Y+1440440D01*
X+3723100Y+1562360D01*
X+3799300Y+1562360D01*
X+3723100Y+1501400D02*
X+3773900Y+1501400D01*
X+3824700Y+1440440D02*
X+3824700Y+1562360D01*
X+3875500Y+1562360D01*
X+3900900Y+1521720D01*
X+3900900Y+1481080D01*
X+3875500Y+1440440D01*
X+3824700Y+1440440D01*
M02*
