G04 PROTEUS GERBER X2 FILE*
%TF.GenerationSoftware,Labcenter,Proteus,8.12-SP0-Build30713*%
%TF.CreationDate,2021-08-02T00:20:26+00:00*%
%TF.FileFunction,AssemblyDrawing,Top*%
%TF.FilePolarity,Positive*%
%TF.Part,Single*%
%TF.SameCoordinates,{4cff7d1c-7656-49df-93de-6e2fb68f4e0e}*%
%FSLAX45Y45*%
%MOMM*%
G01*
%TA.AperFunction,Profile*%
%ADD21C,0.203200*%
%TA.AperFunction,Material*%
%ADD25C,0.203200*%
%ADD52C,1.219200*%
%ADD53C,0.229610*%
%ADD54C,0.050000*%
%ADD55C,0.548640*%
%ADD56C,0.196350*%
%ADD72C,0.152400*%
%ADD57C,0.558800*%
%ADD58C,0.199130*%
%ADD59C,0.084660*%
%ADD60C,0.721360*%
%ADD61C,0.110370*%
%ADD62C,0.579120*%
%ADD63C,0.076070*%
%TD.AperFunction*%
D21*
X+0Y+0D02*
X+1650000Y+0D01*
X+7000000Y+0D02*
X+7000000Y+6000000D01*
X+5000000Y+6000000D01*
X+5000000Y+3700000D01*
X+4800000Y+3500000D01*
X+2200000Y+3500000D01*
X+2000000Y+3700000D02*
X+2000000Y+6000000D01*
X+0Y+6000000D01*
X+0Y+0D01*
X+2000000Y+3700000D02*
X+2200000Y+3500000D01*
X+5160000Y+0D02*
X+7000000Y+0D01*
X+1750000Y-200000D02*
X+5050000Y-200000D01*
X+1650000Y+0D02*
X+1750000Y-200000D01*
X+5160000Y+0D02*
X+5050000Y-200000D01*
X+4550045Y+50000D02*
X+4549508Y+63142D01*
X+4545144Y+89427D01*
X+4536029Y+115712D01*
X+4521182Y+141997D01*
X+4498470Y+168118D01*
X+4472185Y+187898D01*
X+4445900Y+200658D01*
X+4419615Y+208108D01*
X+4393330Y+210987D01*
X+4389000Y+211045D01*
X+4227955Y+50000D02*
X+4228492Y+63142D01*
X+4232856Y+89427D01*
X+4241971Y+115712D01*
X+4256818Y+141997D01*
X+4279530Y+168118D01*
X+4305815Y+187898D01*
X+4332100Y+200658D01*
X+4358385Y+208108D01*
X+4384670Y+210987D01*
X+4389000Y+211045D01*
X+4227955Y+50000D02*
X+4228492Y+36858D01*
X+4232856Y+10573D01*
X+4241971Y-15712D01*
X+4256818Y-41997D01*
X+4279530Y-68118D01*
X+4305815Y-87898D01*
X+4332100Y-100658D01*
X+4358385Y-108108D01*
X+4384670Y-110987D01*
X+4389000Y-111045D01*
X+4550045Y+50000D02*
X+4549508Y+36858D01*
X+4545144Y+10573D01*
X+4536029Y-15712D01*
X+4521182Y-41997D01*
X+4498470Y-68118D01*
X+4472185Y-87898D01*
X+4445900Y-100658D01*
X+4419615Y-108108D01*
X+4393330Y-110987D01*
X+4389000Y-111045D01*
X+6074045Y+5130000D02*
X+6073508Y+5143142D01*
X+6069144Y+5169427D01*
X+6060029Y+5195712D01*
X+6045182Y+5221997D01*
X+6022470Y+5248118D01*
X+5996185Y+5267898D01*
X+5969900Y+5280658D01*
X+5943615Y+5288108D01*
X+5917330Y+5290987D01*
X+5913000Y+5291045D01*
X+5751955Y+5130000D02*
X+5752492Y+5143142D01*
X+5756856Y+5169427D01*
X+5765971Y+5195712D01*
X+5780818Y+5221997D01*
X+5803530Y+5248118D01*
X+5829815Y+5267898D01*
X+5856100Y+5280658D01*
X+5882385Y+5288108D01*
X+5908670Y+5290987D01*
X+5913000Y+5291045D01*
X+5751955Y+5130000D02*
X+5752492Y+5116858D01*
X+5756856Y+5090573D01*
X+5765971Y+5064288D01*
X+5780818Y+5038003D01*
X+5803530Y+5011882D01*
X+5829815Y+4992102D01*
X+5856100Y+4979342D01*
X+5882385Y+4971892D01*
X+5908670Y+4969013D01*
X+5913000Y+4968955D01*
X+6074045Y+5130000D02*
X+6073508Y+5116858D01*
X+6069144Y+5090573D01*
X+6060029Y+5064288D01*
X+6045182Y+5038003D01*
X+6022470Y+5011882D01*
X+5996185Y+4992102D01*
X+5969900Y+4979342D01*
X+5943615Y+4971892D01*
X+5917330Y+4969013D01*
X+5913000Y+4968955D01*
X+1248045Y+5257000D02*
X+1247508Y+5270142D01*
X+1243144Y+5296427D01*
X+1234029Y+5322712D01*
X+1219182Y+5348997D01*
X+1196470Y+5375118D01*
X+1170185Y+5394898D01*
X+1143900Y+5407658D01*
X+1117615Y+5415108D01*
X+1091330Y+5417987D01*
X+1087000Y+5418045D01*
X+925955Y+5257000D02*
X+926492Y+5270142D01*
X+930856Y+5296427D01*
X+939971Y+5322712D01*
X+954818Y+5348997D01*
X+977530Y+5375118D01*
X+1003815Y+5394898D01*
X+1030100Y+5407658D01*
X+1056385Y+5415108D01*
X+1082670Y+5417987D01*
X+1087000Y+5418045D01*
X+925955Y+5257000D02*
X+926492Y+5243858D01*
X+930856Y+5217573D01*
X+939971Y+5191288D01*
X+954818Y+5165003D01*
X+977530Y+5138882D01*
X+1003815Y+5119102D01*
X+1030100Y+5106342D01*
X+1056385Y+5098892D01*
X+1082670Y+5096013D01*
X+1087000Y+5095955D01*
X+1248045Y+5257000D02*
X+1247508Y+5243858D01*
X+1243144Y+5217573D01*
X+1234029Y+5191288D01*
X+1219182Y+5165003D01*
X+1196470Y+5138882D01*
X+1170185Y+5119102D01*
X+1143900Y+5106342D01*
X+1117615Y+5098892D01*
X+1091330Y+5096013D01*
X+1087000Y+5095955D01*
D25*
X+985840Y+2608840D02*
X+2022160Y+2608840D01*
X+2022160Y+3391160D01*
X+985840Y+3391160D01*
X+985840Y+2608840D01*
D52*
X+1250000Y+3000000D02*
X+1250000Y+3000000D01*
D53*
X+1689522Y+2793346D02*
X+1712484Y+2793346D01*
X+1735445Y+2819177D01*
X+1735445Y+2922504D01*
X+1712484Y+2948336D01*
X+1597676Y+2948336D01*
X+1643599Y+3051663D02*
X+1597676Y+3103327D01*
X+1735445Y+3103327D01*
D25*
X+2235840Y+2608840D02*
X+3272160Y+2608840D01*
X+3272160Y+3391160D01*
X+2235840Y+3391160D01*
X+2235840Y+2608840D01*
D52*
X+2500000Y+3000000D02*
X+2500000Y+3000000D01*
D53*
X+2939522Y+2793346D02*
X+2962484Y+2793346D01*
X+2985445Y+2819177D01*
X+2985445Y+2922504D01*
X+2962484Y+2948336D01*
X+2847676Y+2948336D01*
X+2870637Y+3154990D02*
X+2847676Y+3129158D01*
X+2847676Y+3051663D01*
X+2870637Y+3025831D01*
X+2962484Y+3025831D01*
X+2985445Y+3051663D01*
X+2985445Y+3129158D01*
X+2962484Y+3154990D01*
X+2939522Y+3154990D01*
X+2916560Y+3129158D01*
X+2916560Y+3025831D01*
D54*
X+5375000Y+2525000D02*
X+4625000Y+2525000D01*
X+4625000Y+1975000D01*
X+5375000Y+1975000D01*
X+5375000Y+2525000D01*
X+5000000Y+2200000D02*
X+5000000Y+2300000D01*
X+4950000Y+2250000D02*
X+5050000Y+2250000D01*
D55*
X+5270000Y+2059500D02*
X+5270000Y+2059500D01*
D56*
X+4755812Y+2308907D02*
X+4755812Y+2210728D01*
X+4777902Y+2191092D01*
X+4866263Y+2191092D01*
X+4888353Y+2210728D01*
X+4888353Y+2308907D01*
X+4976714Y+2269635D02*
X+5020895Y+2308907D01*
X+5020895Y+2191092D01*
D72*
X+4804750Y+644780D02*
X+4804750Y+355220D01*
X+5995250Y+355220D01*
X+5995250Y+644780D01*
X+4804750Y+644780D01*
X+4804750Y+355220D01*
X+5995250Y+355220D01*
X+5995250Y+644780D01*
X+4804750Y+644780D01*
D57*
X+5900000Y+500000D02*
X+5900000Y+500000D01*
D58*
X+5155373Y+480086D02*
X+5155373Y+460172D01*
X+5177775Y+440259D01*
X+5267386Y+440259D01*
X+5289789Y+460172D01*
X+5289789Y+559740D01*
X+5356997Y+539827D02*
X+5379400Y+559740D01*
X+5446608Y+559740D01*
X+5469011Y+539827D01*
X+5469011Y+519913D01*
X+5446608Y+500000D01*
X+5379400Y+500000D01*
X+5356997Y+480086D01*
X+5356997Y+440259D01*
X+5469011Y+440259D01*
D72*
X+4554750Y+1644780D02*
X+4554750Y+1355220D01*
X+5945250Y+1355220D01*
X+5945250Y+1644780D01*
X+4554750Y+1644780D01*
X+4554750Y+1355220D01*
X+5945250Y+1355220D01*
X+5945250Y+1644780D01*
X+4554750Y+1644780D01*
D57*
X+5850000Y+1500000D02*
X+5850000Y+1500000D01*
D58*
X+5005373Y+1480086D02*
X+5005373Y+1460172D01*
X+5027775Y+1440259D01*
X+5117386Y+1440259D01*
X+5139789Y+1460172D01*
X+5139789Y+1559740D01*
X+5206997Y+1559740D02*
X+5319011Y+1559740D01*
X+5319011Y+1539827D01*
X+5206997Y+1440259D01*
D72*
X+4554750Y+3394780D02*
X+4554750Y+3105220D01*
X+5945250Y+3105220D01*
X+5945250Y+3394780D01*
X+4554750Y+3394780D01*
X+4554750Y+3105220D01*
X+5945250Y+3105220D01*
X+5945250Y+3394780D01*
X+4554750Y+3394780D01*
D57*
X+5850000Y+3250000D02*
X+5850000Y+3250000D01*
D58*
X+5005373Y+3230086D02*
X+5005373Y+3210172D01*
X+5027775Y+3190259D01*
X+5117386Y+3190259D01*
X+5139789Y+3210172D01*
X+5139789Y+3309740D01*
X+5206997Y+3289827D02*
X+5229400Y+3309740D01*
X+5296608Y+3309740D01*
X+5319011Y+3289827D01*
X+5319011Y+3269913D01*
X+5296608Y+3250000D01*
X+5319011Y+3230086D01*
X+5319011Y+3210172D01*
X+5296608Y+3190259D01*
X+5229400Y+3190259D01*
X+5206997Y+3210172D01*
X+5251803Y+3250000D02*
X+5296608Y+3250000D01*
D72*
X+1004750Y+1644780D02*
X+1004750Y+1355220D01*
X+1795250Y+1355220D01*
X+1795250Y+1644780D01*
X+1004750Y+1644780D01*
X+1004750Y+1355220D01*
X+1795250Y+1355220D01*
X+1795250Y+1644780D01*
X+1004750Y+1644780D01*
D57*
X+1700000Y+1500000D02*
X+1700000Y+1500000D01*
D58*
X+1155373Y+1480086D02*
X+1155373Y+1460172D01*
X+1177775Y+1440259D01*
X+1267386Y+1440259D01*
X+1289789Y+1460172D01*
X+1289789Y+1559740D01*
X+1469011Y+1480086D02*
X+1334595Y+1480086D01*
X+1424206Y+1559740D01*
X+1424206Y+1440259D01*
D72*
X+1004750Y+644780D02*
X+1004750Y+355220D01*
X+1795250Y+355220D01*
X+1795250Y+644780D01*
X+1004750Y+644780D01*
X+1004750Y+355220D01*
X+1795250Y+355220D01*
X+1795250Y+644780D01*
X+1004750Y+644780D01*
D57*
X+1700000Y+500000D02*
X+1700000Y+500000D01*
D58*
X+1155373Y+480086D02*
X+1155373Y+460172D01*
X+1177775Y+440259D01*
X+1267386Y+440259D01*
X+1289789Y+460172D01*
X+1289789Y+559740D01*
X+1469011Y+559740D02*
X+1356997Y+559740D01*
X+1356997Y+519913D01*
X+1446608Y+519913D01*
X+1469011Y+500000D01*
X+1469011Y+460172D01*
X+1446608Y+440259D01*
X+1379400Y+440259D01*
X+1356997Y+460172D01*
D72*
X+2554750Y+1394780D02*
X+2554750Y+1105220D01*
X+4145250Y+1105220D01*
X+4145250Y+1394780D01*
X+2554750Y+1394780D01*
X+2554750Y+1105220D01*
X+4145250Y+1105220D01*
X+4145250Y+1394780D01*
X+2554750Y+1394780D01*
D57*
X+4050000Y+1250000D02*
X+4050000Y+1250000D01*
D58*
X+3105373Y+1230086D02*
X+3105373Y+1210172D01*
X+3127775Y+1190259D01*
X+3217386Y+1190259D01*
X+3239789Y+1210172D01*
X+3239789Y+1309740D01*
X+3419011Y+1269913D02*
X+3396608Y+1250000D01*
X+3329400Y+1250000D01*
X+3306997Y+1269913D01*
X+3306997Y+1289827D01*
X+3329400Y+1309740D01*
X+3396608Y+1309740D01*
X+3419011Y+1289827D01*
X+3419011Y+1210172D01*
X+3396608Y+1190259D01*
X+3329400Y+1190259D01*
D72*
X+5204750Y+5644780D02*
X+5204750Y+5355220D01*
X+5795250Y+5355220D01*
X+5795250Y+5644780D01*
X+5204750Y+5644780D01*
X+5204750Y+5355220D01*
X+5795250Y+5355220D01*
X+5795250Y+5644780D01*
X+5204750Y+5644780D01*
D57*
X+5700000Y+5500000D02*
X+5700000Y+5500000D01*
D72*
X+5298213Y+5484846D02*
X+5298213Y+5469692D01*
X+5315260Y+5454539D01*
X+5383451Y+5454539D01*
X+5400499Y+5469692D01*
X+5400499Y+5545460D01*
X+5468690Y+5500000D02*
X+5451642Y+5515153D01*
X+5451642Y+5530307D01*
X+5468690Y+5545460D01*
X+5519833Y+5545460D01*
X+5536881Y+5530307D01*
X+5536881Y+5515153D01*
X+5519833Y+5500000D01*
X+5468690Y+5500000D01*
X+5451642Y+5484846D01*
X+5451642Y+5469692D01*
X+5468690Y+5454539D01*
X+5519833Y+5454539D01*
X+5536881Y+5469692D01*
X+5536881Y+5484846D01*
X+5519833Y+5500000D01*
D25*
X+112840Y+5612840D02*
X+387160Y+5612840D01*
X+387160Y+5887160D01*
X+112840Y+5887160D01*
X+112840Y+5612840D01*
D59*
X+135702Y+5741533D02*
X+135702Y+5733066D01*
X+145226Y+5724600D01*
X+183326Y+5724600D01*
X+192851Y+5733066D01*
X+192851Y+5775399D01*
X+230950Y+5758466D02*
X+250000Y+5775399D01*
X+250000Y+5724600D01*
X+288100Y+5733066D02*
X+288100Y+5766933D01*
X+297624Y+5775399D01*
X+335724Y+5775399D01*
X+345249Y+5766933D01*
X+345249Y+5733066D01*
X+335724Y+5724600D01*
X+297624Y+5724600D01*
X+288100Y+5733066D01*
X+288100Y+5724600D02*
X+345249Y+5775399D01*
D25*
X+1112840Y+5612840D02*
X+1387160Y+5612840D01*
X+1387160Y+5887160D01*
X+1112840Y+5887160D01*
X+1112840Y+5612840D01*
D59*
X+1135702Y+5741533D02*
X+1135702Y+5733066D01*
X+1145226Y+5724600D01*
X+1183326Y+5724600D01*
X+1192851Y+5733066D01*
X+1192851Y+5775399D01*
X+1230950Y+5758466D02*
X+1250000Y+5775399D01*
X+1250000Y+5724600D01*
X+1307149Y+5758466D02*
X+1326199Y+5775399D01*
X+1326199Y+5724600D01*
D25*
X+862840Y+4612840D02*
X+1137160Y+4612840D01*
X+1137160Y+4887160D01*
X+862840Y+4887160D01*
X+862840Y+4612840D01*
D59*
X+885702Y+4741533D02*
X+885702Y+4733066D01*
X+895226Y+4724600D01*
X+933326Y+4724600D01*
X+942851Y+4733066D01*
X+942851Y+4775399D01*
X+980950Y+4758466D02*
X+1000000Y+4775399D01*
X+1000000Y+4724600D01*
X+1047624Y+4766933D02*
X+1057149Y+4775399D01*
X+1085724Y+4775399D01*
X+1095249Y+4766933D01*
X+1095249Y+4758466D01*
X+1085724Y+4750000D01*
X+1057149Y+4750000D01*
X+1047624Y+4741533D01*
X+1047624Y+4724600D01*
X+1095249Y+4724600D01*
D25*
X+862840Y+4112840D02*
X+1137160Y+4112840D01*
X+1137160Y+4387160D01*
X+862840Y+4387160D01*
X+862840Y+4112840D01*
D59*
X+885702Y+4241533D02*
X+885702Y+4233066D01*
X+895226Y+4224600D01*
X+933326Y+4224600D01*
X+942851Y+4233066D01*
X+942851Y+4275399D01*
X+980950Y+4258466D02*
X+1000000Y+4275399D01*
X+1000000Y+4224600D01*
X+1047624Y+4266933D02*
X+1057149Y+4275399D01*
X+1085724Y+4275399D01*
X+1095249Y+4266933D01*
X+1095249Y+4258466D01*
X+1085724Y+4250000D01*
X+1095249Y+4241533D01*
X+1095249Y+4233066D01*
X+1085724Y+4224600D01*
X+1057149Y+4224600D01*
X+1047624Y+4233066D01*
X+1066674Y+4250000D02*
X+1085724Y+4250000D01*
D25*
X+2112840Y+1862840D02*
X+2387160Y+1862840D01*
X+2387160Y+2137160D01*
X+2112840Y+2137160D01*
X+2112840Y+1862840D01*
D59*
X+2135702Y+1991533D02*
X+2135702Y+1983066D01*
X+2145226Y+1974600D01*
X+2183326Y+1974600D01*
X+2192851Y+1983066D01*
X+2192851Y+2025399D01*
X+2230950Y+2008466D02*
X+2250000Y+2025399D01*
X+2250000Y+1974600D01*
X+2345249Y+1991533D02*
X+2288100Y+1991533D01*
X+2326199Y+2025399D01*
X+2326199Y+1974600D01*
D25*
X+2112840Y+1362840D02*
X+2387160Y+1362840D01*
X+2387160Y+1637160D01*
X+2112840Y+1637160D01*
X+2112840Y+1362840D01*
D59*
X+2135702Y+1491533D02*
X+2135702Y+1483066D01*
X+2145226Y+1474600D01*
X+2183326Y+1474600D01*
X+2192851Y+1483066D01*
X+2192851Y+1525399D01*
X+2230950Y+1508466D02*
X+2250000Y+1525399D01*
X+2250000Y+1474600D01*
X+2345249Y+1525399D02*
X+2297624Y+1525399D01*
X+2297624Y+1508466D01*
X+2335724Y+1508466D01*
X+2345249Y+1500000D01*
X+2345249Y+1483066D01*
X+2335724Y+1474600D01*
X+2307149Y+1474600D01*
X+2297624Y+1483066D01*
D25*
X+2112840Y+862840D02*
X+2387160Y+862840D01*
X+2387160Y+1137160D01*
X+2112840Y+1137160D01*
X+2112840Y+862840D01*
D59*
X+2135702Y+991533D02*
X+2135702Y+983066D01*
X+2145226Y+974600D01*
X+2183326Y+974600D01*
X+2192851Y+983066D01*
X+2192851Y+1025399D01*
X+2230950Y+1008466D02*
X+2250000Y+1025399D01*
X+2250000Y+974600D01*
X+2345249Y+1016933D02*
X+2335724Y+1025399D01*
X+2307149Y+1025399D01*
X+2297624Y+1016933D01*
X+2297624Y+983066D01*
X+2307149Y+974600D01*
X+2335724Y+974600D01*
X+2345249Y+983066D01*
X+2345249Y+991533D01*
X+2335724Y+1000000D01*
X+2297624Y+1000000D01*
D25*
X+2112840Y+362840D02*
X+2387160Y+362840D01*
X+2387160Y+637160D01*
X+2112840Y+637160D01*
X+2112840Y+362840D01*
D59*
X+2135702Y+491533D02*
X+2135702Y+483066D01*
X+2145226Y+474600D01*
X+2183326Y+474600D01*
X+2192851Y+483066D01*
X+2192851Y+525399D01*
X+2230950Y+508466D02*
X+2250000Y+525399D01*
X+2250000Y+474600D01*
X+2297624Y+525399D02*
X+2345249Y+525399D01*
X+2345249Y+516933D01*
X+2297624Y+474600D01*
D25*
X+4124840Y+2362840D02*
X+4399160Y+2362840D01*
X+4399160Y+2637160D01*
X+4124840Y+2637160D01*
X+4124840Y+2362840D01*
D59*
X+4147702Y+2491533D02*
X+4147702Y+2483066D01*
X+4157226Y+2474600D01*
X+4195326Y+2474600D01*
X+4204851Y+2483066D01*
X+4204851Y+2525399D01*
X+4242950Y+2508466D02*
X+4262000Y+2525399D01*
X+4262000Y+2474600D01*
X+4319149Y+2500000D02*
X+4309624Y+2508466D01*
X+4309624Y+2516933D01*
X+4319149Y+2525399D01*
X+4347724Y+2525399D01*
X+4357249Y+2516933D01*
X+4357249Y+2508466D01*
X+4347724Y+2500000D01*
X+4319149Y+2500000D01*
X+4309624Y+2491533D01*
X+4309624Y+2483066D01*
X+4319149Y+2474600D01*
X+4347724Y+2474600D01*
X+4357249Y+2483066D01*
X+4357249Y+2491533D01*
X+4347724Y+2500000D01*
D25*
X+4112840Y+1862840D02*
X+4387160Y+1862840D01*
X+4387160Y+2137160D01*
X+4112840Y+2137160D01*
X+4112840Y+1862840D01*
D59*
X+4135702Y+1991533D02*
X+4135702Y+1983066D01*
X+4145226Y+1974600D01*
X+4183326Y+1974600D01*
X+4192851Y+1983066D01*
X+4192851Y+2025399D01*
X+4230950Y+2008466D02*
X+4250000Y+2025399D01*
X+4250000Y+1974600D01*
X+4345249Y+2008466D02*
X+4335724Y+2000000D01*
X+4307149Y+2000000D01*
X+4297624Y+2008466D01*
X+4297624Y+2016933D01*
X+4307149Y+2025399D01*
X+4335724Y+2025399D01*
X+4345249Y+2016933D01*
X+4345249Y+1983066D01*
X+4335724Y+1974600D01*
X+4307149Y+1974600D01*
D25*
X+5112840Y+4612840D02*
X+5387160Y+4612840D01*
X+5387160Y+4887160D01*
X+5112840Y+4887160D01*
X+5112840Y+4612840D01*
D59*
X+5135702Y+4741533D02*
X+5135702Y+4733066D01*
X+5145226Y+4724600D01*
X+5183326Y+4724600D01*
X+5192851Y+4733066D01*
X+5192851Y+4775399D01*
X+5221425Y+4766933D02*
X+5230950Y+4775399D01*
X+5259525Y+4775399D01*
X+5269050Y+4766933D01*
X+5269050Y+4758466D01*
X+5259525Y+4750000D01*
X+5230950Y+4750000D01*
X+5221425Y+4741533D01*
X+5221425Y+4724600D01*
X+5269050Y+4724600D01*
X+5288100Y+4733066D02*
X+5288100Y+4766933D01*
X+5297624Y+4775399D01*
X+5335724Y+4775399D01*
X+5345249Y+4766933D01*
X+5345249Y+4733066D01*
X+5335724Y+4724600D01*
X+5297624Y+4724600D01*
X+5288100Y+4733066D01*
X+5288100Y+4724600D02*
X+5345249Y+4775399D01*
D25*
X+5112840Y+4112840D02*
X+5387160Y+4112840D01*
X+5387160Y+4387160D01*
X+5112840Y+4387160D01*
X+5112840Y+4112840D01*
D59*
X+5135702Y+4241533D02*
X+5135702Y+4233066D01*
X+5145226Y+4224600D01*
X+5183326Y+4224600D01*
X+5192851Y+4233066D01*
X+5192851Y+4275399D01*
X+5221425Y+4266933D02*
X+5230950Y+4275399D01*
X+5259525Y+4275399D01*
X+5269050Y+4266933D01*
X+5269050Y+4258466D01*
X+5259525Y+4250000D01*
X+5230950Y+4250000D01*
X+5221425Y+4241533D01*
X+5221425Y+4224600D01*
X+5269050Y+4224600D01*
X+5307149Y+4258466D02*
X+5326199Y+4275399D01*
X+5326199Y+4224600D01*
D25*
X+5112840Y+3612840D02*
X+5387160Y+3612840D01*
X+5387160Y+3887160D01*
X+5112840Y+3887160D01*
X+5112840Y+3612840D01*
D59*
X+5135702Y+3741533D02*
X+5135702Y+3733066D01*
X+5145226Y+3724600D01*
X+5183326Y+3724600D01*
X+5192851Y+3733066D01*
X+5192851Y+3775399D01*
X+5221425Y+3766933D02*
X+5230950Y+3775399D01*
X+5259525Y+3775399D01*
X+5269050Y+3766933D01*
X+5269050Y+3758466D01*
X+5259525Y+3750000D01*
X+5230950Y+3750000D01*
X+5221425Y+3741533D01*
X+5221425Y+3724600D01*
X+5269050Y+3724600D01*
X+5297624Y+3766933D02*
X+5307149Y+3775399D01*
X+5335724Y+3775399D01*
X+5345249Y+3766933D01*
X+5345249Y+3758466D01*
X+5335724Y+3750000D01*
X+5307149Y+3750000D01*
X+5297624Y+3741533D01*
X+5297624Y+3724600D01*
X+5345249Y+3724600D01*
D54*
X+1415000Y+4135000D02*
X+1885000Y+4135000D01*
X+1885000Y+4365000D01*
X+1415000Y+4365000D01*
X+1415000Y+4135000D01*
X+1650000Y+4300000D02*
X+1650000Y+4200000D01*
X+1700000Y+4250000D02*
X+1600000Y+4250000D01*
D60*
X+1500000Y+4250000D02*
X+1500000Y+4250000D01*
D61*
X+1686950Y+4227926D02*
X+1674534Y+4216889D01*
X+1637284Y+4216889D01*
X+1612451Y+4238963D01*
X+1612451Y+4261037D01*
X+1637284Y+4283111D01*
X+1674534Y+4283111D01*
X+1686950Y+4272074D01*
X+1736617Y+4261037D02*
X+1761450Y+4283111D01*
X+1761450Y+4216889D01*
D54*
X+915000Y+3635000D02*
X+1385000Y+3635000D01*
X+1385000Y+3865000D01*
X+915000Y+3865000D01*
X+915000Y+3635000D01*
X+1150000Y+3800000D02*
X+1150000Y+3700000D01*
X+1200000Y+3750000D02*
X+1100000Y+3750000D01*
D60*
X+1000000Y+3750000D02*
X+1000000Y+3750000D01*
D61*
X+1186950Y+3727926D02*
X+1174534Y+3716889D01*
X+1137284Y+3716889D01*
X+1112451Y+3738963D01*
X+1112451Y+3761037D01*
X+1137284Y+3783111D01*
X+1174534Y+3783111D01*
X+1186950Y+3772074D01*
X+1224200Y+3772074D02*
X+1236617Y+3783111D01*
X+1273867Y+3783111D01*
X+1286283Y+3772074D01*
X+1286283Y+3761037D01*
X+1273867Y+3750000D01*
X+1236617Y+3750000D01*
X+1224200Y+3738963D01*
X+1224200Y+3716889D01*
X+1286283Y+3716889D01*
D54*
X+1415000Y+3635000D02*
X+1885000Y+3635000D01*
X+1885000Y+3865000D01*
X+1415000Y+3865000D01*
X+1415000Y+3635000D01*
X+1650000Y+3800000D02*
X+1650000Y+3700000D01*
X+1700000Y+3750000D02*
X+1600000Y+3750000D01*
D60*
X+1500000Y+3750000D02*
X+1500000Y+3750000D01*
D61*
X+1686950Y+3727926D02*
X+1674534Y+3716889D01*
X+1637284Y+3716889D01*
X+1612451Y+3738963D01*
X+1612451Y+3761037D01*
X+1637284Y+3783111D01*
X+1674534Y+3783111D01*
X+1686950Y+3772074D01*
X+1724200Y+3772074D02*
X+1736617Y+3783111D01*
X+1773867Y+3783111D01*
X+1786283Y+3772074D01*
X+1786283Y+3761037D01*
X+1773867Y+3750000D01*
X+1786283Y+3738963D01*
X+1786283Y+3727926D01*
X+1773867Y+3716889D01*
X+1736617Y+3716889D01*
X+1724200Y+3727926D01*
X+1749033Y+3750000D02*
X+1773867Y+3750000D01*
D54*
X+975000Y+900000D02*
X+1325000Y+900000D01*
X+1325000Y+1100000D01*
X+975000Y+1100000D01*
X+975000Y+900000D01*
X+1150000Y+1050000D02*
X+1150000Y+950000D01*
X+1200000Y+1000000D02*
X+1100000Y+1000000D01*
D62*
X+1050000Y+1000000D02*
X+1050000Y+1000000D01*
D63*
X+1100529Y+977177D02*
X+1100529Y+1022822D01*
X+1143320Y+1022822D01*
X+1151878Y+1015214D01*
X+1151878Y+1007607D01*
X+1143320Y+1000000D01*
X+1100529Y+1000000D01*
X+1143320Y+1000000D02*
X+1151878Y+992392D01*
X+1151878Y+977177D01*
X+1186111Y+1007607D02*
X+1203228Y+1022822D01*
X+1203228Y+977177D01*
X+1288810Y+992392D02*
X+1237461Y+992392D01*
X+1271694Y+1022822D01*
X+1271694Y+977177D01*
D54*
X+1425000Y+900000D02*
X+1775000Y+900000D01*
X+1775000Y+1100000D01*
X+1425000Y+1100000D01*
X+1425000Y+900000D01*
X+1600000Y+1050000D02*
X+1600000Y+950000D01*
X+1650000Y+1000000D02*
X+1550000Y+1000000D01*
D62*
X+1500000Y+1000000D02*
X+1500000Y+1000000D01*
D63*
X+1550529Y+977177D02*
X+1550529Y+1022822D01*
X+1593320Y+1022822D01*
X+1601878Y+1015214D01*
X+1601878Y+1007607D01*
X+1593320Y+1000000D01*
X+1550529Y+1000000D01*
X+1593320Y+1000000D02*
X+1601878Y+992392D01*
X+1601878Y+977177D01*
X+1636111Y+1007607D02*
X+1653228Y+1022822D01*
X+1653228Y+977177D01*
X+1738810Y+1022822D02*
X+1696019Y+1022822D01*
X+1696019Y+1007607D01*
X+1730252Y+1007607D01*
X+1738810Y+1000000D01*
X+1738810Y+984785D01*
X+1730252Y+977177D01*
X+1704577Y+977177D01*
X+1696019Y+984785D01*
D54*
X+3415500Y+2900000D02*
X+3765500Y+2900000D01*
X+3765500Y+3100000D01*
X+3415500Y+3100000D01*
X+3415500Y+2900000D01*
X+3590500Y+3050000D02*
X+3590500Y+2950000D01*
X+3640500Y+3000000D02*
X+3540500Y+3000000D01*
D62*
X+3490500Y+3000000D02*
X+3490500Y+3000000D01*
D63*
X+3541029Y+2977177D02*
X+3541029Y+3022822D01*
X+3583820Y+3022822D01*
X+3592378Y+3015214D01*
X+3592378Y+3007607D01*
X+3583820Y+3000000D01*
X+3541029Y+3000000D01*
X+3583820Y+3000000D02*
X+3592378Y+2992392D01*
X+3592378Y+2977177D01*
X+3618053Y+3015214D02*
X+3626611Y+3022822D01*
X+3652286Y+3022822D01*
X+3660844Y+3015214D01*
X+3660844Y+3007607D01*
X+3652286Y+3000000D01*
X+3626611Y+3000000D01*
X+3618053Y+2992392D01*
X+3618053Y+2977177D01*
X+3660844Y+2977177D01*
X+3695077Y+3007607D02*
X+3712194Y+3022822D01*
X+3712194Y+2977177D01*
D54*
X+975000Y+1900000D02*
X+1325000Y+1900000D01*
X+1325000Y+2100000D01*
X+975000Y+2100000D01*
X+975000Y+1900000D01*
X+1150000Y+2050000D02*
X+1150000Y+1950000D01*
X+1200000Y+2000000D02*
X+1100000Y+2000000D01*
D62*
X+1050000Y+2000000D02*
X+1050000Y+2000000D01*
D63*
X+1100529Y+1977177D02*
X+1100529Y+2022822D01*
X+1143320Y+2022822D01*
X+1151878Y+2015214D01*
X+1151878Y+2007607D01*
X+1143320Y+2000000D01*
X+1100529Y+2000000D01*
X+1143320Y+2000000D02*
X+1151878Y+1992392D01*
X+1151878Y+1977177D01*
X+1186111Y+2007607D02*
X+1203228Y+2022822D01*
X+1203228Y+1977177D01*
X+1237461Y+1984785D02*
X+1237461Y+2015214D01*
X+1246019Y+2022822D01*
X+1280252Y+2022822D01*
X+1288810Y+2015214D01*
X+1288810Y+1984785D01*
X+1280252Y+1977177D01*
X+1246019Y+1977177D01*
X+1237461Y+1984785D01*
X+1237461Y+1977177D02*
X+1288810Y+2022822D01*
D54*
X+1475000Y+1900000D02*
X+1825000Y+1900000D01*
X+1825000Y+2100000D01*
X+1475000Y+2100000D01*
X+1475000Y+1900000D01*
X+1650000Y+2050000D02*
X+1650000Y+1950000D01*
X+1700000Y+2000000D02*
X+1600000Y+2000000D01*
D62*
X+1550000Y+2000000D02*
X+1550000Y+2000000D01*
D63*
X+1600529Y+1977177D02*
X+1600529Y+2022822D01*
X+1643320Y+2022822D01*
X+1651878Y+2015214D01*
X+1651878Y+2007607D01*
X+1643320Y+2000000D01*
X+1600529Y+2000000D01*
X+1643320Y+2000000D02*
X+1651878Y+1992392D01*
X+1651878Y+1977177D01*
X+1686111Y+2007607D02*
X+1703228Y+2022822D01*
X+1703228Y+1977177D01*
X+1754577Y+2007607D02*
X+1771694Y+2022822D01*
X+1771694Y+1977177D01*
M02*
