G04 PROTEUS GERBER X2 FILE*
%TF.GenerationSoftware,Labcenter,Proteus,8.12-SP0-Build30713*%
%TF.CreationDate,2021-08-02T00:20:26+00:00*%
%TF.FileFunction,Soldermask,Bot*%
%TF.FilePolarity,Negative*%
%TF.Part,Single*%
%TF.SameCoordinates,{4cff7d1c-7656-49df-93de-6e2fb68f4e0e}*%
%FSLAX45Y45*%
%MOMM*%
G01*
%TA.AperFunction,Material*%
%ADD73C,1.270000*%
%ADD30C,0.812800*%
%TA.AperFunction,Material*%
%ADD32C,1.778000*%
%TA.AperFunction,Material*%
%ADD33C,3.302000*%
%TA.AperFunction,Material*%
%ADD36C,1.651000*%
%TA.AperFunction,Material*%
%ADD37C,2.286000*%
%AMPPAD034*
4,1,4,
0.469900,0.723900,
-0.469900,0.723900,
-0.469900,-0.723900,
0.469900,-0.723900,
0.469900,0.723900,
0*%
%TA.AperFunction,Material*%
%ADD40PPAD034*%
%AMPPAD035*
4,1,36,
-0.444500,-0.635000,
0.444500,-0.635000,
0.470470,-0.632470,
0.494480,-0.625200,
0.516080,-0.613650,
0.534790,-0.598290,
0.550150,-0.579570,
0.561700,-0.557980,
0.568970,-0.533970,
0.571500,-0.508000,
0.571500,0.508000,
0.568970,0.533970,
0.561700,0.557980,
0.550150,0.579570,
0.534790,0.598290,
0.516080,0.613650,
0.494480,0.625200,
0.470470,0.632470,
0.444500,0.635000,
-0.444500,0.635000,
-0.470470,0.632470,
-0.494480,0.625200,
-0.516080,0.613650,
-0.534790,0.598290,
-0.550150,0.579570,
-0.561700,0.557980,
-0.568970,0.533970,
-0.571500,0.508000,
-0.571500,-0.508000,
-0.568970,-0.533970,
-0.561700,-0.557980,
-0.550150,-0.579570,
-0.534790,-0.598290,
-0.516080,-0.613650,
-0.494480,-0.625200,
-0.470470,-0.632470,
-0.444500,-0.635000,
0*%
%TA.AperFunction,Material*%
%ADD41PPAD035*%
%AMPPAD036*
4,1,4,
0.304800,-0.304800,
0.304800,0.304800,
-0.304800,0.304800,
-0.304800,-0.304800,
0.304800,-0.304800,
0*%
%TA.AperFunction,Material*%
%ADD42PPAD036*%
%AMPPAD037*
4,1,4,
0.279400,0.304800,
-0.279400,0.304800,
-0.279400,-0.304800,
0.279400,-0.304800,
0.279400,0.304800,
0*%
%ADD43PPAD037*%
%TA.AperFunction,Profile*%
%ADD21C,0.203200*%
%TD.AperFunction*%
D73*
X+3627000Y+2809500D03*
X+1150500Y+3635000D03*
X+4008000Y+333000D03*
X+2992000Y+333000D03*
X+5341500Y+3508000D03*
X+960000Y+2809500D03*
X+3500000Y+1666500D03*
X+3373000Y+2047500D03*
X+3309500Y+2873000D03*
X+1150500Y+2746000D03*
D30*
X+5532000Y+2428500D03*
D73*
X+6167000Y+1095000D03*
X+5087500Y+142500D03*
X+4897000Y+2746000D03*
X+5405000Y+2746000D03*
X+4071500Y+2301500D03*
X+1468000Y+4016000D03*
X+1531500Y+841000D03*
X+4389000Y+3127000D03*
X+1404500Y+1920500D03*
X+4389000Y+2809500D03*
D30*
X+1341000Y+650500D03*
X+1531500Y+714000D03*
X+1912500Y+777500D03*
X+1341000Y+1222000D03*
X+3690500Y+460000D03*
X+3627000Y+396500D03*
X+3627000Y+1095000D03*
X+3309500Y+333000D03*
X+2674500Y+650500D03*
X+2674500Y+1095000D03*
X+5151000Y+3063500D03*
X+5849500Y+3063500D03*
X+5976500Y+3317500D03*
X+5532000Y+4524000D03*
X+6040000Y+2555500D03*
X+1531500Y+2428500D03*
X+2738000Y+2428500D03*
X+3055500Y+1476000D03*
X+6103500Y+2428500D03*
X+6167000Y+2555500D03*
X+4833500Y+1984000D03*
X+2801500Y+460000D03*
X+6548000Y+3127000D03*
X+4071500Y+968000D03*
X+4770000Y+523500D03*
X+5024000Y+650500D03*
X+4135000Y+587000D03*
X+5151000Y+1857000D03*
X+6167000Y+1349000D03*
X+6230500Y+3000000D03*
X+3182500Y+650500D03*
X+2547500Y+1031500D03*
X+3436500Y+3127000D03*
X+3500000Y+587000D03*
D73*
X+5532000Y+3952500D03*
D30*
X+452000Y+968000D03*
X+3182500Y+3190500D03*
X+6230500Y+1920500D03*
X+6103500Y+1920500D03*
X+5976500Y+1285500D03*
X+2103000Y-48000D03*
D73*
X+5341901Y+254324D03*
X+4903782Y+254324D03*
D32*
X+641000Y+4876000D03*
X+260000Y+4622000D03*
X+641000Y+4622000D03*
X+260000Y+4368000D03*
X+641000Y+4368000D03*
X+260000Y+4114000D03*
X+641000Y+4114000D03*
X+260000Y+3860000D03*
X+641000Y+3860000D03*
X+260000Y+3606000D03*
X+641000Y+3606000D03*
X+260000Y+3352000D03*
X+641000Y+3352000D03*
X+260000Y+3098000D03*
X+641000Y+3098000D03*
X+260000Y+2844000D03*
X+641000Y+2844000D03*
X+260000Y+2590000D03*
X+641000Y+2590000D03*
X+260000Y+2336000D03*
X+641000Y+2336000D03*
X+260000Y+2082000D03*
X+641000Y+2082000D03*
X+260000Y+1828000D03*
X+641000Y+1828000D03*
X+260000Y+1574000D03*
X+641000Y+1574000D03*
X+260000Y+1320000D03*
X+641000Y+1320000D03*
X+260000Y+1066000D03*
X+641000Y+1066000D03*
X+260000Y+812000D03*
X+641000Y+812000D03*
X+260000Y+558000D03*
X+641000Y+558000D03*
X+260000Y+304000D03*
X+641000Y+304000D03*
X+6737000Y+4880000D03*
X+6356000Y+4626000D03*
X+6737000Y+4626000D03*
X+6356000Y+4372000D03*
X+6737000Y+4372000D03*
X+6356000Y+4118000D03*
X+6737000Y+4118000D03*
X+6356000Y+3864000D03*
X+6737000Y+3864000D03*
X+6356000Y+3610000D03*
X+6737000Y+3610000D03*
X+6356000Y+3356000D03*
X+6737000Y+3356000D03*
X+6356000Y+3102000D03*
X+6737000Y+3102000D03*
X+6356000Y+2848000D03*
X+6737000Y+2848000D03*
X+6356000Y+2594000D03*
X+6737000Y+2594000D03*
X+6356000Y+2340000D03*
X+6737000Y+2340000D03*
X+6356000Y+2086000D03*
X+6737000Y+2086000D03*
X+6356000Y+1832000D03*
X+6737000Y+1832000D03*
X+6356000Y+1578000D03*
X+6737000Y+1578000D03*
X+6356000Y+1324000D03*
X+6737000Y+1324000D03*
X+6356000Y+1070000D03*
X+6737000Y+1070000D03*
X+6356000Y+816000D03*
X+6737000Y+816000D03*
X+6356000Y+562000D03*
X+6737000Y+562000D03*
X+6356000Y+308000D03*
X+6737000Y+308000D03*
D33*
X+1250000Y+3000000D03*
X+1750380Y+3000000D03*
X+2500000Y+3000000D03*
X+3000380Y+3000000D03*
D36*
X+5900000Y+500000D03*
X+5700000Y+500000D03*
X+5500000Y+500000D03*
X+5300000Y+500000D03*
X+5100000Y+500000D03*
X+4900000Y+500000D03*
X+5850000Y+1500000D03*
X+5650000Y+1500000D03*
X+5450000Y+1500000D03*
X+5250000Y+1500000D03*
X+5050000Y+1500000D03*
X+4850000Y+1500000D03*
X+4650000Y+1500000D03*
X+5850000Y+3250000D03*
X+5650000Y+3250000D03*
X+5450000Y+3250000D03*
X+5250000Y+3250000D03*
X+5050000Y+3250000D03*
X+4850000Y+3250000D03*
X+4650000Y+3250000D03*
X+1700000Y+1500000D03*
X+1500000Y+1500000D03*
X+1300000Y+1500000D03*
X+1100000Y+1500000D03*
X+1700000Y+500000D03*
X+1500000Y+500000D03*
X+1300000Y+500000D03*
X+1100000Y+500000D03*
X+4050000Y+1250000D03*
X+3850000Y+1250000D03*
X+3650000Y+1250000D03*
X+3450000Y+1250000D03*
X+3250000Y+1250000D03*
X+3050000Y+1250000D03*
X+2850000Y+1250000D03*
X+2650000Y+1250000D03*
X+5700000Y+5500000D03*
X+5500000Y+5500000D03*
X+5300000Y+5500000D03*
D37*
X+250000Y+5750000D03*
X+1250000Y+5750000D03*
X+1000000Y+4750000D03*
X+1000000Y+4250000D03*
X+2250000Y+2000000D03*
X+2250000Y+1500000D03*
X+2250000Y+1000000D03*
X+2250000Y+500000D03*
X+4262000Y+2500000D03*
X+4250000Y+2000000D03*
D40*
X+4450000Y+1000000D03*
X+4250000Y+1000000D03*
X+4450000Y+750000D03*
X+4250000Y+750000D03*
X+4450000Y+500000D03*
X+4250000Y+500000D03*
X+4750000Y+2750000D03*
X+4550000Y+2750000D03*
X+5250000Y+2750000D03*
X+5050000Y+2750000D03*
X+4250000Y+3250000D03*
X+4050000Y+3250000D03*
X+4250000Y+2750000D03*
X+4050000Y+2750000D03*
X+1250000Y+2250000D03*
X+1050000Y+2250000D03*
X+1750000Y+2250000D03*
X+1550000Y+2250000D03*
X+1250000Y+1250000D03*
X+1050000Y+1250000D03*
X+1750000Y+1250000D03*
X+1550000Y+1250000D03*
D41*
X+2750000Y+2250000D03*
X+2843980Y+2059500D03*
X+2656020Y+2059500D03*
X+2750000Y+1750000D03*
X+2843980Y+1559500D03*
X+2656020Y+1559500D03*
X+1906020Y+190500D03*
X+2000000Y+0D03*
X+1812040Y+0D03*
X+2343980Y+190500D03*
X+2437960Y+0D03*
X+2250000Y+0D03*
D42*
X+5000000Y+0D03*
X+4910000Y+0D03*
X+2000000Y+1500000D03*
X+1910000Y+1500000D03*
X+2000000Y+1250000D03*
X+1910000Y+1250000D03*
X+1500000Y+250000D03*
X+1410000Y+250000D03*
X+1250000Y+250000D03*
X+1160000Y+250000D03*
D40*
X+5750000Y+2250000D03*
X+5550000Y+2250000D03*
X+5750000Y+1750000D03*
X+5550000Y+1750000D03*
X+5000000Y+1000000D03*
X+4800000Y+1000000D03*
X+5500000Y+1000000D03*
X+5300000Y+1000000D03*
X+6000000Y+1000000D03*
X+5800000Y+1000000D03*
D42*
X+4160000Y+1750000D03*
X+4070000Y+1750000D03*
X+5750000Y+3500000D03*
X+5660000Y+3500000D03*
D41*
X+2656020Y+940500D03*
X+2750000Y+750000D03*
X+2562040Y+750000D03*
X+3156020Y+940500D03*
X+3250000Y+750000D03*
X+3062040Y+750000D03*
X+3656020Y+940500D03*
X+3750000Y+750000D03*
X+3562040Y+750000D03*
X+2656020Y+440500D03*
X+2750000Y+250000D03*
X+2562040Y+250000D03*
D40*
X+4500000Y+1500000D03*
X+4300000Y+1500000D03*
D43*
X+3250000Y+250000D03*
X+3150000Y+250000D03*
X+3750000Y+250000D03*
X+3650000Y+250000D03*
X+3250000Y+0D03*
X+3150000Y+0D03*
X+3750000Y+0D03*
X+3650000Y+0D03*
D42*
X+3000000Y+0D03*
X+2910000Y+0D03*
D37*
X+5250000Y+4750000D03*
X+5250000Y+4250000D03*
X+5250000Y+3750000D03*
D42*
X+3750000Y+1500000D03*
X+3660000Y+1500000D03*
D21*
X+0Y+0D02*
X+1650000Y+0D01*
X+7000000Y+0D02*
X+7000000Y+6000000D01*
X+5000000Y+6000000D01*
X+5000000Y+3700000D01*
X+4800000Y+3500000D01*
X+2200000Y+3500000D01*
X+2000000Y+3700000D02*
X+2000000Y+6000000D01*
X+0Y+6000000D01*
X+0Y+0D01*
X+2000000Y+3700000D02*
X+2200000Y+3500000D01*
X+5160000Y+0D02*
X+7000000Y+0D01*
X+1750000Y-200000D02*
X+5050000Y-200000D01*
X+1650000Y+0D02*
X+1750000Y-200000D01*
X+5160000Y+0D02*
X+5050000Y-200000D01*
X+4550045Y+50000D02*
X+4549508Y+63142D01*
X+4545144Y+89427D01*
X+4536029Y+115712D01*
X+4521182Y+141997D01*
X+4498470Y+168118D01*
X+4472185Y+187898D01*
X+4445900Y+200658D01*
X+4419615Y+208108D01*
X+4393330Y+210987D01*
X+4389000Y+211045D01*
X+4227955Y+50000D02*
X+4228492Y+63142D01*
X+4232856Y+89427D01*
X+4241971Y+115712D01*
X+4256818Y+141997D01*
X+4279530Y+168118D01*
X+4305815Y+187898D01*
X+4332100Y+200658D01*
X+4358385Y+208108D01*
X+4384670Y+210987D01*
X+4389000Y+211045D01*
X+4227955Y+50000D02*
X+4228492Y+36858D01*
X+4232856Y+10573D01*
X+4241971Y-15712D01*
X+4256818Y-41997D01*
X+4279530Y-68118D01*
X+4305815Y-87898D01*
X+4332100Y-100658D01*
X+4358385Y-108108D01*
X+4384670Y-110987D01*
X+4389000Y-111045D01*
X+4550045Y+50000D02*
X+4549508Y+36858D01*
X+4545144Y+10573D01*
X+4536029Y-15712D01*
X+4521182Y-41997D01*
X+4498470Y-68118D01*
X+4472185Y-87898D01*
X+4445900Y-100658D01*
X+4419615Y-108108D01*
X+4393330Y-110987D01*
X+4389000Y-111045D01*
X+6074045Y+5130000D02*
X+6073508Y+5143142D01*
X+6069144Y+5169427D01*
X+6060029Y+5195712D01*
X+6045182Y+5221997D01*
X+6022470Y+5248118D01*
X+5996185Y+5267898D01*
X+5969900Y+5280658D01*
X+5943615Y+5288108D01*
X+5917330Y+5290987D01*
X+5913000Y+5291045D01*
X+5751955Y+5130000D02*
X+5752492Y+5143142D01*
X+5756856Y+5169427D01*
X+5765971Y+5195712D01*
X+5780818Y+5221997D01*
X+5803530Y+5248118D01*
X+5829815Y+5267898D01*
X+5856100Y+5280658D01*
X+5882385Y+5288108D01*
X+5908670Y+5290987D01*
X+5913000Y+5291045D01*
X+5751955Y+5130000D02*
X+5752492Y+5116858D01*
X+5756856Y+5090573D01*
X+5765971Y+5064288D01*
X+5780818Y+5038003D01*
X+5803530Y+5011882D01*
X+5829815Y+4992102D01*
X+5856100Y+4979342D01*
X+5882385Y+4971892D01*
X+5908670Y+4969013D01*
X+5913000Y+4968955D01*
X+6074045Y+5130000D02*
X+6073508Y+5116858D01*
X+6069144Y+5090573D01*
X+6060029Y+5064288D01*
X+6045182Y+5038003D01*
X+6022470Y+5011882D01*
X+5996185Y+4992102D01*
X+5969900Y+4979342D01*
X+5943615Y+4971892D01*
X+5917330Y+4969013D01*
X+5913000Y+4968955D01*
X+1248045Y+5257000D02*
X+1247508Y+5270142D01*
X+1243144Y+5296427D01*
X+1234029Y+5322712D01*
X+1219182Y+5348997D01*
X+1196470Y+5375118D01*
X+1170185Y+5394898D01*
X+1143900Y+5407658D01*
X+1117615Y+5415108D01*
X+1091330Y+5417987D01*
X+1087000Y+5418045D01*
X+925955Y+5257000D02*
X+926492Y+5270142D01*
X+930856Y+5296427D01*
X+939971Y+5322712D01*
X+954818Y+5348997D01*
X+977530Y+5375118D01*
X+1003815Y+5394898D01*
X+1030100Y+5407658D01*
X+1056385Y+5415108D01*
X+1082670Y+5417987D01*
X+1087000Y+5418045D01*
X+925955Y+5257000D02*
X+926492Y+5243858D01*
X+930856Y+5217573D01*
X+939971Y+5191288D01*
X+954818Y+5165003D01*
X+977530Y+5138882D01*
X+1003815Y+5119102D01*
X+1030100Y+5106342D01*
X+1056385Y+5098892D01*
X+1082670Y+5096013D01*
X+1087000Y+5095955D01*
X+1248045Y+5257000D02*
X+1247508Y+5243858D01*
X+1243144Y+5217573D01*
X+1234029Y+5191288D01*
X+1219182Y+5165003D01*
X+1196470Y+5138882D01*
X+1170185Y+5119102D01*
X+1143900Y+5106342D01*
X+1117615Y+5098892D01*
X+1091330Y+5096013D01*
X+1087000Y+5095955D01*
M02*
