G04 PROTEUS GERBER X2 FILE*
%TF.GenerationSoftware,Labcenter,Proteus,8.12-SP0-Build30713*%
%TF.CreationDate,2021-08-02T00:20:26+00:00*%
%TF.FileFunction,Plated,1,2,PTH*%
%TF.FilePolarity,Positive*%
%TF.Part,Single*%
%TF.SameCoordinates,{4cff7d1c-7656-49df-93de-6e2fb68f4e0e}*%
%FSLAX45Y45*%
%MOMM*%
G01*
%TA.AperFunction,ViaDrill*%
%ADD75C,0.381000*%
%ADD76C,0.254000*%
%TA.AperFunction,ComponentDrill*%
%ADD77C,0.762000*%
%ADD78C,0.889000*%
%TA.AperFunction,ComponentDrill*%
%ADD79C,1.524000*%
%TA.AperFunction,ComponentDrill*%
%ADD80C,0.812800*%
%TD.AperFunction*%
D75*
X+3627000Y+2809500D03*
X+1150500Y+3635000D03*
X+4008000Y+333000D03*
X+2992000Y+333000D03*
X+5341500Y+3508000D03*
X+960000Y+2809500D03*
X+3500000Y+1666500D03*
X+3373000Y+2047500D03*
X+3309500Y+2873000D03*
X+1150500Y+2746000D03*
D76*
X+5532000Y+2428500D03*
D75*
X+6167000Y+1095000D03*
X+5087500Y+142500D03*
X+4897000Y+2746000D03*
X+5405000Y+2746000D03*
X+4071500Y+2301500D03*
X+1468000Y+4016000D03*
X+1531500Y+841000D03*
X+4389000Y+3127000D03*
X+1404500Y+1920500D03*
X+4389000Y+2809500D03*
D76*
X+1341000Y+650500D03*
X+1531500Y+714000D03*
X+1912500Y+777500D03*
X+1341000Y+1222000D03*
X+3690500Y+460000D03*
X+3627000Y+396500D03*
X+3627000Y+1095000D03*
X+3309500Y+333000D03*
X+2674500Y+650500D03*
X+2674500Y+1095000D03*
X+5151000Y+3063500D03*
X+5849500Y+3063500D03*
X+5976500Y+3317500D03*
X+5532000Y+4524000D03*
X+6040000Y+2555500D03*
X+1531500Y+2428500D03*
X+2738000Y+2428500D03*
X+3055500Y+1476000D03*
X+6103500Y+2428500D03*
X+6167000Y+2555500D03*
X+4833500Y+1984000D03*
X+2801500Y+460000D03*
X+6548000Y+3127000D03*
X+4071500Y+968000D03*
X+4770000Y+523500D03*
X+5024000Y+650500D03*
X+4135000Y+587000D03*
X+5151000Y+1857000D03*
X+6167000Y+1349000D03*
X+6230500Y+3000000D03*
X+3182500Y+650500D03*
X+2547500Y+1031500D03*
X+3436500Y+3127000D03*
X+3500000Y+587000D03*
D75*
X+5532000Y+3952500D03*
D76*
X+452000Y+968000D03*
X+3182500Y+3190500D03*
X+6230500Y+1920500D03*
X+6103500Y+1920500D03*
X+5976500Y+1285500D03*
X+2103000Y-48000D03*
D75*
X+5341901Y+254324D03*
X+4903782Y+254324D03*
D77*
X+260000Y+4876000D03*
D78*
X+641000Y+4876000D03*
X+260000Y+4622000D03*
X+641000Y+4622000D03*
X+260000Y+4368000D03*
X+641000Y+4368000D03*
X+260000Y+4114000D03*
X+641000Y+4114000D03*
X+260000Y+3860000D03*
X+641000Y+3860000D03*
X+260000Y+3606000D03*
X+641000Y+3606000D03*
X+260000Y+3352000D03*
X+641000Y+3352000D03*
X+260000Y+3098000D03*
X+641000Y+3098000D03*
X+260000Y+2844000D03*
X+641000Y+2844000D03*
X+260000Y+2590000D03*
X+641000Y+2590000D03*
X+260000Y+2336000D03*
X+641000Y+2336000D03*
X+260000Y+2082000D03*
X+641000Y+2082000D03*
X+260000Y+1828000D03*
X+641000Y+1828000D03*
X+260000Y+1574000D03*
X+641000Y+1574000D03*
X+260000Y+1320000D03*
X+641000Y+1320000D03*
X+260000Y+1066000D03*
X+641000Y+1066000D03*
X+260000Y+812000D03*
X+641000Y+812000D03*
X+260000Y+558000D03*
X+641000Y+558000D03*
X+260000Y+304000D03*
X+641000Y+304000D03*
D77*
X+6356000Y+4880000D03*
D78*
X+6737000Y+4880000D03*
X+6356000Y+4626000D03*
X+6737000Y+4626000D03*
X+6356000Y+4372000D03*
X+6737000Y+4372000D03*
X+6356000Y+4118000D03*
X+6737000Y+4118000D03*
X+6356000Y+3864000D03*
X+6737000Y+3864000D03*
X+6356000Y+3610000D03*
X+6737000Y+3610000D03*
X+6356000Y+3356000D03*
X+6737000Y+3356000D03*
X+6356000Y+3102000D03*
X+6737000Y+3102000D03*
X+6356000Y+2848000D03*
X+6737000Y+2848000D03*
X+6356000Y+2594000D03*
X+6737000Y+2594000D03*
X+6356000Y+2340000D03*
X+6737000Y+2340000D03*
X+6356000Y+2086000D03*
X+6737000Y+2086000D03*
X+6356000Y+1832000D03*
X+6737000Y+1832000D03*
X+6356000Y+1578000D03*
X+6737000Y+1578000D03*
X+6356000Y+1324000D03*
X+6737000Y+1324000D03*
X+6356000Y+1070000D03*
X+6737000Y+1070000D03*
X+6356000Y+816000D03*
X+6737000Y+816000D03*
X+6356000Y+562000D03*
X+6737000Y+562000D03*
X+6356000Y+308000D03*
X+6737000Y+308000D03*
D79*
X+1250000Y+3000000D03*
X+1750380Y+3000000D03*
X+2500000Y+3000000D03*
X+3000380Y+3000000D03*
D80*
X+5900000Y+500000D03*
X+5700000Y+500000D03*
X+5500000Y+500000D03*
X+5300000Y+500000D03*
X+5100000Y+500000D03*
X+4900000Y+500000D03*
X+5850000Y+1500000D03*
X+5650000Y+1500000D03*
X+5450000Y+1500000D03*
X+5250000Y+1500000D03*
X+5050000Y+1500000D03*
X+4850000Y+1500000D03*
X+4650000Y+1500000D03*
X+5850000Y+3250000D03*
X+5650000Y+3250000D03*
X+5450000Y+3250000D03*
X+5250000Y+3250000D03*
X+5050000Y+3250000D03*
X+4850000Y+3250000D03*
X+4650000Y+3250000D03*
X+1700000Y+1500000D03*
X+1500000Y+1500000D03*
X+1300000Y+1500000D03*
X+1100000Y+1500000D03*
X+1700000Y+500000D03*
X+1500000Y+500000D03*
X+1300000Y+500000D03*
X+1100000Y+500000D03*
X+4050000Y+1250000D03*
X+3850000Y+1250000D03*
X+3650000Y+1250000D03*
X+3450000Y+1250000D03*
X+3250000Y+1250000D03*
X+3050000Y+1250000D03*
X+2850000Y+1250000D03*
X+2650000Y+1250000D03*
X+5700000Y+5500000D03*
X+5500000Y+5500000D03*
X+5300000Y+5500000D03*
D77*
X+250000Y+5750000D03*
X+1250000Y+5750000D03*
X+1000000Y+4750000D03*
X+1000000Y+4250000D03*
X+2250000Y+2000000D03*
X+2250000Y+1500000D03*
X+2250000Y+1000000D03*
X+2250000Y+500000D03*
X+4262000Y+2500000D03*
X+4250000Y+2000000D03*
X+5250000Y+4750000D03*
X+5250000Y+4250000D03*
X+5250000Y+3750000D03*
M02*
